<?xml version="1.0" encoding="utf-8" standalone="no"?>
<!DOCTYPE svg PUBLIC "-//W3C//DTD SVG 1.1//EN"
  "http://www.w3.org/Graphics/SVG/1.1/DTD/svg11.dtd">
<!-- Created with matplotlib (http://matplotlib.org/) -->
<svg height="504pt" version="1.1" viewBox="0 0 720 504" width="720pt" xmlns="http://www.w3.org/2000/svg" xmlns:xlink="http://www.w3.org/1999/xlink">
 <defs>
  <style type="text/css">
*{stroke-linecap:butt;stroke-linejoin:round;}
  </style>
 </defs>
 <g id="figure_1">
  <g id="patch_1">
   <path d="M 0 504 
L 720 504 
L 720 0 
L 0 0 
z
" style="fill:none;"/>
  </g>
  <g id="axes_1">
   <g id="patch_2">
    <path d="M 90 441 
L 648 441 
L 648 60.48 
L 90 60.48 
z
" style="fill:none;"/>
   </g>
   <g id="patch_3">
    <path clip-path="url(#pf3d0f4c58c)" d="M 151.651783 441 
L 154.394812 441 
L 154.394812 439.642697 
L 151.651783 439.642697 
z
" style="fill:#708090;"/>
   </g>
   <g id="patch_4">
    <path clip-path="url(#pf3d0f4c58c)" d="M 154.394812 441 
L 157.137842 441 
L 157.137842 441 
L 154.394812 441 
z
" style="fill:#708090;"/>
   </g>
   <g id="patch_5">
    <path clip-path="url(#pf3d0f4c58c)" d="M 157.137842 441 
L 159.880871 441 
L 159.880871 441 
L 157.137842 441 
z
" style="fill:#708090;"/>
   </g>
   <g id="patch_6">
    <path clip-path="url(#pf3d0f4c58c)" d="M 159.880871 441 
L 162.6239 441 
L 162.6239 439.642697 
L 159.880871 439.642697 
z
" style="fill:#708090;"/>
   </g>
   <g id="patch_7">
    <path clip-path="url(#pf3d0f4c58c)" d="M 162.6239 441 
L 165.36693 441 
L 165.36693 439.642697 
L 162.6239 439.642697 
z
" style="fill:#708090;"/>
   </g>
   <g id="patch_8">
    <path clip-path="url(#pf3d0f4c58c)" d="M 165.36693 441 
L 168.109959 441 
L 168.109959 441 
L 165.36693 441 
z
" style="fill:#708090;"/>
   </g>
   <g id="patch_9">
    <path clip-path="url(#pf3d0f4c58c)" d="M 168.109959 441 
L 170.852989 441 
L 170.852989 441 
L 168.109959 441 
z
" style="fill:#708090;"/>
   </g>
   <g id="patch_10">
    <path clip-path="url(#pf3d0f4c58c)" d="M 170.852989 441 
L 173.596018 441 
L 173.596018 441 
L 170.852989 441 
z
" style="fill:#708090;"/>
   </g>
   <g id="patch_11">
    <path clip-path="url(#pf3d0f4c58c)" d="M 173.596018 441 
L 176.339047 441 
L 176.339047 441 
L 173.596018 441 
z
" style="fill:#708090;"/>
   </g>
   <g id="patch_12">
    <path clip-path="url(#pf3d0f4c58c)" d="M 176.339047 441 
L 179.082077 441 
L 179.082077 439.642697 
L 176.339047 439.642697 
z
" style="fill:#708090;"/>
   </g>
   <g id="patch_13">
    <path clip-path="url(#pf3d0f4c58c)" d="M 179.082077 441 
L 181.825106 441 
L 181.825106 439.642697 
L 179.082077 439.642697 
z
" style="fill:#708090;"/>
   </g>
   <g id="patch_14">
    <path clip-path="url(#pf3d0f4c58c)" d="M 181.825106 441 
L 184.568136 441 
L 184.568136 439.642697 
L 181.825106 439.642697 
z
" style="fill:#708090;"/>
   </g>
   <g id="patch_15">
    <path clip-path="url(#pf3d0f4c58c)" d="M 184.568136 441 
L 187.311165 441 
L 187.311165 434.213483 
L 184.568136 434.213483 
z
" style="fill:#708090;"/>
   </g>
   <g id="patch_16">
    <path clip-path="url(#pf3d0f4c58c)" d="M 187.311165 441 
L 190.054194 441 
L 190.054194 438.285393 
L 187.311165 438.285393 
z
" style="fill:#708090;"/>
   </g>
   <g id="patch_17">
    <path clip-path="url(#pf3d0f4c58c)" d="M 190.054194 441 
L 192.797224 441 
L 192.797224 439.642697 
L 190.054194 439.642697 
z
" style="fill:#708090;"/>
   </g>
   <g id="patch_18">
    <path clip-path="url(#pf3d0f4c58c)" d="M 192.797224 441 
L 195.540253 441 
L 195.540253 438.285393 
L 192.797224 438.285393 
z
" style="fill:#708090;"/>
   </g>
   <g id="patch_19">
    <path clip-path="url(#pf3d0f4c58c)" d="M 195.540253 441 
L 198.283283 441 
L 198.283283 431.498876 
L 195.540253 431.498876 
z
" style="fill:#708090;"/>
   </g>
   <g id="patch_20">
    <path clip-path="url(#pf3d0f4c58c)" d="M 198.283283 441 
L 201.026312 441 
L 201.026312 430.141573 
L 198.283283 430.141573 
z
" style="fill:#708090;"/>
   </g>
   <g id="patch_21">
    <path clip-path="url(#pf3d0f4c58c)" d="M 201.026312 441 
L 203.769341 441 
L 203.769341 427.426966 
L 201.026312 427.426966 
z
" style="fill:#708090;"/>
   </g>
   <g id="patch_22">
    <path clip-path="url(#pf3d0f4c58c)" d="M 203.769341 441 
L 206.512371 441 
L 206.512371 430.141573 
L 203.769341 430.141573 
z
" style="fill:#708090;"/>
   </g>
   <g id="patch_23">
    <path clip-path="url(#pf3d0f4c58c)" d="M 206.512371 441 
L 209.2554 441 
L 209.2554 423.355056 
L 206.512371 423.355056 
z
" style="fill:#708090;"/>
   </g>
   <g id="patch_24">
    <path clip-path="url(#pf3d0f4c58c)" d="M 209.2554 441 
L 211.99843 441 
L 211.99843 419.283146 
L 209.2554 419.283146 
z
" style="fill:#708090;"/>
   </g>
   <g id="patch_25">
    <path clip-path="url(#pf3d0f4c58c)" d="M 211.99843 441 
L 214.741459 441 
L 214.741459 408.424719 
L 211.99843 408.424719 
z
" style="fill:#708090;"/>
   </g>
   <g id="patch_26">
    <path clip-path="url(#pf3d0f4c58c)" d="M 214.741459 441 
L 217.484488 441 
L 217.484488 407.067416 
L 214.741459 407.067416 
z
" style="fill:#708090;"/>
   </g>
   <g id="patch_27">
    <path clip-path="url(#pf3d0f4c58c)" d="M 217.484488 441 
L 220.227518 441 
L 220.227518 402.995506 
L 217.484488 402.995506 
z
" style="fill:#708090;"/>
   </g>
   <g id="patch_28">
    <path clip-path="url(#pf3d0f4c58c)" d="M 220.227518 441 
L 222.970547 441 
L 222.970547 381.278652 
L 220.227518 381.278652 
z
" style="fill:#708090;"/>
   </g>
   <g id="patch_29">
    <path clip-path="url(#pf3d0f4c58c)" d="M 222.970547 441 
L 225.713577 441 
L 225.713577 373.134831 
L 222.970547 373.134831 
z
" style="fill:#708090;"/>
   </g>
   <g id="patch_30">
    <path clip-path="url(#pf3d0f4c58c)" d="M 225.713577 441 
L 228.456606 441 
L 228.456606 382.635955 
L 225.713577 382.635955 
z
" style="fill:#708090;"/>
   </g>
   <g id="patch_31">
    <path clip-path="url(#pf3d0f4c58c)" d="M 228.456606 441 
L 231.199635 441 
L 231.199635 369.062921 
L 228.456606 369.062921 
z
" style="fill:#708090;"/>
   </g>
   <g id="patch_32">
    <path clip-path="url(#pf3d0f4c58c)" d="M 231.199635 441 
L 233.942665 441 
L 233.942665 356.847191 
L 231.199635 356.847191 
z
" style="fill:#708090;"/>
   </g>
   <g id="patch_33">
    <path clip-path="url(#pf3d0f4c58c)" d="M 233.942665 441 
L 236.685694 441 
L 236.685694 324.27191 
L 233.942665 324.27191 
z
" style="fill:#708090;"/>
   </g>
   <g id="patch_34">
    <path clip-path="url(#pf3d0f4c58c)" d="M 236.685694 441 
L 239.428724 441 
L 239.428724 314.770787 
L 236.685694 314.770787 
z
" style="fill:#708090;"/>
   </g>
   <g id="patch_35">
    <path clip-path="url(#pf3d0f4c58c)" d="M 239.428724 441 
L 242.171753 441 
L 242.171753 305.269663 
L 239.428724 305.269663 
z
" style="fill:#708090;"/>
   </g>
   <g id="patch_36">
    <path clip-path="url(#pf3d0f4c58c)" d="M 242.171753 441 
L 244.914782 441 
L 244.914782 280.838202 
L 242.171753 280.838202 
z
" style="fill:#708090;"/>
   </g>
   <g id="patch_37">
    <path clip-path="url(#pf3d0f4c58c)" d="M 244.914782 441 
L 247.657812 441 
L 247.657812 271.337079 
L 244.914782 271.337079 
z
" style="fill:#708090;"/>
   </g>
   <g id="patch_38">
    <path clip-path="url(#pf3d0f4c58c)" d="M 247.657812 441 
L 250.400841 441 
L 250.400841 223.831461 
L 247.657812 223.831461 
z
" style="fill:#708090;"/>
   </g>
   <g id="patch_39">
    <path clip-path="url(#pf3d0f4c58c)" d="M 250.400841 441 
L 253.143871 441 
L 253.143871 231.975281 
L 250.400841 231.975281 
z
" style="fill:#708090;"/>
   </g>
   <g id="patch_40">
    <path clip-path="url(#pf3d0f4c58c)" d="M 253.143871 441 
L 255.8869 441 
L 255.8869 177.683146 
L 253.143871 177.683146 
z
" style="fill:#708090;"/>
   </g>
   <g id="patch_41">
    <path clip-path="url(#pf3d0f4c58c)" d="M 255.8869 441 
L 258.62993 441 
L 258.62993 183.11236 
L 255.8869 183.11236 
z
" style="fill:#708090;"/>
   </g>
   <g id="patch_42">
    <path clip-path="url(#pf3d0f4c58c)" d="M 258.62993 441 
L 261.372959 441 
L 261.372959 162.752809 
L 258.62993 162.752809 
z
" style="fill:#708090;"/>
   </g>
   <g id="patch_43">
    <path clip-path="url(#pf3d0f4c58c)" d="M 261.372959 441 
L 264.115988 441 
L 264.115988 145.107865 
L 261.372959 145.107865 
z
" style="fill:#708090;"/>
   </g>
   <g id="patch_44">
    <path clip-path="url(#pf3d0f4c58c)" d="M 264.115988 441 
L 266.859018 441 
L 266.859018 124.748315 
L 264.115988 124.748315 
z
" style="fill:#708090;"/>
   </g>
   <g id="patch_45">
    <path clip-path="url(#pf3d0f4c58c)" d="M 266.859018 441 
L 269.602047 441 
L 269.602047 168.182022 
L 266.859018 168.182022 
z
" style="fill:#708090;"/>
   </g>
   <g id="patch_46">
    <path clip-path="url(#pf3d0f4c58c)" d="M 269.602047 441 
L 272.345077 441 
L 272.345077 113.889888 
L 269.602047 113.889888 
z
" style="fill:#708090;"/>
   </g>
   <g id="patch_47">
    <path clip-path="url(#pf3d0f4c58c)" d="M 272.345077 441 
L 275.088106 441 
L 275.088106 85.386517 
L 272.345077 85.386517 
z
" style="fill:#708090;"/>
   </g>
   <g id="patch_48">
    <path clip-path="url(#pf3d0f4c58c)" d="M 275.088106 441 
L 277.831135 441 
L 277.831135 100.316854 
L 275.088106 100.316854 
z
" style="fill:#708090;"/>
   </g>
   <g id="patch_49">
    <path clip-path="url(#pf3d0f4c58c)" d="M 277.831135 441 
L 280.574165 441 
L 280.574165 108.460674 
L 277.831135 108.460674 
z
" style="fill:#708090;"/>
   </g>
   <g id="patch_50">
    <path clip-path="url(#pf3d0f4c58c)" d="M 280.574165 441 
L 283.317194 441 
L 283.317194 78.6 
L 280.574165 78.6 
z
" style="fill:#708090;"/>
   </g>
   <g id="patch_51">
    <path clip-path="url(#pf3d0f4c58c)" d="M 283.317194 441 
L 286.060224 441 
L 286.060224 138.321348 
L 283.317194 138.321348 
z
" style="fill:#708090;"/>
   </g>
   <g id="patch_52">
    <path clip-path="url(#pf3d0f4c58c)" d="M 286.060224 441 
L 288.803253 441 
L 288.803253 92.173034 
L 286.060224 92.173034 
z
" style="fill:#708090;"/>
   </g>
   <g id="patch_53">
    <path clip-path="url(#pf3d0f4c58c)" d="M 288.803253 441 
L 291.546282 441 
L 291.546282 136.964045 
L 288.803253 136.964045 
z
" style="fill:#708090;"/>
   </g>
   <g id="patch_54">
    <path clip-path="url(#pf3d0f4c58c)" d="M 291.546282 441 
L 294.289312 441 
L 294.289312 139.678652 
L 291.546282 139.678652 
z
" style="fill:#708090;"/>
   </g>
   <g id="patch_55">
    <path clip-path="url(#pf3d0f4c58c)" d="M 294.289312 441 
L 297.032341 441 
L 297.032341 142.393258 
L 294.289312 142.393258 
z
" style="fill:#708090;"/>
   </g>
   <g id="patch_56">
    <path clip-path="url(#pf3d0f4c58c)" d="M 297.032341 441 
L 299.775371 441 
L 299.775371 158.680899 
L 297.032341 158.680899 
z
" style="fill:#708090;"/>
   </g>
   <g id="patch_57">
    <path clip-path="url(#pf3d0f4c58c)" d="M 299.775371 441 
L 302.5184 441 
L 302.5184 177.683146 
L 299.775371 177.683146 
z
" style="fill:#708090;"/>
   </g>
   <g id="patch_58">
    <path clip-path="url(#pf3d0f4c58c)" d="M 302.5184 441 
L 305.261429 441 
L 305.261429 200.757303 
L 302.5184 200.757303 
z
" style="fill:#708090;"/>
   </g>
   <g id="patch_59">
    <path clip-path="url(#pf3d0f4c58c)" d="M 305.261429 441 
L 308.004459 441 
L 308.004459 206.186517 
L 305.261429 206.186517 
z
" style="fill:#708090;"/>
   </g>
   <g id="patch_60">
    <path clip-path="url(#pf3d0f4c58c)" d="M 308.004459 441 
L 310.747488 441 
L 310.747488 195.32809 
L 308.004459 195.32809 
z
" style="fill:#708090;"/>
   </g>
   <g id="patch_61">
    <path clip-path="url(#pf3d0f4c58c)" d="M 310.747488 441 
L 313.490518 441 
L 313.490518 234.689888 
L 310.747488 234.689888 
z
" style="fill:#708090;"/>
   </g>
   <g id="patch_62">
    <path clip-path="url(#pf3d0f4c58c)" d="M 313.490518 441 
L 316.233547 441 
L 316.233547 263.193258 
L 313.490518 263.193258 
z
" style="fill:#708090;"/>
   </g>
   <g id="patch_63">
    <path clip-path="url(#pf3d0f4c58c)" d="M 316.233547 441 
L 318.976576 441 
L 318.976576 252.334831 
L 316.233547 252.334831 
z
" style="fill:#708090;"/>
   </g>
   <g id="patch_64">
    <path clip-path="url(#pf3d0f4c58c)" d="M 318.976576 441 
L 321.719606 441 
L 321.719606 288.982022 
L 318.976576 288.982022 
z
" style="fill:#708090;"/>
   </g>
   <g id="patch_65">
    <path clip-path="url(#pf3d0f4c58c)" d="M 321.719606 441 
L 324.462635 441 
L 324.462635 274.051685 
L 321.719606 274.051685 
z
" style="fill:#708090;"/>
   </g>
   <g id="patch_66">
    <path clip-path="url(#pf3d0f4c58c)" d="M 324.462635 441 
L 327.205665 441 
L 327.205665 333.773034 
L 324.462635 333.773034 
z
" style="fill:#708090;"/>
   </g>
   <g id="patch_67">
    <path clip-path="url(#pf3d0f4c58c)" d="M 327.205665 441 
L 329.948694 441 
L 329.948694 341.916854 
L 327.205665 341.916854 
z
" style="fill:#708090;"/>
   </g>
   <g id="patch_68">
    <path clip-path="url(#pf3d0f4c58c)" d="M 329.948694 441 
L 332.691723 441 
L 332.691723 332.41573 
L 329.948694 332.41573 
z
" style="fill:#708090;"/>
   </g>
   <g id="patch_69">
    <path clip-path="url(#pf3d0f4c58c)" d="M 332.691723 441 
L 335.434753 441 
L 335.434753 358.204494 
L 332.691723 358.204494 
z
" style="fill:#708090;"/>
   </g>
   <g id="patch_70">
    <path clip-path="url(#pf3d0f4c58c)" d="M 335.434753 441 
L 338.177782 441 
L 338.177782 356.847191 
L 335.434753 356.847191 
z
" style="fill:#708090;"/>
   </g>
   <g id="patch_71">
    <path clip-path="url(#pf3d0f4c58c)" d="M 338.177782 441 
L 340.920812 441 
L 340.920812 363.633708 
L 338.177782 363.633708 
z
" style="fill:#708090;"/>
   </g>
   <g id="patch_72">
    <path clip-path="url(#pf3d0f4c58c)" d="M 340.920812 441 
L 343.663841 441 
L 343.663841 378.564045 
L 340.920812 378.564045 
z
" style="fill:#708090;"/>
   </g>
   <g id="patch_73">
    <path clip-path="url(#pf3d0f4c58c)" d="M 343.663841 441 
L 346.40687 441 
L 346.40687 388.065169 
L 343.663841 388.065169 
z
" style="fill:#708090;"/>
   </g>
   <g id="patch_74">
    <path clip-path="url(#pf3d0f4c58c)" d="M 346.40687 441 
L 349.1499 441 
L 349.1499 394.851685 
L 346.40687 394.851685 
z
" style="fill:#708090;"/>
   </g>
   <g id="patch_75">
    <path clip-path="url(#pf3d0f4c58c)" d="M 349.1499 441 
L 351.892929 441 
L 351.892929 402.995506 
L 349.1499 402.995506 
z
" style="fill:#708090;"/>
   </g>
   <g id="patch_76">
    <path clip-path="url(#pf3d0f4c58c)" d="M 351.892929 441 
L 354.635959 441 
L 354.635959 402.995506 
L 351.892929 402.995506 
z
" style="fill:#708090;"/>
   </g>
   <g id="patch_77">
    <path clip-path="url(#pf3d0f4c58c)" d="M 354.635959 441 
L 357.378988 441 
L 357.378988 409.782022 
L 354.635959 409.782022 
z
" style="fill:#708090;"/>
   </g>
   <g id="patch_78">
    <path clip-path="url(#pf3d0f4c58c)" d="M 357.378988 441 
L 360.122017 441 
L 360.122017 398.923596 
L 357.378988 398.923596 
z
" style="fill:#708090;"/>
   </g>
   <g id="patch_79">
    <path clip-path="url(#pf3d0f4c58c)" d="M 360.122017 441 
L 362.865047 441 
L 362.865047 413.853933 
L 360.122017 413.853933 
z
" style="fill:#708090;"/>
   </g>
   <g id="patch_80">
    <path clip-path="url(#pf3d0f4c58c)" d="M 362.865047 441 
L 365.608076 441 
L 365.608076 408.424719 
L 362.865047 408.424719 
z
" style="fill:#708090;"/>
   </g>
   <g id="patch_81">
    <path clip-path="url(#pf3d0f4c58c)" d="M 365.608076 441 
L 368.351106 441 
L 368.351106 417.925843 
L 365.608076 417.925843 
z
" style="fill:#708090;"/>
   </g>
   <g id="patch_82">
    <path clip-path="url(#pf3d0f4c58c)" d="M 368.351106 441 
L 371.094135 441 
L 371.094135 424.71236 
L 368.351106 424.71236 
z
" style="fill:#708090;"/>
   </g>
   <g id="patch_83">
    <path clip-path="url(#pf3d0f4c58c)" d="M 371.094135 441 
L 373.837164 441 
L 373.837164 417.925843 
L 371.094135 417.925843 
z
" style="fill:#708090;"/>
   </g>
   <g id="patch_84">
    <path clip-path="url(#pf3d0f4c58c)" d="M 373.837164 441 
L 376.580194 441 
L 376.580194 423.355056 
L 373.837164 423.355056 
z
" style="fill:#708090;"/>
   </g>
   <g id="patch_85">
    <path clip-path="url(#pf3d0f4c58c)" d="M 376.580194 441 
L 379.323223 441 
L 379.323223 423.355056 
L 376.580194 423.355056 
z
" style="fill:#708090;"/>
   </g>
   <g id="patch_86">
    <path clip-path="url(#pf3d0f4c58c)" d="M 379.323223 441 
L 382.066253 441 
L 382.066253 427.426966 
L 379.323223 427.426966 
z
" style="fill:#708090;"/>
   </g>
   <g id="patch_87">
    <path clip-path="url(#pf3d0f4c58c)" d="M 382.066253 441 
L 384.809282 441 
L 384.809282 435.570787 
L 382.066253 435.570787 
z
" style="fill:#708090;"/>
   </g>
   <g id="patch_88">
    <path clip-path="url(#pf3d0f4c58c)" d="M 384.809282 441 
L 387.552311 441 
L 387.552311 434.213483 
L 384.809282 434.213483 
z
" style="fill:#708090;"/>
   </g>
   <g id="patch_89">
    <path clip-path="url(#pf3d0f4c58c)" d="M 387.552311 441 
L 390.295341 441 
L 390.295341 431.498876 
L 387.552311 431.498876 
z
" style="fill:#708090;"/>
   </g>
   <g id="patch_90">
    <path clip-path="url(#pf3d0f4c58c)" d="M 390.295341 441 
L 393.03837 441 
L 393.03837 435.570787 
L 390.295341 435.570787 
z
" style="fill:#708090;"/>
   </g>
   <g id="patch_91">
    <path clip-path="url(#pf3d0f4c58c)" d="M 393.03837 441 
L 395.7814 441 
L 395.7814 435.570787 
L 393.03837 435.570787 
z
" style="fill:#708090;"/>
   </g>
   <g id="patch_92">
    <path clip-path="url(#pf3d0f4c58c)" d="M 395.7814 441 
L 398.524429 441 
L 398.524429 438.285393 
L 395.7814 438.285393 
z
" style="fill:#708090;"/>
   </g>
   <g id="patch_93">
    <path clip-path="url(#pf3d0f4c58c)" d="M 398.524429 441 
L 401.267458 441 
L 401.267458 436.92809 
L 398.524429 436.92809 
z
" style="fill:#708090;"/>
   </g>
   <g id="patch_94">
    <path clip-path="url(#pf3d0f4c58c)" d="M 401.267458 441 
L 404.010488 441 
L 404.010488 436.92809 
L 401.267458 436.92809 
z
" style="fill:#708090;"/>
   </g>
   <g id="patch_95">
    <path clip-path="url(#pf3d0f4c58c)" d="M 404.010488 441 
L 406.753517 441 
L 406.753517 439.642697 
L 404.010488 439.642697 
z
" style="fill:#708090;"/>
   </g>
   <g id="patch_96">
    <path clip-path="url(#pf3d0f4c58c)" d="M 406.753517 441 
L 409.496547 441 
L 409.496547 439.642697 
L 406.753517 439.642697 
z
" style="fill:#708090;"/>
   </g>
   <g id="patch_97">
    <path clip-path="url(#pf3d0f4c58c)" d="M 409.496547 441 
L 412.239576 441 
L 412.239576 439.642697 
L 409.496547 439.642697 
z
" style="fill:#708090;"/>
   </g>
   <g id="patch_98">
    <path clip-path="url(#pf3d0f4c58c)" d="M 412.239576 441 
L 414.982605 441 
L 414.982605 439.642697 
L 412.239576 439.642697 
z
" style="fill:#708090;"/>
   </g>
   <g id="patch_99">
    <path clip-path="url(#pf3d0f4c58c)" d="M 414.982605 441 
L 417.725635 441 
L 417.725635 441 
L 414.982605 441 
z
" style="fill:#708090;"/>
   </g>
   <g id="patch_100">
    <path clip-path="url(#pf3d0f4c58c)" d="M 417.725635 441 
L 420.468664 441 
L 420.468664 441 
L 417.725635 441 
z
" style="fill:#708090;"/>
   </g>
   <g id="patch_101">
    <path clip-path="url(#pf3d0f4c58c)" d="M 420.468664 441 
L 423.211694 441 
L 423.211694 439.642697 
L 420.468664 439.642697 
z
" style="fill:#708090;"/>
   </g>
   <g id="patch_102">
    <path clip-path="url(#pf3d0f4c58c)" d="M 423.211694 441 
L 425.954723 441 
L 425.954723 439.642697 
L 423.211694 439.642697 
z
" style="fill:#708090;"/>
   </g>
   <g id="matplotlib.axis_1">
    <g id="xtick_1">
     <g id="line2d_1">
      <defs>
       <path d="M 0 0 
L 0 3.5 
" id="m1ff532fe93" style="stroke:#000000;stroke-width:0.8;"/>
      </defs>
      <g>
       <use style="stroke:#000000;stroke-width:0.8;" x="100.44385" xlink:href="#m1ff532fe93" y="441"/>
      </g>
     </g>
     <g id="text_1">
      <!-- −2.5 -->
      <defs>
       <path d="M 10.59375 35.5 
L 73.1875 35.5 
L 73.1875 27.203125 
L 10.59375 27.203125 
z
" id="DejaVuSans-2212"/>
       <path d="M 19.1875 8.296875 
L 53.609375 8.296875 
L 53.609375 0 
L 7.328125 0 
L 7.328125 8.296875 
Q 12.9375 14.109375 22.625 23.890625 
Q 32.328125 33.6875 34.8125 36.53125 
Q 39.546875 41.84375 41.421875 45.53125 
Q 43.3125 49.21875 43.3125 52.78125 
Q 43.3125 58.59375 39.234375 62.25 
Q 35.15625 65.921875 28.609375 65.921875 
Q 23.96875 65.921875 18.8125 64.3125 
Q 13.671875 62.703125 7.8125 59.421875 
L 7.8125 69.390625 
Q 13.765625 71.78125 18.9375 73 
Q 24.125 74.21875 28.421875 74.21875 
Q 39.75 74.21875 46.484375 68.546875 
Q 53.21875 62.890625 53.21875 53.421875 
Q 53.21875 48.921875 51.53125 44.890625 
Q 49.859375 40.875 45.40625 35.40625 
Q 44.1875 33.984375 37.640625 27.21875 
Q 31.109375 20.453125 19.1875 8.296875 
z
" id="DejaVuSans-32"/>
       <path d="M 10.6875 12.40625 
L 21 12.40625 
L 21 0 
L 10.6875 0 
z
" id="DejaVuSans-2e"/>
       <path d="M 10.796875 72.90625 
L 49.515625 72.90625 
L 49.515625 64.59375 
L 19.828125 64.59375 
L 19.828125 46.734375 
Q 21.96875 47.46875 24.109375 47.828125 
Q 26.265625 48.1875 28.421875 48.1875 
Q 40.625 48.1875 47.75 41.5 
Q 54.890625 34.8125 54.890625 23.390625 
Q 54.890625 11.625 47.5625 5.09375 
Q 40.234375 -1.421875 26.90625 -1.421875 
Q 22.3125 -1.421875 17.546875 -0.640625 
Q 12.796875 0.140625 7.71875 1.703125 
L 7.71875 11.625 
Q 12.109375 9.234375 16.796875 8.0625 
Q 21.484375 6.890625 26.703125 6.890625 
Q 35.15625 6.890625 40.078125 11.328125 
Q 45.015625 15.765625 45.015625 23.390625 
Q 45.015625 31 40.078125 35.4375 
Q 35.15625 39.890625 26.703125 39.890625 
Q 22.75 39.890625 18.8125 39.015625 
Q 14.890625 38.140625 10.796875 36.28125 
z
" id="DejaVuSans-35"/>
      </defs>
      <g transform="translate(73.732757 464.716563)scale(0.22 -0.22)">
       <use xlink:href="#DejaVuSans-2212"/>
       <use x="83.789062" xlink:href="#DejaVuSans-32"/>
       <use x="147.412109" xlink:href="#DejaVuSans-2e"/>
       <use x="179.199219" xlink:href="#DejaVuSans-35"/>
      </g>
     </g>
    </g>
    <g id="xtick_2">
     <g id="line2d_2">
      <g>
       <use style="stroke:#000000;stroke-width:0.8;" x="175.042781" xlink:href="#m1ff532fe93" y="441"/>
      </g>
     </g>
     <g id="text_2">
      <!-- 0.0 -->
      <defs>
       <path d="M 31.78125 66.40625 
Q 24.171875 66.40625 20.328125 58.90625 
Q 16.5 51.421875 16.5 36.375 
Q 16.5 21.390625 20.328125 13.890625 
Q 24.171875 6.390625 31.78125 6.390625 
Q 39.453125 6.390625 43.28125 13.890625 
Q 47.125 21.390625 47.125 36.375 
Q 47.125 51.421875 43.28125 58.90625 
Q 39.453125 66.40625 31.78125 66.40625 
z
M 31.78125 74.21875 
Q 44.046875 74.21875 50.515625 64.515625 
Q 56.984375 54.828125 56.984375 36.375 
Q 56.984375 17.96875 50.515625 8.265625 
Q 44.046875 -1.421875 31.78125 -1.421875 
Q 19.53125 -1.421875 13.0625 8.265625 
Q 6.59375 17.96875 6.59375 36.375 
Q 6.59375 54.828125 13.0625 64.515625 
Q 19.53125 74.21875 31.78125 74.21875 
z
" id="DejaVuSans-30"/>
      </defs>
      <g transform="translate(157.549343 464.716563)scale(0.22 -0.22)">
       <use xlink:href="#DejaVuSans-30"/>
       <use x="63.623047" xlink:href="#DejaVuSans-2e"/>
       <use x="95.410156" xlink:href="#DejaVuSans-30"/>
      </g>
     </g>
    </g>
    <g id="xtick_3">
     <g id="line2d_3">
      <g>
       <use style="stroke:#000000;stroke-width:0.8;" x="249.641711" xlink:href="#m1ff532fe93" y="441"/>
      </g>
     </g>
     <g id="text_3">
      <!-- 2.5 -->
      <g transform="translate(232.148274 464.716563)scale(0.22 -0.22)">
       <use xlink:href="#DejaVuSans-32"/>
       <use x="63.623047" xlink:href="#DejaVuSans-2e"/>
       <use x="95.410156" xlink:href="#DejaVuSans-35"/>
      </g>
     </g>
    </g>
    <g id="xtick_4">
     <g id="line2d_4">
      <g>
       <use style="stroke:#000000;stroke-width:0.8;" x="324.240642" xlink:href="#m1ff532fe93" y="441"/>
      </g>
     </g>
     <g id="text_4">
      <!-- 5.0 -->
      <g transform="translate(306.747204 464.716563)scale(0.22 -0.22)">
       <use xlink:href="#DejaVuSans-35"/>
       <use x="63.623047" xlink:href="#DejaVuSans-2e"/>
       <use x="95.410156" xlink:href="#DejaVuSans-30"/>
      </g>
     </g>
    </g>
    <g id="xtick_5">
     <g id="line2d_5">
      <g>
       <use style="stroke:#000000;stroke-width:0.8;" x="398.839572" xlink:href="#m1ff532fe93" y="441"/>
      </g>
     </g>
     <g id="text_5">
      <!-- 7.5 -->
      <defs>
       <path d="M 8.203125 72.90625 
L 55.078125 72.90625 
L 55.078125 68.703125 
L 28.609375 0 
L 18.3125 0 
L 43.21875 64.59375 
L 8.203125 64.59375 
z
" id="DejaVuSans-37"/>
      </defs>
      <g transform="translate(381.346135 464.716563)scale(0.22 -0.22)">
       <use xlink:href="#DejaVuSans-37"/>
       <use x="63.623047" xlink:href="#DejaVuSans-2e"/>
       <use x="95.410156" xlink:href="#DejaVuSans-35"/>
      </g>
     </g>
    </g>
    <g id="xtick_6">
     <g id="line2d_6">
      <g>
       <use style="stroke:#000000;stroke-width:0.8;" x="473.438503" xlink:href="#m1ff532fe93" y="441"/>
      </g>
     </g>
     <g id="text_6">
      <!-- 10.0 -->
      <defs>
       <path d="M 12.40625 8.296875 
L 28.515625 8.296875 
L 28.515625 63.921875 
L 10.984375 60.40625 
L 10.984375 69.390625 
L 28.421875 72.90625 
L 38.28125 72.90625 
L 38.28125 8.296875 
L 54.390625 8.296875 
L 54.390625 0 
L 12.40625 0 
z
" id="DejaVuSans-31"/>
      </defs>
      <g transform="translate(448.946315 464.716563)scale(0.22 -0.22)">
       <use xlink:href="#DejaVuSans-31"/>
       <use x="63.623047" xlink:href="#DejaVuSans-30"/>
       <use x="127.246094" xlink:href="#DejaVuSans-2e"/>
       <use x="159.033203" xlink:href="#DejaVuSans-30"/>
      </g>
     </g>
    </g>
    <g id="xtick_7">
     <g id="line2d_7">
      <g>
       <use style="stroke:#000000;stroke-width:0.8;" x="548.037433" xlink:href="#m1ff532fe93" y="441"/>
      </g>
     </g>
     <g id="text_7">
      <!-- 12.5 -->
      <g transform="translate(523.545246 464.716563)scale(0.22 -0.22)">
       <use xlink:href="#DejaVuSans-31"/>
       <use x="63.623047" xlink:href="#DejaVuSans-32"/>
       <use x="127.246094" xlink:href="#DejaVuSans-2e"/>
       <use x="159.033203" xlink:href="#DejaVuSans-35"/>
      </g>
     </g>
    </g>
    <g id="xtick_8">
     <g id="line2d_8">
      <g>
       <use style="stroke:#000000;stroke-width:0.8;" x="622.636364" xlink:href="#m1ff532fe93" y="441"/>
      </g>
     </g>
     <g id="text_8">
      <!-- 15.0 -->
      <g transform="translate(598.144176 464.716563)scale(0.22 -0.22)">
       <use xlink:href="#DejaVuSans-31"/>
       <use x="63.623047" xlink:href="#DejaVuSans-35"/>
       <use x="127.246094" xlink:href="#DejaVuSans-2e"/>
       <use x="159.033203" xlink:href="#DejaVuSans-30"/>
      </g>
     </g>
    </g>
    <g id="text_9">
     <!-- ln([transcripts]/[cell h]) -->
     <defs>
      <path d="M 9.421875 75.984375 
L 18.40625 75.984375 
L 18.40625 0 
L 9.421875 0 
z
" id="DejaVuSans-6c"/>
      <path d="M 54.890625 33.015625 
L 54.890625 0 
L 45.90625 0 
L 45.90625 32.71875 
Q 45.90625 40.484375 42.875 44.328125 
Q 39.84375 48.1875 33.796875 48.1875 
Q 26.515625 48.1875 22.3125 43.546875 
Q 18.109375 38.921875 18.109375 30.90625 
L 18.109375 0 
L 9.078125 0 
L 9.078125 54.6875 
L 18.109375 54.6875 
L 18.109375 46.1875 
Q 21.34375 51.125 25.703125 53.5625 
Q 30.078125 56 35.796875 56 
Q 45.21875 56 50.046875 50.171875 
Q 54.890625 44.34375 54.890625 33.015625 
z
" id="DejaVuSans-6e"/>
      <path d="M 31 75.875 
Q 24.46875 64.65625 21.28125 53.65625 
Q 18.109375 42.671875 18.109375 31.390625 
Q 18.109375 20.125 21.3125 9.0625 
Q 24.515625 -2 31 -13.1875 
L 23.1875 -13.1875 
Q 15.875 -1.703125 12.234375 9.375 
Q 8.59375 20.453125 8.59375 31.390625 
Q 8.59375 42.28125 12.203125 53.3125 
Q 15.828125 64.359375 23.1875 75.875 
z
" id="DejaVuSans-28"/>
      <path d="M 8.59375 75.984375 
L 29.296875 75.984375 
L 29.296875 69 
L 17.578125 69 
L 17.578125 -6.203125 
L 29.296875 -6.203125 
L 29.296875 -13.1875 
L 8.59375 -13.1875 
z
" id="DejaVuSans-5b"/>
      <path d="M 18.3125 70.21875 
L 18.3125 54.6875 
L 36.8125 54.6875 
L 36.8125 47.703125 
L 18.3125 47.703125 
L 18.3125 18.015625 
Q 18.3125 11.328125 20.140625 9.421875 
Q 21.96875 7.515625 27.59375 7.515625 
L 36.8125 7.515625 
L 36.8125 0 
L 27.59375 0 
Q 17.1875 0 13.234375 3.875 
Q 9.28125 7.765625 9.28125 18.015625 
L 9.28125 47.703125 
L 2.6875 47.703125 
L 2.6875 54.6875 
L 9.28125 54.6875 
L 9.28125 70.21875 
z
" id="DejaVuSans-74"/>
      <path d="M 41.109375 46.296875 
Q 39.59375 47.171875 37.8125 47.578125 
Q 36.03125 48 33.890625 48 
Q 26.265625 48 22.1875 43.046875 
Q 18.109375 38.09375 18.109375 28.8125 
L 18.109375 0 
L 9.078125 0 
L 9.078125 54.6875 
L 18.109375 54.6875 
L 18.109375 46.1875 
Q 20.953125 51.171875 25.484375 53.578125 
Q 30.03125 56 36.53125 56 
Q 37.453125 56 38.578125 55.875 
Q 39.703125 55.765625 41.0625 55.515625 
z
" id="DejaVuSans-72"/>
      <path d="M 34.28125 27.484375 
Q 23.390625 27.484375 19.1875 25 
Q 14.984375 22.515625 14.984375 16.5 
Q 14.984375 11.71875 18.140625 8.90625 
Q 21.296875 6.109375 26.703125 6.109375 
Q 34.1875 6.109375 38.703125 11.40625 
Q 43.21875 16.703125 43.21875 25.484375 
L 43.21875 27.484375 
z
M 52.203125 31.203125 
L 52.203125 0 
L 43.21875 0 
L 43.21875 8.296875 
Q 40.140625 3.328125 35.546875 0.953125 
Q 30.953125 -1.421875 24.3125 -1.421875 
Q 15.921875 -1.421875 10.953125 3.296875 
Q 6 8.015625 6 15.921875 
Q 6 25.140625 12.171875 29.828125 
Q 18.359375 34.515625 30.609375 34.515625 
L 43.21875 34.515625 
L 43.21875 35.40625 
Q 43.21875 41.609375 39.140625 45 
Q 35.0625 48.390625 27.6875 48.390625 
Q 23 48.390625 18.546875 47.265625 
Q 14.109375 46.140625 10.015625 43.890625 
L 10.015625 52.203125 
Q 14.9375 54.109375 19.578125 55.046875 
Q 24.21875 56 28.609375 56 
Q 40.484375 56 46.34375 49.84375 
Q 52.203125 43.703125 52.203125 31.203125 
z
" id="DejaVuSans-61"/>
      <path d="M 44.28125 53.078125 
L 44.28125 44.578125 
Q 40.484375 46.53125 36.375 47.5 
Q 32.28125 48.484375 27.875 48.484375 
Q 21.1875 48.484375 17.84375 46.4375 
Q 14.5 44.390625 14.5 40.28125 
Q 14.5 37.15625 16.890625 35.375 
Q 19.28125 33.59375 26.515625 31.984375 
L 29.59375 31.296875 
Q 39.15625 29.25 43.1875 25.515625 
Q 47.21875 21.78125 47.21875 15.09375 
Q 47.21875 7.46875 41.1875 3.015625 
Q 35.15625 -1.421875 24.609375 -1.421875 
Q 20.21875 -1.421875 15.453125 -0.5625 
Q 10.6875 0.296875 5.421875 2 
L 5.421875 11.28125 
Q 10.40625 8.6875 15.234375 7.390625 
Q 20.0625 6.109375 24.8125 6.109375 
Q 31.15625 6.109375 34.5625 8.28125 
Q 37.984375 10.453125 37.984375 14.40625 
Q 37.984375 18.0625 35.515625 20.015625 
Q 33.0625 21.96875 24.703125 23.78125 
L 21.578125 24.515625 
Q 13.234375 26.265625 9.515625 29.90625 
Q 5.8125 33.546875 5.8125 39.890625 
Q 5.8125 47.609375 11.28125 51.796875 
Q 16.75 56 26.8125 56 
Q 31.78125 56 36.171875 55.265625 
Q 40.578125 54.546875 44.28125 53.078125 
z
" id="DejaVuSans-73"/>
      <path d="M 48.78125 52.59375 
L 48.78125 44.1875 
Q 44.96875 46.296875 41.140625 47.34375 
Q 37.3125 48.390625 33.40625 48.390625 
Q 24.65625 48.390625 19.8125 42.84375 
Q 14.984375 37.3125 14.984375 27.296875 
Q 14.984375 17.28125 19.8125 11.734375 
Q 24.65625 6.203125 33.40625 6.203125 
Q 37.3125 6.203125 41.140625 7.25 
Q 44.96875 8.296875 48.78125 10.40625 
L 48.78125 2.09375 
Q 45.015625 0.34375 40.984375 -0.53125 
Q 36.96875 -1.421875 32.421875 -1.421875 
Q 20.0625 -1.421875 12.78125 6.34375 
Q 5.515625 14.109375 5.515625 27.296875 
Q 5.515625 40.671875 12.859375 48.328125 
Q 20.21875 56 33.015625 56 
Q 37.15625 56 41.109375 55.140625 
Q 45.0625 54.296875 48.78125 52.59375 
z
" id="DejaVuSans-63"/>
      <path d="M 9.421875 54.6875 
L 18.40625 54.6875 
L 18.40625 0 
L 9.421875 0 
z
M 9.421875 75.984375 
L 18.40625 75.984375 
L 18.40625 64.59375 
L 9.421875 64.59375 
z
" id="DejaVuSans-69"/>
      <path d="M 18.109375 8.203125 
L 18.109375 -20.796875 
L 9.078125 -20.796875 
L 9.078125 54.6875 
L 18.109375 54.6875 
L 18.109375 46.390625 
Q 20.953125 51.265625 25.265625 53.625 
Q 29.59375 56 35.59375 56 
Q 45.5625 56 51.78125 48.09375 
Q 58.015625 40.1875 58.015625 27.296875 
Q 58.015625 14.40625 51.78125 6.484375 
Q 45.5625 -1.421875 35.59375 -1.421875 
Q 29.59375 -1.421875 25.265625 0.953125 
Q 20.953125 3.328125 18.109375 8.203125 
z
M 48.6875 27.296875 
Q 48.6875 37.203125 44.609375 42.84375 
Q 40.53125 48.484375 33.40625 48.484375 
Q 26.265625 48.484375 22.1875 42.84375 
Q 18.109375 37.203125 18.109375 27.296875 
Q 18.109375 17.390625 22.1875 11.75 
Q 26.265625 6.109375 33.40625 6.109375 
Q 40.53125 6.109375 44.609375 11.75 
Q 48.6875 17.390625 48.6875 27.296875 
z
" id="DejaVuSans-70"/>
      <path d="M 30.421875 75.984375 
L 30.421875 -13.1875 
L 9.71875 -13.1875 
L 9.71875 -6.203125 
L 21.390625 -6.203125 
L 21.390625 69 
L 9.71875 69 
L 9.71875 75.984375 
z
" id="DejaVuSans-5d"/>
      <path d="M 25.390625 72.90625 
L 33.6875 72.90625 
L 8.296875 -9.28125 
L 0 -9.28125 
z
" id="DejaVuSans-2f"/>
      <path d="M 56.203125 29.59375 
L 56.203125 25.203125 
L 14.890625 25.203125 
Q 15.484375 15.921875 20.484375 11.0625 
Q 25.484375 6.203125 34.421875 6.203125 
Q 39.59375 6.203125 44.453125 7.46875 
Q 49.3125 8.734375 54.109375 11.28125 
L 54.109375 2.78125 
Q 49.265625 0.734375 44.1875 -0.34375 
Q 39.109375 -1.421875 33.890625 -1.421875 
Q 20.796875 -1.421875 13.15625 6.1875 
Q 5.515625 13.8125 5.515625 26.8125 
Q 5.515625 40.234375 12.765625 48.109375 
Q 20.015625 56 32.328125 56 
Q 43.359375 56 49.78125 48.890625 
Q 56.203125 41.796875 56.203125 29.59375 
z
M 47.21875 32.234375 
Q 47.125 39.59375 43.09375 43.984375 
Q 39.0625 48.390625 32.421875 48.390625 
Q 24.90625 48.390625 20.390625 44.140625 
Q 15.875 39.890625 15.1875 32.171875 
z
" id="DejaVuSans-65"/>
      <path id="DejaVuSans-20"/>
      <path d="M 54.890625 33.015625 
L 54.890625 0 
L 45.90625 0 
L 45.90625 32.71875 
Q 45.90625 40.484375 42.875 44.328125 
Q 39.84375 48.1875 33.796875 48.1875 
Q 26.515625 48.1875 22.3125 43.546875 
Q 18.109375 38.921875 18.109375 30.90625 
L 18.109375 0 
L 9.078125 0 
L 9.078125 75.984375 
L 18.109375 75.984375 
L 18.109375 46.1875 
Q 21.34375 51.125 25.703125 53.5625 
Q 30.078125 56 35.796875 56 
Q 45.21875 56 50.046875 50.171875 
Q 54.890625 44.34375 54.890625 33.015625 
z
" id="DejaVuSans-68"/>
      <path d="M 8.015625 75.875 
L 15.828125 75.875 
Q 23.140625 64.359375 26.78125 53.3125 
Q 30.421875 42.28125 30.421875 31.390625 
Q 30.421875 20.453125 26.78125 9.375 
Q 23.140625 -1.703125 15.828125 -13.1875 
L 8.015625 -13.1875 
Q 14.5 -2 17.703125 9.0625 
Q 20.90625 20.125 20.90625 31.390625 
Q 20.90625 42.671875 17.703125 53.65625 
Q 14.5 64.65625 8.015625 75.875 
z
" id="DejaVuSans-29"/>
     </defs>
     <g transform="translate(241.192031 490.008438)scale(0.22 -0.22)">
      <use xlink:href="#DejaVuSans-6c"/>
      <use x="27.783203" xlink:href="#DejaVuSans-6e"/>
      <use x="91.162109" xlink:href="#DejaVuSans-28"/>
      <use x="130.175781" xlink:href="#DejaVuSans-5b"/>
      <use x="169.189453" xlink:href="#DejaVuSans-74"/>
      <use x="208.398438" xlink:href="#DejaVuSans-72"/>
      <use x="249.511719" xlink:href="#DejaVuSans-61"/>
      <use x="310.791016" xlink:href="#DejaVuSans-6e"/>
      <use x="374.169922" xlink:href="#DejaVuSans-73"/>
      <use x="426.269531" xlink:href="#DejaVuSans-63"/>
      <use x="481.25" xlink:href="#DejaVuSans-72"/>
      <use x="522.363281" xlink:href="#DejaVuSans-69"/>
      <use x="550.146484" xlink:href="#DejaVuSans-70"/>
      <use x="613.623047" xlink:href="#DejaVuSans-74"/>
      <use x="652.832031" xlink:href="#DejaVuSans-73"/>
      <use x="704.931641" xlink:href="#DejaVuSans-5d"/>
      <use x="743.945312" xlink:href="#DejaVuSans-2f"/>
      <use x="777.636719" xlink:href="#DejaVuSans-5b"/>
      <use x="816.650391" xlink:href="#DejaVuSans-63"/>
      <use x="871.630859" xlink:href="#DejaVuSans-65"/>
      <use x="933.154297" xlink:href="#DejaVuSans-6c"/>
      <use x="960.9375" xlink:href="#DejaVuSans-6c"/>
      <use x="988.720703" xlink:href="#DejaVuSans-20"/>
      <use x="1020.507812" xlink:href="#DejaVuSans-68"/>
      <use x="1083.886719" xlink:href="#DejaVuSans-5d"/>
      <use x="1122.900391" xlink:href="#DejaVuSans-29"/>
     </g>
    </g>
   </g>
   <g id="matplotlib.axis_2">
    <g id="ytick_1">
     <g id="line2d_9">
      <defs>
       <path d="M 0 0 
L -3.5 0 
" id="mee6489535b" style="stroke:#000000;stroke-width:0.8;"/>
      </defs>
      <g>
       <use style="stroke:#000000;stroke-width:0.8;" x="90" xlink:href="#mee6489535b" y="441"/>
      </g>
     </g>
     <g id="text_10">
      <!-- 0.00 -->
      <g transform="translate(34.015625 449.358281)scale(0.22 -0.22)">
       <use xlink:href="#DejaVuSans-30"/>
       <use x="63.623047" xlink:href="#DejaVuSans-2e"/>
       <use x="95.410156" xlink:href="#DejaVuSans-30"/>
       <use x="159.033203" xlink:href="#DejaVuSans-30"/>
      </g>
     </g>
    </g>
    <g id="ytick_2">
     <g id="line2d_10">
      <g>
       <use style="stroke:#000000;stroke-width:0.8;" x="90" xlink:href="#mee6489535b" y="395.514612"/>
      </g>
     </g>
     <g id="text_11">
      <!-- 0.05 -->
      <g transform="translate(34.015625 403.872894)scale(0.22 -0.22)">
       <use xlink:href="#DejaVuSans-30"/>
       <use x="63.623047" xlink:href="#DejaVuSans-2e"/>
       <use x="95.410156" xlink:href="#DejaVuSans-30"/>
       <use x="159.033203" xlink:href="#DejaVuSans-35"/>
      </g>
     </g>
    </g>
    <g id="ytick_3">
     <g id="line2d_11">
      <g>
       <use style="stroke:#000000;stroke-width:0.8;" x="90" xlink:href="#mee6489535b" y="350.029225"/>
      </g>
     </g>
     <g id="text_12">
      <!-- 0.10 -->
      <g transform="translate(34.015625 358.387506)scale(0.22 -0.22)">
       <use xlink:href="#DejaVuSans-30"/>
       <use x="63.623047" xlink:href="#DejaVuSans-2e"/>
       <use x="95.410156" xlink:href="#DejaVuSans-31"/>
       <use x="159.033203" xlink:href="#DejaVuSans-30"/>
      </g>
     </g>
    </g>
    <g id="ytick_4">
     <g id="line2d_12">
      <g>
       <use style="stroke:#000000;stroke-width:0.8;" x="90" xlink:href="#mee6489535b" y="304.543837"/>
      </g>
     </g>
     <g id="text_13">
      <!-- 0.15 -->
      <g transform="translate(34.015625 312.902118)scale(0.22 -0.22)">
       <use xlink:href="#DejaVuSans-30"/>
       <use x="63.623047" xlink:href="#DejaVuSans-2e"/>
       <use x="95.410156" xlink:href="#DejaVuSans-31"/>
       <use x="159.033203" xlink:href="#DejaVuSans-35"/>
      </g>
     </g>
    </g>
    <g id="ytick_5">
     <g id="line2d_13">
      <g>
       <use style="stroke:#000000;stroke-width:0.8;" x="90" xlink:href="#mee6489535b" y="259.058449"/>
      </g>
     </g>
     <g id="text_14">
      <!-- 0.20 -->
      <g transform="translate(34.015625 267.416731)scale(0.22 -0.22)">
       <use xlink:href="#DejaVuSans-30"/>
       <use x="63.623047" xlink:href="#DejaVuSans-2e"/>
       <use x="95.410156" xlink:href="#DejaVuSans-32"/>
       <use x="159.033203" xlink:href="#DejaVuSans-30"/>
      </g>
     </g>
    </g>
    <g id="ytick_6">
     <g id="line2d_14">
      <g>
       <use style="stroke:#000000;stroke-width:0.8;" x="90" xlink:href="#mee6489535b" y="213.573062"/>
      </g>
     </g>
     <g id="text_15">
      <!-- 0.25 -->
      <g transform="translate(34.015625 221.931343)scale(0.22 -0.22)">
       <use xlink:href="#DejaVuSans-30"/>
       <use x="63.623047" xlink:href="#DejaVuSans-2e"/>
       <use x="95.410156" xlink:href="#DejaVuSans-32"/>
       <use x="159.033203" xlink:href="#DejaVuSans-35"/>
      </g>
     </g>
    </g>
    <g id="ytick_7">
     <g id="line2d_15">
      <g>
       <use style="stroke:#000000;stroke-width:0.8;" x="90" xlink:href="#mee6489535b" y="168.087674"/>
      </g>
     </g>
     <g id="text_16">
      <!-- 0.30 -->
      <defs>
       <path d="M 40.578125 39.3125 
Q 47.65625 37.796875 51.625 33 
Q 55.609375 28.21875 55.609375 21.1875 
Q 55.609375 10.40625 48.1875 4.484375 
Q 40.765625 -1.421875 27.09375 -1.421875 
Q 22.515625 -1.421875 17.65625 -0.515625 
Q 12.796875 0.390625 7.625 2.203125 
L 7.625 11.71875 
Q 11.71875 9.328125 16.59375 8.109375 
Q 21.484375 6.890625 26.8125 6.890625 
Q 36.078125 6.890625 40.9375 10.546875 
Q 45.796875 14.203125 45.796875 21.1875 
Q 45.796875 27.640625 41.28125 31.265625 
Q 36.765625 34.90625 28.71875 34.90625 
L 20.21875 34.90625 
L 20.21875 43.015625 
L 29.109375 43.015625 
Q 36.375 43.015625 40.234375 45.921875 
Q 44.09375 48.828125 44.09375 54.296875 
Q 44.09375 59.90625 40.109375 62.90625 
Q 36.140625 65.921875 28.71875 65.921875 
Q 24.65625 65.921875 20.015625 65.03125 
Q 15.375 64.15625 9.8125 62.3125 
L 9.8125 71.09375 
Q 15.4375 72.65625 20.34375 73.4375 
Q 25.25 74.21875 29.59375 74.21875 
Q 40.828125 74.21875 47.359375 69.109375 
Q 53.90625 64.015625 53.90625 55.328125 
Q 53.90625 49.265625 50.4375 45.09375 
Q 46.96875 40.921875 40.578125 39.3125 
z
" id="DejaVuSans-33"/>
      </defs>
      <g transform="translate(34.015625 176.445955)scale(0.22 -0.22)">
       <use xlink:href="#DejaVuSans-30"/>
       <use x="63.623047" xlink:href="#DejaVuSans-2e"/>
       <use x="95.410156" xlink:href="#DejaVuSans-33"/>
       <use x="159.033203" xlink:href="#DejaVuSans-30"/>
      </g>
     </g>
    </g>
    <g id="ytick_8">
     <g id="line2d_16">
      <g>
       <use style="stroke:#000000;stroke-width:0.8;" x="90" xlink:href="#mee6489535b" y="122.602286"/>
      </g>
     </g>
     <g id="text_17">
      <!-- 0.35 -->
      <g transform="translate(34.015625 130.960567)scale(0.22 -0.22)">
       <use xlink:href="#DejaVuSans-30"/>
       <use x="63.623047" xlink:href="#DejaVuSans-2e"/>
       <use x="95.410156" xlink:href="#DejaVuSans-33"/>
       <use x="159.033203" xlink:href="#DejaVuSans-35"/>
      </g>
     </g>
    </g>
    <g id="ytick_9">
     <g id="line2d_17">
      <g>
       <use style="stroke:#000000;stroke-width:0.8;" x="90" xlink:href="#mee6489535b" y="77.116899"/>
      </g>
     </g>
     <g id="text_18">
      <!-- 0.40 -->
      <defs>
       <path d="M 37.796875 64.3125 
L 12.890625 25.390625 
L 37.796875 25.390625 
z
M 35.203125 72.90625 
L 47.609375 72.90625 
L 47.609375 25.390625 
L 58.015625 25.390625 
L 58.015625 17.1875 
L 47.609375 17.1875 
L 47.609375 0 
L 37.796875 0 
L 37.796875 17.1875 
L 4.890625 17.1875 
L 4.890625 26.703125 
z
" id="DejaVuSans-34"/>
      </defs>
      <g transform="translate(34.015625 85.47518)scale(0.22 -0.22)">
       <use xlink:href="#DejaVuSans-30"/>
       <use x="63.623047" xlink:href="#DejaVuSans-2e"/>
       <use x="95.410156" xlink:href="#DejaVuSans-34"/>
       <use x="159.033203" xlink:href="#DejaVuSans-30"/>
      </g>
     </g>
    </g>
    <g id="text_19">
     <!-- Frequency -->
     <defs>
      <path d="M 9.8125 72.90625 
L 51.703125 72.90625 
L 51.703125 64.59375 
L 19.671875 64.59375 
L 19.671875 43.109375 
L 48.578125 43.109375 
L 48.578125 34.8125 
L 19.671875 34.8125 
L 19.671875 0 
L 9.8125 0 
z
" id="DejaVuSans-46"/>
      <path d="M 14.796875 27.296875 
Q 14.796875 17.390625 18.875 11.75 
Q 22.953125 6.109375 30.078125 6.109375 
Q 37.203125 6.109375 41.296875 11.75 
Q 45.40625 17.390625 45.40625 27.296875 
Q 45.40625 37.203125 41.296875 42.84375 
Q 37.203125 48.484375 30.078125 48.484375 
Q 22.953125 48.484375 18.875 42.84375 
Q 14.796875 37.203125 14.796875 27.296875 
z
M 45.40625 8.203125 
Q 42.578125 3.328125 38.25 0.953125 
Q 33.9375 -1.421875 27.875 -1.421875 
Q 17.96875 -1.421875 11.734375 6.484375 
Q 5.515625 14.40625 5.515625 27.296875 
Q 5.515625 40.1875 11.734375 48.09375 
Q 17.96875 56 27.875 56 
Q 33.9375 56 38.25 53.625 
Q 42.578125 51.265625 45.40625 46.390625 
L 45.40625 54.6875 
L 54.390625 54.6875 
L 54.390625 -20.796875 
L 45.40625 -20.796875 
z
" id="DejaVuSans-71"/>
      <path d="M 8.5 21.578125 
L 8.5 54.6875 
L 17.484375 54.6875 
L 17.484375 21.921875 
Q 17.484375 14.15625 20.5 10.265625 
Q 23.53125 6.390625 29.59375 6.390625 
Q 36.859375 6.390625 41.078125 11.03125 
Q 45.3125 15.671875 45.3125 23.6875 
L 45.3125 54.6875 
L 54.296875 54.6875 
L 54.296875 0 
L 45.3125 0 
L 45.3125 8.40625 
Q 42.046875 3.421875 37.71875 1 
Q 33.40625 -1.421875 27.6875 -1.421875 
Q 18.265625 -1.421875 13.375 4.4375 
Q 8.5 10.296875 8.5 21.578125 
z
M 31.109375 56 
z
" id="DejaVuSans-75"/>
      <path d="M 32.171875 -5.078125 
Q 28.375 -14.84375 24.75 -17.8125 
Q 21.140625 -20.796875 15.09375 -20.796875 
L 7.90625 -20.796875 
L 7.90625 -13.28125 
L 13.1875 -13.28125 
Q 16.890625 -13.28125 18.9375 -11.515625 
Q 21 -9.765625 23.484375 -3.21875 
L 25.09375 0.875 
L 2.984375 54.6875 
L 12.5 54.6875 
L 29.59375 11.921875 
L 46.6875 54.6875 
L 56.203125 54.6875 
z
" id="DejaVuSans-79"/>
     </defs>
     <g transform="translate(25.440312 308.594844)rotate(-90)scale(0.22 -0.22)">
      <use xlink:href="#DejaVuSans-46"/>
      <use x="57.410156" xlink:href="#DejaVuSans-72"/>
      <use x="98.492188" xlink:href="#DejaVuSans-65"/>
      <use x="160.015625" xlink:href="#DejaVuSans-71"/>
      <use x="223.492188" xlink:href="#DejaVuSans-75"/>
      <use x="286.871094" xlink:href="#DejaVuSans-65"/>
      <use x="348.394531" xlink:href="#DejaVuSans-6e"/>
      <use x="411.773438" xlink:href="#DejaVuSans-63"/>
      <use x="466.753906" xlink:href="#DejaVuSans-79"/>
     </g>
    </g>
   </g>
   <g id="line2d_18">
    <path clip-path="url(#pf3d0f4c58c)" d="M 356.755972 441 
L 356.755972 60.48 
" style="fill:none;stroke:#dc143c;stroke-dasharray:7.4,3.2;stroke-dashoffset:0;stroke-width:2;"/>
   </g>
   <g id="line2d_19">
    <path clip-path="url(#pf3d0f4c58c)" d="M 373.409805 441 
L 373.409805 60.48 
" style="fill:none;stroke:#8a2be2;stroke-linecap:square;stroke-width:2;"/>
   </g>
   <g id="line2d_20">
    <path clip-path="url(#pf3d0f4c58c)" d="M 350.562719 441 
L 350.562719 60.48 
" style="fill:none;stroke:#436eee;stroke-dasharray:7.4,3.2;stroke-dashoffset:0;stroke-width:2;"/>
   </g>
   <g id="line2d_21">
    <path clip-path="url(#pf3d0f4c58c)" d="M 264.412592 441 
L 264.412592 60.48 
" style="fill:none;stroke:#00c5cd;stroke-linecap:square;stroke-width:2;"/>
   </g>
   <g id="line2d_22">
    <path clip-path="url(#pf3d0f4c58c)" d="M 343.347387 441 
L 343.347387 60.48 
" style="fill:none;stroke:#66cd00;stroke-dasharray:7.4,3.2;stroke-dashoffset:0;stroke-width:2;"/>
   </g>
   <g id="line2d_23">
    <path clip-path="url(#pf3d0f4c58c)" d="M 333.880964 441 
L 333.880964 60.48 
" style="fill:none;stroke:#ff7f00;stroke-linecap:square;stroke-width:2;"/>
   </g>
   <g id="line2d_24">
    <path clip-path="url(#pf3d0f4c58c)" d="M 299.633089 441 
L 299.633089 60.48 
" style="fill:none;stroke:#ff6666;stroke-dasharray:7.4,3.2;stroke-dashoffset:0;stroke-width:2;"/>
   </g>
   <g id="line2d_25">
    <path clip-path="url(#pf3d0f4c58c)" d="M 408.030339 441 
L 408.030339 60.48 
" style="fill:none;stroke:#ff6666;stroke-linecap:square;stroke-width:2;"/>
   </g>
   <g id="line2d_26">
    <path clip-path="url(#pf3d0f4c58c)" d="M 115.363636 440.998822 
L 120.487603 440.99751 
L 125.61157 440.994857 
L 130.735537 440.989619 
L 135.859504 440.979526 
L 140.983471 440.960541 
L 146.107438 440.925686 
L 151.231405 440.863235 
L 156.355372 440.754041 
L 161.479339 440.567756 
L 166.603306 440.257706 
L 171.727273 439.754331 
L 176.85124 438.957278 
L 181.975207 437.726624 
L 187.099174 435.87419 
L 192.22314 433.156515 
L 197.347107 429.271684 
L 202.471074 423.86271 
L 207.595041 416.530301 
L 212.719008 406.857519 
L 217.842975 394.447665 
L 222.966942 378.974848 
L 228.090909 360.244118 
L 233.214876 338.255057 
L 238.338843 313.26006 
L 243.46281 285.806715 
L 248.586777 256.753561 
L 253.710744 227.250432 
L 258.834711 198.678834 
L 263.958678 172.553704 
L 269.082645 150.394757 
L 274.206612 133.581897 
L 279.330579 123.213537 
L 284.454545 119.987967 
L 289.578512 124.125572 
L 294.702479 135.343922 
L 299.826446 152.889662 
L 304.950413 175.622187 
L 310.07438 202.136197 
L 315.198347 230.904845 
L 320.322314 260.423308 
L 325.446281 289.334321 
L 330.570248 316.521916 
L 335.694215 341.166007 
L 340.818182 362.757278 
L 345.942149 381.077569 
L 351.066116 396.154915 
L 356.190083 408.204047 
L 361.31405 417.562806 
L 366.438017 424.63293 
L 371.561983 429.83095 
L 376.68595 433.551969 
L 381.809917 436.146593 
L 386.933884 437.909478 
L 392.057851 439.076922 
L 397.181818 439.830657 
L 402.305785 440.305188 
L 407.429752 440.596566 
L 412.553719 440.771094 
L 417.677686 440.873082 
L 422.801653 440.931235 
L 427.92562 440.963592 
L 433.049587 440.981164 
L 438.173554 440.990477 
L 443.297521 440.995295 
L 448.421488 440.997729 
L 453.545455 440.998928 
L 458.669421 440.999506 
L 463.793388 440.999777 
L 468.917355 440.999902 
L 474.041322 440.999958 
L 479.165289 440.999982 
L 484.289256 440.999993 
L 489.413223 440.999997 
L 494.53719 440.999999 
L 499.661157 441 
L 504.785124 441 
L 509.909091 441 
L 515.033058 441 
L 520.157025 441 
L 525.280992 441 
L 530.404959 441 
L 535.528926 441 
L 540.652893 441 
L 545.77686 441 
L 550.900826 441 
L 556.024793 441 
L 561.14876 441 
L 566.272727 441 
L 571.396694 441 
L 576.520661 441 
L 581.644628 441 
L 586.768595 441 
L 591.892562 441 
L 597.016529 441 
L 602.140496 441 
L 607.264463 441 
L 612.38843 441 
L 617.512397 441 
L 622.636364 441 
" style="fill:none;stroke:#70029f;stroke-linecap:square;stroke-width:3;"/>
   </g>
   <g id="patch_103">
    <path d="M 90 441 
L 90 60.48 
" style="fill:none;stroke:#000000;stroke-linecap:square;stroke-linejoin:miter;stroke-width:0.8;"/>
   </g>
   <g id="patch_104">
    <path d="M 648 441 
L 648 60.48 
" style="fill:none;stroke:#000000;stroke-linecap:square;stroke-linejoin:miter;stroke-width:0.8;"/>
   </g>
   <g id="patch_105">
    <path d="M 90 441 
L 648 441 
" style="fill:none;stroke:#000000;stroke-linecap:square;stroke-linejoin:miter;stroke-width:0.8;"/>
   </g>
   <g id="patch_106">
    <path d="M 90 60.48 
L 648 60.48 
" style="fill:none;stroke:#000000;stroke-linecap:square;stroke-linejoin:miter;stroke-width:0.8;"/>
   </g>
   <g id="text_20">
    <!-- U2017.1 max transcription rates -->
    <defs>
     <path d="M 8.6875 72.90625 
L 18.609375 72.90625 
L 18.609375 28.609375 
Q 18.609375 16.890625 22.84375 11.734375 
Q 27.09375 6.59375 36.625 6.59375 
Q 46.09375 6.59375 50.34375 11.734375 
Q 54.59375 16.890625 54.59375 28.609375 
L 54.59375 72.90625 
L 64.5 72.90625 
L 64.5 27.390625 
Q 64.5 13.140625 57.4375 5.859375 
Q 50.390625 -1.421875 36.625 -1.421875 
Q 22.796875 -1.421875 15.734375 5.859375 
Q 8.6875 13.140625 8.6875 27.390625 
z
" id="DejaVuSans-55"/>
     <path d="M 52 44.1875 
Q 55.375 50.25 60.0625 53.125 
Q 64.75 56 71.09375 56 
Q 79.640625 56 84.28125 50.015625 
Q 88.921875 44.046875 88.921875 33.015625 
L 88.921875 0 
L 79.890625 0 
L 79.890625 32.71875 
Q 79.890625 40.578125 77.09375 44.375 
Q 74.3125 48.1875 68.609375 48.1875 
Q 61.625 48.1875 57.5625 43.546875 
Q 53.515625 38.921875 53.515625 30.90625 
L 53.515625 0 
L 44.484375 0 
L 44.484375 32.71875 
Q 44.484375 40.625 41.703125 44.40625 
Q 38.921875 48.1875 33.109375 48.1875 
Q 26.21875 48.1875 22.15625 43.53125 
Q 18.109375 38.875 18.109375 30.90625 
L 18.109375 0 
L 9.078125 0 
L 9.078125 54.6875 
L 18.109375 54.6875 
L 18.109375 46.1875 
Q 21.1875 51.21875 25.484375 53.609375 
Q 29.78125 56 35.6875 56 
Q 41.65625 56 45.828125 52.96875 
Q 50 49.953125 52 44.1875 
z
" id="DejaVuSans-6d"/>
     <path d="M 54.890625 54.6875 
L 35.109375 28.078125 
L 55.90625 0 
L 45.3125 0 
L 29.390625 21.484375 
L 13.484375 0 
L 2.875 0 
L 24.125 28.609375 
L 4.6875 54.6875 
L 15.28125 54.6875 
L 29.78125 35.203125 
L 44.28125 54.6875 
z
" id="DejaVuSans-78"/>
     <path d="M 30.609375 48.390625 
Q 23.390625 48.390625 19.1875 42.75 
Q 14.984375 37.109375 14.984375 27.296875 
Q 14.984375 17.484375 19.15625 11.84375 
Q 23.34375 6.203125 30.609375 6.203125 
Q 37.796875 6.203125 41.984375 11.859375 
Q 46.1875 17.53125 46.1875 27.296875 
Q 46.1875 37.015625 41.984375 42.703125 
Q 37.796875 48.390625 30.609375 48.390625 
z
M 30.609375 56 
Q 42.328125 56 49.015625 48.375 
Q 55.71875 40.765625 55.71875 27.296875 
Q 55.71875 13.875 49.015625 6.21875 
Q 42.328125 -1.421875 30.609375 -1.421875 
Q 18.84375 -1.421875 12.171875 6.21875 
Q 5.515625 13.875 5.515625 27.296875 
Q 5.515625 40.765625 12.171875 48.375 
Q 18.84375 56 30.609375 56 
z
" id="DejaVuSans-6f"/>
    </defs>
    <g transform="translate(189.975 54.48)scale(0.22 -0.22)">
     <use xlink:href="#DejaVuSans-55"/>
     <use x="73.193359" xlink:href="#DejaVuSans-32"/>
     <use x="136.816406" xlink:href="#DejaVuSans-30"/>
     <use x="200.439453" xlink:href="#DejaVuSans-31"/>
     <use x="264.0625" xlink:href="#DejaVuSans-37"/>
     <use x="327.685547" xlink:href="#DejaVuSans-2e"/>
     <use x="359.472656" xlink:href="#DejaVuSans-31"/>
     <use x="423.095703" xlink:href="#DejaVuSans-20"/>
     <use x="454.882812" xlink:href="#DejaVuSans-6d"/>
     <use x="552.294922" xlink:href="#DejaVuSans-61"/>
     <use x="613.574219" xlink:href="#DejaVuSans-78"/>
     <use x="672.753906" xlink:href="#DejaVuSans-20"/>
     <use x="704.541016" xlink:href="#DejaVuSans-74"/>
     <use x="743.75" xlink:href="#DejaVuSans-72"/>
     <use x="784.863281" xlink:href="#DejaVuSans-61"/>
     <use x="846.142578" xlink:href="#DejaVuSans-6e"/>
     <use x="909.521484" xlink:href="#DejaVuSans-73"/>
     <use x="961.621094" xlink:href="#DejaVuSans-63"/>
     <use x="1016.601562" xlink:href="#DejaVuSans-72"/>
     <use x="1057.714844" xlink:href="#DejaVuSans-69"/>
     <use x="1085.498047" xlink:href="#DejaVuSans-70"/>
     <use x="1148.974609" xlink:href="#DejaVuSans-74"/>
     <use x="1188.183594" xlink:href="#DejaVuSans-69"/>
     <use x="1215.966797" xlink:href="#DejaVuSans-6f"/>
     <use x="1277.148438" xlink:href="#DejaVuSans-6e"/>
     <use x="1340.527344" xlink:href="#DejaVuSans-20"/>
     <use x="1372.314453" xlink:href="#DejaVuSans-72"/>
     <use x="1413.427734" xlink:href="#DejaVuSans-61"/>
     <use x="1474.707031" xlink:href="#DejaVuSans-74"/>
     <use x="1513.916016" xlink:href="#DejaVuSans-65"/>
     <use x="1575.439453" xlink:href="#DejaVuSans-73"/>
    </g>
   </g>
   <g id="legend_1">
    <g id="patch_107">
     <path d="M 101.2 288.205 
L 291.675 288.205 
Q 294.875 288.205 294.875 285.005 
L 294.875 71.68 
Q 294.875 68.48 291.675 68.48 
L 101.2 68.48 
Q 98 68.48 98 71.68 
L 98 285.005 
Q 98 288.205 101.2 288.205 
z
" style="fill:#ffffff;opacity:0.8;stroke:#cccccc;stroke-linejoin:miter;"/>
    </g>
    <g id="line2d_27">
     <path d="M 104.4 81.4375 
L 136.4 81.4375 
" style="fill:none;stroke:#dc143c;stroke-dasharray:7.4,3.2;stroke-dashoffset:0;stroke-width:2;"/>
    </g>
    <g id="line2d_28"/>
    <g id="text_21">
     <!-- cL_m -->
     <defs>
      <path d="M 9.8125 72.90625 
L 19.671875 72.90625 
L 19.671875 8.296875 
L 55.171875 8.296875 
L 55.171875 0 
L 9.8125 0 
z
" id="DejaVuSans-4c"/>
      <path d="M 50.984375 -16.609375 
L 50.984375 -23.578125 
L -0.984375 -23.578125 
L -0.984375 -16.609375 
z
" id="DejaVuSans-5f"/>
     </defs>
     <g transform="translate(149.2 87.0375)scale(0.16 -0.16)">
      <use xlink:href="#DejaVuSans-63"/>
      <use x="54.980469" xlink:href="#DejaVuSans-4c"/>
      <use x="110.693359" xlink:href="#DejaVuSans-5f"/>
      <use x="160.693359" xlink:href="#DejaVuSans-6d"/>
     </g>
    </g>
    <g id="line2d_29">
     <path d="M 104.4 105.3675 
L 136.4 105.3675 
" style="fill:none;stroke:#8a2be2;stroke-linecap:square;stroke-width:2;"/>
    </g>
    <g id="line2d_30"/>
    <g id="text_22">
     <!-- cP9_m -->
     <defs>
      <path d="M 19.671875 64.796875 
L 19.671875 37.40625 
L 32.078125 37.40625 
Q 38.96875 37.40625 42.71875 40.96875 
Q 46.484375 44.53125 46.484375 51.125 
Q 46.484375 57.671875 42.71875 61.234375 
Q 38.96875 64.796875 32.078125 64.796875 
z
M 9.8125 72.90625 
L 32.078125 72.90625 
Q 44.34375 72.90625 50.609375 67.359375 
Q 56.890625 61.8125 56.890625 51.125 
Q 56.890625 40.328125 50.609375 34.8125 
Q 44.34375 29.296875 32.078125 29.296875 
L 19.671875 29.296875 
L 19.671875 0 
L 9.8125 0 
z
" id="DejaVuSans-50"/>
      <path d="M 10.984375 1.515625 
L 10.984375 10.5 
Q 14.703125 8.734375 18.5 7.8125 
Q 22.3125 6.890625 25.984375 6.890625 
Q 35.75 6.890625 40.890625 13.453125 
Q 46.046875 20.015625 46.78125 33.40625 
Q 43.953125 29.203125 39.59375 26.953125 
Q 35.25 24.703125 29.984375 24.703125 
Q 19.046875 24.703125 12.671875 31.3125 
Q 6.296875 37.9375 6.296875 49.421875 
Q 6.296875 60.640625 12.9375 67.421875 
Q 19.578125 74.21875 30.609375 74.21875 
Q 43.265625 74.21875 49.921875 64.515625 
Q 56.59375 54.828125 56.59375 36.375 
Q 56.59375 19.140625 48.40625 8.859375 
Q 40.234375 -1.421875 26.421875 -1.421875 
Q 22.703125 -1.421875 18.890625 -0.6875 
Q 15.09375 0.046875 10.984375 1.515625 
z
M 30.609375 32.421875 
Q 37.25 32.421875 41.125 36.953125 
Q 45.015625 41.5 45.015625 49.421875 
Q 45.015625 57.28125 41.125 61.84375 
Q 37.25 66.40625 30.609375 66.40625 
Q 23.96875 66.40625 20.09375 61.84375 
Q 16.21875 57.28125 16.21875 49.421875 
Q 16.21875 41.5 20.09375 36.953125 
Q 23.96875 32.421875 30.609375 32.421875 
z
" id="DejaVuSans-39"/>
     </defs>
     <g transform="translate(149.2 110.9675)scale(0.16 -0.16)">
      <use xlink:href="#DejaVuSans-63"/>
      <use x="54.980469" xlink:href="#DejaVuSans-50"/>
      <use x="115.283203" xlink:href="#DejaVuSans-39"/>
      <use x="178.90625" xlink:href="#DejaVuSans-5f"/>
      <use x="228.90625" xlink:href="#DejaVuSans-6d"/>
     </g>
    </g>
    <g id="line2d_31">
     <path d="M 104.4 129.2975 
L 136.4 129.2975 
" style="fill:none;stroke:#436eee;stroke-dasharray:7.4,3.2;stroke-dashoffset:0;stroke-width:2;"/>
    </g>
    <g id="line2d_32"/>
    <g id="text_23">
     <!-- cP7_m -->
     <g transform="translate(149.2 134.8975)scale(0.16 -0.16)">
      <use xlink:href="#DejaVuSans-63"/>
      <use x="54.980469" xlink:href="#DejaVuSans-50"/>
      <use x="115.283203" xlink:href="#DejaVuSans-37"/>
      <use x="178.90625" xlink:href="#DejaVuSans-5f"/>
      <use x="228.90625" xlink:href="#DejaVuSans-6d"/>
     </g>
    </g>
    <g id="line2d_33">
     <path d="M 104.4 153.2275 
L 136.4 153.2275 
" style="fill:none;stroke:#00c5cd;stroke-linecap:square;stroke-width:2;"/>
    </g>
    <g id="line2d_34"/>
    <g id="text_24">
     <!-- cP5_m -->
     <g transform="translate(149.2 158.8275)scale(0.16 -0.16)">
      <use xlink:href="#DejaVuSans-63"/>
      <use x="54.980469" xlink:href="#DejaVuSans-50"/>
      <use x="115.283203" xlink:href="#DejaVuSans-35"/>
      <use x="178.90625" xlink:href="#DejaVuSans-5f"/>
      <use x="228.90625" xlink:href="#DejaVuSans-6d"/>
     </g>
    </g>
    <g id="line2d_35">
     <path d="M 104.4 177.1575 
L 136.4 177.1575 
" style="fill:none;stroke:#66cd00;stroke-dasharray:7.4,3.2;stroke-dashoffset:0;stroke-width:2;"/>
    </g>
    <g id="line2d_36"/>
    <g id="text_25">
     <!-- cT_m -->
     <defs>
      <path d="M -0.296875 72.90625 
L 61.375 72.90625 
L 61.375 64.59375 
L 35.5 64.59375 
L 35.5 0 
L 25.59375 0 
L 25.59375 64.59375 
L -0.296875 64.59375 
z
" id="DejaVuSans-54"/>
     </defs>
     <g transform="translate(149.2 182.7575)scale(0.16 -0.16)">
      <use xlink:href="#DejaVuSans-63"/>
      <use x="54.980469" xlink:href="#DejaVuSans-54"/>
      <use x="116.064453" xlink:href="#DejaVuSans-5f"/>
      <use x="166.064453" xlink:href="#DejaVuSans-6d"/>
     </g>
    </g>
    <g id="line2d_37">
     <path d="M 104.4 201.0875 
L 136.4 201.0875 
" style="fill:none;stroke:#ff7f00;stroke-linecap:square;stroke-width:2;"/>
    </g>
    <g id="line2d_38"/>
    <g id="text_26">
     <!-- cLUX_m &amp; cE4_m -->
     <defs>
      <path d="M 6.296875 72.90625 
L 16.890625 72.90625 
L 35.015625 45.796875 
L 53.21875 72.90625 
L 63.8125 72.90625 
L 40.375 37.890625 
L 65.375 0 
L 54.78125 0 
L 34.28125 31 
L 13.625 0 
L 2.984375 0 
L 29 38.921875 
z
" id="DejaVuSans-58"/>
      <path d="M 24.3125 39.203125 
Q 19.875 35.25 17.796875 31.3125 
Q 15.71875 27.390625 15.71875 23.09375 
Q 15.71875 15.96875 20.890625 11.234375 
Q 26.078125 6.5 33.890625 6.5 
Q 38.53125 6.5 42.578125 8.03125 
Q 46.625 9.578125 50.203125 12.703125 
z
M 31.203125 44.671875 
L 56 19.28125 
Q 58.890625 23.640625 60.5 28.59375 
Q 62.109375 33.546875 62.40625 39.109375 
L 71.484375 39.109375 
Q 70.90625 32.671875 68.359375 26.359375 
Q 65.828125 20.0625 61.28125 13.921875 
L 74.90625 0 
L 62.59375 0 
L 55.609375 7.171875 
Q 50.53125 2.828125 44.96875 0.703125 
Q 39.40625 -1.421875 33.015625 -1.421875 
Q 21.234375 -1.421875 13.765625 5.296875 
Q 6.296875 12.015625 6.296875 22.515625 
Q 6.296875 28.765625 9.5625 34.25 
Q 12.84375 39.75 19.390625 44.578125 
Q 17.046875 47.65625 15.8125 50.703125 
Q 14.59375 53.765625 14.59375 56.6875 
Q 14.59375 64.59375 20.015625 69.40625 
Q 25.4375 74.21875 34.421875 74.21875 
Q 38.484375 74.21875 42.5 73.34375 
Q 46.53125 72.46875 50.6875 70.703125 
L 50.6875 61.8125 
Q 46.4375 64.109375 42.578125 65.296875 
Q 38.71875 66.5 35.40625 66.5 
Q 30.28125 66.5 27.078125 63.78125 
Q 23.875 61.078125 23.875 56.78125 
Q 23.875 54.296875 25.3125 51.78125 
Q 26.765625 49.265625 31.203125 44.671875 
z
" id="DejaVuSans-26"/>
      <path d="M 9.8125 72.90625 
L 55.90625 72.90625 
L 55.90625 64.59375 
L 19.671875 64.59375 
L 19.671875 43.015625 
L 54.390625 43.015625 
L 54.390625 34.71875 
L 19.671875 34.71875 
L 19.671875 8.296875 
L 56.78125 8.296875 
L 56.78125 0 
L 9.8125 0 
z
" id="DejaVuSans-45"/>
     </defs>
     <g transform="translate(149.2 206.6875)scale(0.16 -0.16)">
      <use xlink:href="#DejaVuSans-63"/>
      <use x="54.980469" xlink:href="#DejaVuSans-4c"/>
      <use x="110.615234" xlink:href="#DejaVuSans-55"/>
      <use x="183.808594" xlink:href="#DejaVuSans-58"/>
      <use x="252.314453" xlink:href="#DejaVuSans-5f"/>
      <use x="302.314453" xlink:href="#DejaVuSans-6d"/>
      <use x="399.726562" xlink:href="#DejaVuSans-20"/>
      <use x="431.513672" xlink:href="#DejaVuSans-26"/>
      <use x="509.492188" xlink:href="#DejaVuSans-20"/>
      <use x="541.279297" xlink:href="#DejaVuSans-63"/>
      <use x="596.259766" xlink:href="#DejaVuSans-45"/>
      <use x="659.443359" xlink:href="#DejaVuSans-34"/>
      <use x="723.066406" xlink:href="#DejaVuSans-5f"/>
      <use x="773.066406" xlink:href="#DejaVuSans-6d"/>
     </g>
    </g>
    <g id="line2d_39">
     <path d="M 104.4 225.0175 
L 136.4 225.0175 
" style="fill:none;stroke:#ff6666;stroke-dasharray:7.4,3.2;stroke-dashoffset:0;stroke-width:2;"/>
    </g>
    <g id="line2d_40"/>
    <g id="text_27">
     <!-- cE3_m -->
     <g transform="translate(149.2 230.6175)scale(0.16 -0.16)">
      <use xlink:href="#DejaVuSans-63"/>
      <use x="54.980469" xlink:href="#DejaVuSans-45"/>
      <use x="118.164062" xlink:href="#DejaVuSans-33"/>
      <use x="181.787109" xlink:href="#DejaVuSans-5f"/>
      <use x="231.787109" xlink:href="#DejaVuSans-6d"/>
     </g>
    </g>
    <g id="line2d_41">
     <path d="M 104.4 248.9475 
L 136.4 248.9475 
" style="fill:none;stroke:#ff6666;stroke-linecap:square;stroke-width:2;"/>
    </g>
    <g id="line2d_42"/>
    <g id="text_28">
     <!-- cG_m -->
     <defs>
      <path d="M 59.515625 10.40625 
L 59.515625 29.984375 
L 43.40625 29.984375 
L 43.40625 38.09375 
L 69.28125 38.09375 
L 69.28125 6.78125 
Q 63.578125 2.734375 56.6875 0.65625 
Q 49.8125 -1.421875 42 -1.421875 
Q 24.90625 -1.421875 15.25 8.5625 
Q 5.609375 18.5625 5.609375 36.375 
Q 5.609375 54.25 15.25 64.234375 
Q 24.90625 74.21875 42 74.21875 
Q 49.125 74.21875 55.546875 72.453125 
Q 61.96875 70.703125 67.390625 67.28125 
L 67.390625 56.78125 
Q 61.921875 61.421875 55.765625 63.765625 
Q 49.609375 66.109375 42.828125 66.109375 
Q 29.4375 66.109375 22.71875 58.640625 
Q 16.015625 51.171875 16.015625 36.375 
Q 16.015625 21.625 22.71875 14.15625 
Q 29.4375 6.6875 42.828125 6.6875 
Q 48.046875 6.6875 52.140625 7.59375 
Q 56.25 8.5 59.515625 10.40625 
z
" id="DejaVuSans-47"/>
     </defs>
     <g transform="translate(149.2 254.5475)scale(0.16 -0.16)">
      <use xlink:href="#DejaVuSans-63"/>
      <use x="54.980469" xlink:href="#DejaVuSans-47"/>
      <use x="132.470703" xlink:href="#DejaVuSans-5f"/>
      <use x="182.470703" xlink:href="#DejaVuSans-6d"/>
     </g>
    </g>
    <g id="line2d_43">
     <path d="M 104.4 272.8775 
L 136.4 272.8775 
" style="fill:none;stroke:#70029f;stroke-linecap:square;stroke-width:3;"/>
    </g>
    <g id="line2d_44"/>
    <g id="text_29">
     <!-- Fitted normal -->
     <defs>
      <path d="M 45.40625 46.390625 
L 45.40625 75.984375 
L 54.390625 75.984375 
L 54.390625 0 
L 45.40625 0 
L 45.40625 8.203125 
Q 42.578125 3.328125 38.25 0.953125 
Q 33.9375 -1.421875 27.875 -1.421875 
Q 17.96875 -1.421875 11.734375 6.484375 
Q 5.515625 14.40625 5.515625 27.296875 
Q 5.515625 40.1875 11.734375 48.09375 
Q 17.96875 56 27.875 56 
Q 33.9375 56 38.25 53.625 
Q 42.578125 51.265625 45.40625 46.390625 
z
M 14.796875 27.296875 
Q 14.796875 17.390625 18.875 11.75 
Q 22.953125 6.109375 30.078125 6.109375 
Q 37.203125 6.109375 41.296875 11.75 
Q 45.40625 17.390625 45.40625 27.296875 
Q 45.40625 37.203125 41.296875 42.84375 
Q 37.203125 48.484375 30.078125 48.484375 
Q 22.953125 48.484375 18.875 42.84375 
Q 14.796875 37.203125 14.796875 27.296875 
z
" id="DejaVuSans-64"/>
     </defs>
     <g transform="translate(149.2 278.4775)scale(0.16 -0.16)">
      <use xlink:href="#DejaVuSans-46"/>
      <use x="57.410156" xlink:href="#DejaVuSans-69"/>
      <use x="85.193359" xlink:href="#DejaVuSans-74"/>
      <use x="124.402344" xlink:href="#DejaVuSans-74"/>
      <use x="163.611328" xlink:href="#DejaVuSans-65"/>
      <use x="225.134766" xlink:href="#DejaVuSans-64"/>
      <use x="288.611328" xlink:href="#DejaVuSans-20"/>
      <use x="320.398438" xlink:href="#DejaVuSans-6e"/>
      <use x="383.777344" xlink:href="#DejaVuSans-6f"/>
      <use x="444.958984" xlink:href="#DejaVuSans-72"/>
      <use x="486.056641" xlink:href="#DejaVuSans-6d"/>
      <use x="583.46875" xlink:href="#DejaVuSans-61"/>
      <use x="644.748047" xlink:href="#DejaVuSans-6c"/>
     </g>
    </g>
   </g>
  </g>
 </g>
 <defs>
  <clipPath id="pf3d0f4c58c">
   <rect height="380.52" width="558" x="90" y="60.48"/>
  </clipPath>
 </defs>
</svg>
