<?xml version="1.0" encoding="utf-8" standalone="no"?>
<!DOCTYPE svg PUBLIC "-//W3C//DTD SVG 1.1//EN"
  "http://www.w3.org/Graphics/SVG/1.1/DTD/svg11.dtd">
<!-- Created with matplotlib (http://matplotlib.org/) -->
<svg height="504pt" version="1.1" viewBox="0 0 504 504" width="504pt" xmlns="http://www.w3.org/2000/svg" xmlns:xlink="http://www.w3.org/1999/xlink">
 <defs>
  <style type="text/css">
*{stroke-linecap:butt;stroke-linejoin:round;}
  </style>
 </defs>
 <g id="figure_1">
  <g id="patch_1">
   <path d="M 0 504 
L 504 504 
L 504 0 
L 0 0 
z
" style="fill:none;"/>
  </g>
  <g id="axes_1">
   <g id="patch_2">
    <path d="M 63 441 
L 453.6 441 
L 453.6 60.48 
L 63 60.48 
z
" style="fill:none;"/>
   </g>
   <g id="patch_3">
    <path clip-path="url(#p48e6a4ff0a)" d="M 120.011722 441 
L 122.979181 441 
L 122.979181 439.642697 
L 120.011722 439.642697 
z
" style="fill:#708090;"/>
   </g>
   <g id="patch_4">
    <path clip-path="url(#p48e6a4ff0a)" d="M 122.979181 441 
L 125.94664 441 
L 125.94664 441 
L 122.979181 441 
z
" style="fill:#708090;"/>
   </g>
   <g id="patch_5">
    <path clip-path="url(#p48e6a4ff0a)" d="M 125.94664 441 
L 128.914099 441 
L 128.914099 441 
L 125.94664 441 
z
" style="fill:#708090;"/>
   </g>
   <g id="patch_6">
    <path clip-path="url(#p48e6a4ff0a)" d="M 128.914099 441 
L 131.881558 441 
L 131.881558 439.642697 
L 128.914099 439.642697 
z
" style="fill:#708090;"/>
   </g>
   <g id="patch_7">
    <path clip-path="url(#p48e6a4ff0a)" d="M 131.881558 441 
L 134.849017 441 
L 134.849017 439.642697 
L 131.881558 439.642697 
z
" style="fill:#708090;"/>
   </g>
   <g id="patch_8">
    <path clip-path="url(#p48e6a4ff0a)" d="M 134.849017 441 
L 137.816477 441 
L 137.816477 441 
L 134.849017 441 
z
" style="fill:#708090;"/>
   </g>
   <g id="patch_9">
    <path clip-path="url(#p48e6a4ff0a)" d="M 137.816477 441 
L 140.783936 441 
L 140.783936 441 
L 137.816477 441 
z
" style="fill:#708090;"/>
   </g>
   <g id="patch_10">
    <path clip-path="url(#p48e6a4ff0a)" d="M 140.783936 441 
L 143.751395 441 
L 143.751395 441 
L 140.783936 441 
z
" style="fill:#708090;"/>
   </g>
   <g id="patch_11">
    <path clip-path="url(#p48e6a4ff0a)" d="M 143.751395 441 
L 146.718854 441 
L 146.718854 441 
L 143.751395 441 
z
" style="fill:#708090;"/>
   </g>
   <g id="patch_12">
    <path clip-path="url(#p48e6a4ff0a)" d="M 146.718854 441 
L 149.686313 441 
L 149.686313 439.642697 
L 146.718854 439.642697 
z
" style="fill:#708090;"/>
   </g>
   <g id="patch_13">
    <path clip-path="url(#p48e6a4ff0a)" d="M 149.686313 441 
L 152.653772 441 
L 152.653772 439.642697 
L 149.686313 439.642697 
z
" style="fill:#708090;"/>
   </g>
   <g id="patch_14">
    <path clip-path="url(#p48e6a4ff0a)" d="M 152.653772 441 
L 155.621231 441 
L 155.621231 439.642697 
L 152.653772 439.642697 
z
" style="fill:#708090;"/>
   </g>
   <g id="patch_15">
    <path clip-path="url(#p48e6a4ff0a)" d="M 155.621231 441 
L 158.58869 441 
L 158.58869 434.213483 
L 155.621231 434.213483 
z
" style="fill:#708090;"/>
   </g>
   <g id="patch_16">
    <path clip-path="url(#p48e6a4ff0a)" d="M 158.58869 441 
L 161.556149 441 
L 161.556149 438.285393 
L 158.58869 438.285393 
z
" style="fill:#708090;"/>
   </g>
   <g id="patch_17">
    <path clip-path="url(#p48e6a4ff0a)" d="M 161.556149 441 
L 164.523608 441 
L 164.523608 439.642697 
L 161.556149 439.642697 
z
" style="fill:#708090;"/>
   </g>
   <g id="patch_18">
    <path clip-path="url(#p48e6a4ff0a)" d="M 164.523608 441 
L 167.491067 441 
L 167.491067 438.285393 
L 164.523608 438.285393 
z
" style="fill:#708090;"/>
   </g>
   <g id="patch_19">
    <path clip-path="url(#p48e6a4ff0a)" d="M 167.491067 441 
L 170.458526 441 
L 170.458526 431.498876 
L 167.491067 431.498876 
z
" style="fill:#708090;"/>
   </g>
   <g id="patch_20">
    <path clip-path="url(#p48e6a4ff0a)" d="M 170.458526 441 
L 173.425986 441 
L 173.425986 430.141573 
L 170.458526 430.141573 
z
" style="fill:#708090;"/>
   </g>
   <g id="patch_21">
    <path clip-path="url(#p48e6a4ff0a)" d="M 173.425986 441 
L 176.393445 441 
L 176.393445 427.426966 
L 173.425986 427.426966 
z
" style="fill:#708090;"/>
   </g>
   <g id="patch_22">
    <path clip-path="url(#p48e6a4ff0a)" d="M 176.393445 441 
L 179.360904 441 
L 179.360904 430.141573 
L 176.393445 430.141573 
z
" style="fill:#708090;"/>
   </g>
   <g id="patch_23">
    <path clip-path="url(#p48e6a4ff0a)" d="M 179.360904 441 
L 182.328363 441 
L 182.328363 423.355056 
L 179.360904 423.355056 
z
" style="fill:#708090;"/>
   </g>
   <g id="patch_24">
    <path clip-path="url(#p48e6a4ff0a)" d="M 182.328363 441 
L 185.295822 441 
L 185.295822 419.283146 
L 182.328363 419.283146 
z
" style="fill:#708090;"/>
   </g>
   <g id="patch_25">
    <path clip-path="url(#p48e6a4ff0a)" d="M 185.295822 441 
L 188.263281 441 
L 188.263281 408.424719 
L 185.295822 408.424719 
z
" style="fill:#708090;"/>
   </g>
   <g id="patch_26">
    <path clip-path="url(#p48e6a4ff0a)" d="M 188.263281 441 
L 191.23074 441 
L 191.23074 407.067416 
L 188.263281 407.067416 
z
" style="fill:#708090;"/>
   </g>
   <g id="patch_27">
    <path clip-path="url(#p48e6a4ff0a)" d="M 191.23074 441 
L 194.198199 441 
L 194.198199 402.995506 
L 191.23074 402.995506 
z
" style="fill:#708090;"/>
   </g>
   <g id="patch_28">
    <path clip-path="url(#p48e6a4ff0a)" d="M 194.198199 441 
L 197.165658 441 
L 197.165658 381.278652 
L 194.198199 381.278652 
z
" style="fill:#708090;"/>
   </g>
   <g id="patch_29">
    <path clip-path="url(#p48e6a4ff0a)" d="M 197.165658 441 
L 200.133117 441 
L 200.133117 373.134831 
L 197.165658 373.134831 
z
" style="fill:#708090;"/>
   </g>
   <g id="patch_30">
    <path clip-path="url(#p48e6a4ff0a)" d="M 200.133117 441 
L 203.100576 441 
L 203.100576 382.635955 
L 200.133117 382.635955 
z
" style="fill:#708090;"/>
   </g>
   <g id="patch_31">
    <path clip-path="url(#p48e6a4ff0a)" d="M 203.100576 441 
L 206.068035 441 
L 206.068035 369.062921 
L 203.100576 369.062921 
z
" style="fill:#708090;"/>
   </g>
   <g id="patch_32">
    <path clip-path="url(#p48e6a4ff0a)" d="M 206.068035 441 
L 209.035494 441 
L 209.035494 356.847191 
L 206.068035 356.847191 
z
" style="fill:#708090;"/>
   </g>
   <g id="patch_33">
    <path clip-path="url(#p48e6a4ff0a)" d="M 209.035494 441 
L 212.002954 441 
L 212.002954 324.27191 
L 209.035494 324.27191 
z
" style="fill:#708090;"/>
   </g>
   <g id="patch_34">
    <path clip-path="url(#p48e6a4ff0a)" d="M 212.002954 441 
L 214.970413 441 
L 214.970413 314.770787 
L 212.002954 314.770787 
z
" style="fill:#708090;"/>
   </g>
   <g id="patch_35">
    <path clip-path="url(#p48e6a4ff0a)" d="M 214.970413 441 
L 217.937872 441 
L 217.937872 305.269663 
L 214.970413 305.269663 
z
" style="fill:#708090;"/>
   </g>
   <g id="patch_36">
    <path clip-path="url(#p48e6a4ff0a)" d="M 217.937872 441 
L 220.905331 441 
L 220.905331 280.838202 
L 217.937872 280.838202 
z
" style="fill:#708090;"/>
   </g>
   <g id="patch_37">
    <path clip-path="url(#p48e6a4ff0a)" d="M 220.905331 441 
L 223.87279 441 
L 223.87279 271.337079 
L 220.905331 271.337079 
z
" style="fill:#708090;"/>
   </g>
   <g id="patch_38">
    <path clip-path="url(#p48e6a4ff0a)" d="M 223.87279 441 
L 226.840249 441 
L 226.840249 223.831461 
L 223.87279 223.831461 
z
" style="fill:#708090;"/>
   </g>
   <g id="patch_39">
    <path clip-path="url(#p48e6a4ff0a)" d="M 226.840249 441 
L 229.807708 441 
L 229.807708 231.975281 
L 226.840249 231.975281 
z
" style="fill:#708090;"/>
   </g>
   <g id="patch_40">
    <path clip-path="url(#p48e6a4ff0a)" d="M 229.807708 441 
L 232.775167 441 
L 232.775167 177.683146 
L 229.807708 177.683146 
z
" style="fill:#708090;"/>
   </g>
   <g id="patch_41">
    <path clip-path="url(#p48e6a4ff0a)" d="M 232.775167 441 
L 235.742626 441 
L 235.742626 183.11236 
L 232.775167 183.11236 
z
" style="fill:#708090;"/>
   </g>
   <g id="patch_42">
    <path clip-path="url(#p48e6a4ff0a)" d="M 235.742626 441 
L 238.710085 441 
L 238.710085 162.752809 
L 235.742626 162.752809 
z
" style="fill:#708090;"/>
   </g>
   <g id="patch_43">
    <path clip-path="url(#p48e6a4ff0a)" d="M 238.710085 441 
L 241.677544 441 
L 241.677544 145.107865 
L 238.710085 145.107865 
z
" style="fill:#708090;"/>
   </g>
   <g id="patch_44">
    <path clip-path="url(#p48e6a4ff0a)" d="M 241.677544 441 
L 244.645003 441 
L 244.645003 124.748315 
L 241.677544 124.748315 
z
" style="fill:#708090;"/>
   </g>
   <g id="patch_45">
    <path clip-path="url(#p48e6a4ff0a)" d="M 244.645003 441 
L 247.612463 441 
L 247.612463 168.182022 
L 244.645003 168.182022 
z
" style="fill:#708090;"/>
   </g>
   <g id="patch_46">
    <path clip-path="url(#p48e6a4ff0a)" d="M 247.612463 441 
L 250.579922 441 
L 250.579922 113.889888 
L 247.612463 113.889888 
z
" style="fill:#708090;"/>
   </g>
   <g id="patch_47">
    <path clip-path="url(#p48e6a4ff0a)" d="M 250.579922 441 
L 253.547381 441 
L 253.547381 85.386517 
L 250.579922 85.386517 
z
" style="fill:#708090;"/>
   </g>
   <g id="patch_48">
    <path clip-path="url(#p48e6a4ff0a)" d="M 253.547381 441 
L 256.51484 441 
L 256.51484 100.316854 
L 253.547381 100.316854 
z
" style="fill:#708090;"/>
   </g>
   <g id="patch_49">
    <path clip-path="url(#p48e6a4ff0a)" d="M 256.51484 441 
L 259.482299 441 
L 259.482299 108.460674 
L 256.51484 108.460674 
z
" style="fill:#708090;"/>
   </g>
   <g id="patch_50">
    <path clip-path="url(#p48e6a4ff0a)" d="M 259.482299 441 
L 262.449758 441 
L 262.449758 78.6 
L 259.482299 78.6 
z
" style="fill:#708090;"/>
   </g>
   <g id="patch_51">
    <path clip-path="url(#p48e6a4ff0a)" d="M 262.449758 441 
L 265.417217 441 
L 265.417217 138.321348 
L 262.449758 138.321348 
z
" style="fill:#708090;"/>
   </g>
   <g id="patch_52">
    <path clip-path="url(#p48e6a4ff0a)" d="M 265.417217 441 
L 268.384676 441 
L 268.384676 92.173034 
L 265.417217 92.173034 
z
" style="fill:#708090;"/>
   </g>
   <g id="patch_53">
    <path clip-path="url(#p48e6a4ff0a)" d="M 268.384676 441 
L 271.352135 441 
L 271.352135 136.964045 
L 268.384676 136.964045 
z
" style="fill:#708090;"/>
   </g>
   <g id="patch_54">
    <path clip-path="url(#p48e6a4ff0a)" d="M 271.352135 441 
L 274.319594 441 
L 274.319594 139.678652 
L 271.352135 139.678652 
z
" style="fill:#708090;"/>
   </g>
   <g id="patch_55">
    <path clip-path="url(#p48e6a4ff0a)" d="M 274.319594 441 
L 277.287053 441 
L 277.287053 142.393258 
L 274.319594 142.393258 
z
" style="fill:#708090;"/>
   </g>
   <g id="patch_56">
    <path clip-path="url(#p48e6a4ff0a)" d="M 277.287053 441 
L 280.254512 441 
L 280.254512 158.680899 
L 277.287053 158.680899 
z
" style="fill:#708090;"/>
   </g>
   <g id="patch_57">
    <path clip-path="url(#p48e6a4ff0a)" d="M 280.254512 441 
L 283.221972 441 
L 283.221972 177.683146 
L 280.254512 177.683146 
z
" style="fill:#708090;"/>
   </g>
   <g id="patch_58">
    <path clip-path="url(#p48e6a4ff0a)" d="M 283.221972 441 
L 286.189431 441 
L 286.189431 200.757303 
L 283.221972 200.757303 
z
" style="fill:#708090;"/>
   </g>
   <g id="patch_59">
    <path clip-path="url(#p48e6a4ff0a)" d="M 286.189431 441 
L 289.15689 441 
L 289.15689 206.186517 
L 286.189431 206.186517 
z
" style="fill:#708090;"/>
   </g>
   <g id="patch_60">
    <path clip-path="url(#p48e6a4ff0a)" d="M 289.15689 441 
L 292.124349 441 
L 292.124349 195.32809 
L 289.15689 195.32809 
z
" style="fill:#708090;"/>
   </g>
   <g id="patch_61">
    <path clip-path="url(#p48e6a4ff0a)" d="M 292.124349 441 
L 295.091808 441 
L 295.091808 234.689888 
L 292.124349 234.689888 
z
" style="fill:#708090;"/>
   </g>
   <g id="patch_62">
    <path clip-path="url(#p48e6a4ff0a)" d="M 295.091808 441 
L 298.059267 441 
L 298.059267 263.193258 
L 295.091808 263.193258 
z
" style="fill:#708090;"/>
   </g>
   <g id="patch_63">
    <path clip-path="url(#p48e6a4ff0a)" d="M 298.059267 441 
L 301.026726 441 
L 301.026726 252.334831 
L 298.059267 252.334831 
z
" style="fill:#708090;"/>
   </g>
   <g id="patch_64">
    <path clip-path="url(#p48e6a4ff0a)" d="M 301.026726 441 
L 303.994185 441 
L 303.994185 288.982022 
L 301.026726 288.982022 
z
" style="fill:#708090;"/>
   </g>
   <g id="patch_65">
    <path clip-path="url(#p48e6a4ff0a)" d="M 303.994185 441 
L 306.961644 441 
L 306.961644 274.051685 
L 303.994185 274.051685 
z
" style="fill:#708090;"/>
   </g>
   <g id="patch_66">
    <path clip-path="url(#p48e6a4ff0a)" d="M 306.961644 441 
L 309.929103 441 
L 309.929103 333.773034 
L 306.961644 333.773034 
z
" style="fill:#708090;"/>
   </g>
   <g id="patch_67">
    <path clip-path="url(#p48e6a4ff0a)" d="M 309.929103 441 
L 312.896562 441 
L 312.896562 341.916854 
L 309.929103 341.916854 
z
" style="fill:#708090;"/>
   </g>
   <g id="patch_68">
    <path clip-path="url(#p48e6a4ff0a)" d="M 312.896562 441 
L 315.864021 441 
L 315.864021 332.41573 
L 312.896562 332.41573 
z
" style="fill:#708090;"/>
   </g>
   <g id="patch_69">
    <path clip-path="url(#p48e6a4ff0a)" d="M 315.864021 441 
L 318.83148 441 
L 318.83148 358.204494 
L 315.864021 358.204494 
z
" style="fill:#708090;"/>
   </g>
   <g id="patch_70">
    <path clip-path="url(#p48e6a4ff0a)" d="M 318.83148 441 
L 321.79894 441 
L 321.79894 356.847191 
L 318.83148 356.847191 
z
" style="fill:#708090;"/>
   </g>
   <g id="patch_71">
    <path clip-path="url(#p48e6a4ff0a)" d="M 321.79894 441 
L 324.766399 441 
L 324.766399 363.633708 
L 321.79894 363.633708 
z
" style="fill:#708090;"/>
   </g>
   <g id="patch_72">
    <path clip-path="url(#p48e6a4ff0a)" d="M 324.766399 441 
L 327.733858 441 
L 327.733858 378.564045 
L 324.766399 378.564045 
z
" style="fill:#708090;"/>
   </g>
   <g id="patch_73">
    <path clip-path="url(#p48e6a4ff0a)" d="M 327.733858 441 
L 330.701317 441 
L 330.701317 388.065169 
L 327.733858 388.065169 
z
" style="fill:#708090;"/>
   </g>
   <g id="patch_74">
    <path clip-path="url(#p48e6a4ff0a)" d="M 330.701317 441 
L 333.668776 441 
L 333.668776 394.851685 
L 330.701317 394.851685 
z
" style="fill:#708090;"/>
   </g>
   <g id="patch_75">
    <path clip-path="url(#p48e6a4ff0a)" d="M 333.668776 441 
L 336.636235 441 
L 336.636235 402.995506 
L 333.668776 402.995506 
z
" style="fill:#708090;"/>
   </g>
   <g id="patch_76">
    <path clip-path="url(#p48e6a4ff0a)" d="M 336.636235 441 
L 339.603694 441 
L 339.603694 402.995506 
L 336.636235 402.995506 
z
" style="fill:#708090;"/>
   </g>
   <g id="patch_77">
    <path clip-path="url(#p48e6a4ff0a)" d="M 339.603694 441 
L 342.571153 441 
L 342.571153 409.782022 
L 339.603694 409.782022 
z
" style="fill:#708090;"/>
   </g>
   <g id="patch_78">
    <path clip-path="url(#p48e6a4ff0a)" d="M 342.571153 441 
L 345.538612 441 
L 345.538612 398.923596 
L 342.571153 398.923596 
z
" style="fill:#708090;"/>
   </g>
   <g id="patch_79">
    <path clip-path="url(#p48e6a4ff0a)" d="M 345.538612 441 
L 348.506071 441 
L 348.506071 413.853933 
L 345.538612 413.853933 
z
" style="fill:#708090;"/>
   </g>
   <g id="patch_80">
    <path clip-path="url(#p48e6a4ff0a)" d="M 348.506071 441 
L 351.47353 441 
L 351.47353 408.424719 
L 348.506071 408.424719 
z
" style="fill:#708090;"/>
   </g>
   <g id="patch_81">
    <path clip-path="url(#p48e6a4ff0a)" d="M 351.47353 441 
L 354.440989 441 
L 354.440989 417.925843 
L 351.47353 417.925843 
z
" style="fill:#708090;"/>
   </g>
   <g id="patch_82">
    <path clip-path="url(#p48e6a4ff0a)" d="M 354.440989 441 
L 357.408449 441 
L 357.408449 424.71236 
L 354.440989 424.71236 
z
" style="fill:#708090;"/>
   </g>
   <g id="patch_83">
    <path clip-path="url(#p48e6a4ff0a)" d="M 357.408449 441 
L 360.375908 441 
L 360.375908 417.925843 
L 357.408449 417.925843 
z
" style="fill:#708090;"/>
   </g>
   <g id="patch_84">
    <path clip-path="url(#p48e6a4ff0a)" d="M 360.375908 441 
L 363.343367 441 
L 363.343367 423.355056 
L 360.375908 423.355056 
z
" style="fill:#708090;"/>
   </g>
   <g id="patch_85">
    <path clip-path="url(#p48e6a4ff0a)" d="M 363.343367 441 
L 366.310826 441 
L 366.310826 423.355056 
L 363.343367 423.355056 
z
" style="fill:#708090;"/>
   </g>
   <g id="patch_86">
    <path clip-path="url(#p48e6a4ff0a)" d="M 366.310826 441 
L 369.278285 441 
L 369.278285 427.426966 
L 366.310826 427.426966 
z
" style="fill:#708090;"/>
   </g>
   <g id="patch_87">
    <path clip-path="url(#p48e6a4ff0a)" d="M 369.278285 441 
L 372.245744 441 
L 372.245744 435.570787 
L 369.278285 435.570787 
z
" style="fill:#708090;"/>
   </g>
   <g id="patch_88">
    <path clip-path="url(#p48e6a4ff0a)" d="M 372.245744 441 
L 375.213203 441 
L 375.213203 434.213483 
L 372.245744 434.213483 
z
" style="fill:#708090;"/>
   </g>
   <g id="patch_89">
    <path clip-path="url(#p48e6a4ff0a)" d="M 375.213203 441 
L 378.180662 441 
L 378.180662 431.498876 
L 375.213203 431.498876 
z
" style="fill:#708090;"/>
   </g>
   <g id="patch_90">
    <path clip-path="url(#p48e6a4ff0a)" d="M 378.180662 441 
L 381.148121 441 
L 381.148121 435.570787 
L 378.180662 435.570787 
z
" style="fill:#708090;"/>
   </g>
   <g id="patch_91">
    <path clip-path="url(#p48e6a4ff0a)" d="M 381.148121 441 
L 384.11558 441 
L 384.11558 435.570787 
L 381.148121 435.570787 
z
" style="fill:#708090;"/>
   </g>
   <g id="patch_92">
    <path clip-path="url(#p48e6a4ff0a)" d="M 384.11558 441 
L 387.083039 441 
L 387.083039 438.285393 
L 384.11558 438.285393 
z
" style="fill:#708090;"/>
   </g>
   <g id="patch_93">
    <path clip-path="url(#p48e6a4ff0a)" d="M 387.083039 441 
L 390.050498 441 
L 390.050498 436.92809 
L 387.083039 436.92809 
z
" style="fill:#708090;"/>
   </g>
   <g id="patch_94">
    <path clip-path="url(#p48e6a4ff0a)" d="M 390.050498 441 
L 393.017958 441 
L 393.017958 436.92809 
L 390.050498 436.92809 
z
" style="fill:#708090;"/>
   </g>
   <g id="patch_95">
    <path clip-path="url(#p48e6a4ff0a)" d="M 393.017958 441 
L 395.985417 441 
L 395.985417 439.642697 
L 393.017958 439.642697 
z
" style="fill:#708090;"/>
   </g>
   <g id="patch_96">
    <path clip-path="url(#p48e6a4ff0a)" d="M 395.985417 441 
L 398.952876 441 
L 398.952876 439.642697 
L 395.985417 439.642697 
z
" style="fill:#708090;"/>
   </g>
   <g id="patch_97">
    <path clip-path="url(#p48e6a4ff0a)" d="M 398.952876 441 
L 401.920335 441 
L 401.920335 439.642697 
L 398.952876 439.642697 
z
" style="fill:#708090;"/>
   </g>
   <g id="patch_98">
    <path clip-path="url(#p48e6a4ff0a)" d="M 401.920335 441 
L 404.887794 441 
L 404.887794 439.642697 
L 401.920335 439.642697 
z
" style="fill:#708090;"/>
   </g>
   <g id="patch_99">
    <path clip-path="url(#p48e6a4ff0a)" d="M 404.887794 441 
L 407.855253 441 
L 407.855253 441 
L 404.887794 441 
z
" style="fill:#708090;"/>
   </g>
   <g id="patch_100">
    <path clip-path="url(#p48e6a4ff0a)" d="M 407.855253 441 
L 410.822712 441 
L 410.822712 441 
L 407.855253 441 
z
" style="fill:#708090;"/>
   </g>
   <g id="patch_101">
    <path clip-path="url(#p48e6a4ff0a)" d="M 410.822712 441 
L 413.790171 441 
L 413.790171 439.642697 
L 410.822712 439.642697 
z
" style="fill:#708090;"/>
   </g>
   <g id="patch_102">
    <path clip-path="url(#p48e6a4ff0a)" d="M 413.790171 441 
L 416.75763 441 
L 416.75763 439.642697 
L 413.790171 439.642697 
z
" style="fill:#708090;"/>
   </g>
   <g id="matplotlib.axis_1">
    <g id="xtick_1">
     <g id="line2d_1">
      <defs>
       <path d="M 0 0 
L 0 3.5 
" id="me47f7e39b6" style="stroke:#000000;stroke-width:0.8;"/>
      </defs>
      <g>
       <use style="stroke:#000000;stroke-width:0.8;" x="80.754545" xlink:href="#me47f7e39b6" y="441"/>
      </g>
     </g>
     <g id="text_1">
      <!-- −2 -->
      <defs>
       <path d="M 10.59375 35.5 
L 73.1875 35.5 
L 73.1875 27.203125 
L 10.59375 27.203125 
z
" id="DejaVuSans-2212"/>
       <path d="M 19.1875 8.296875 
L 53.609375 8.296875 
L 53.609375 0 
L 7.328125 0 
L 7.328125 8.296875 
Q 12.9375 14.109375 22.625 23.890625 
Q 32.328125 33.6875 34.8125 36.53125 
Q 39.546875 41.84375 41.421875 45.53125 
Q 43.3125 49.21875 43.3125 52.78125 
Q 43.3125 58.59375 39.234375 62.25 
Q 35.15625 65.921875 28.609375 65.921875 
Q 23.96875 65.921875 18.8125 64.3125 
Q 13.671875 62.703125 7.8125 59.421875 
L 7.8125 69.390625 
Q 13.765625 71.78125 18.9375 73 
Q 24.125 74.21875 28.421875 74.21875 
Q 39.75 74.21875 46.484375 68.546875 
Q 53.21875 62.890625 53.21875 53.421875 
Q 53.21875 48.921875 51.53125 44.890625 
Q 49.859375 40.875 45.40625 35.40625 
Q 44.1875 33.984375 37.640625 27.21875 
Q 31.109375 20.453125 19.1875 8.296875 
z
" id="DejaVuSans-32"/>
      </defs>
      <g transform="translate(66.012358 463.196875)scale(0.2 -0.2)">
       <use xlink:href="#DejaVuSans-2212"/>
       <use x="83.789062" xlink:href="#DejaVuSans-32"/>
      </g>
     </g>
    </g>
    <g id="xtick_2">
     <g id="line2d_2">
      <g>
       <use style="stroke:#000000;stroke-width:0.8;" x="145.316529" xlink:href="#me47f7e39b6" y="441"/>
      </g>
     </g>
     <g id="text_2">
      <!-- 0 -->
      <defs>
       <path d="M 31.78125 66.40625 
Q 24.171875 66.40625 20.328125 58.90625 
Q 16.5 51.421875 16.5 36.375 
Q 16.5 21.390625 20.328125 13.890625 
Q 24.171875 6.390625 31.78125 6.390625 
Q 39.453125 6.390625 43.28125 13.890625 
Q 47.125 21.390625 47.125 36.375 
Q 47.125 51.421875 43.28125 58.90625 
Q 39.453125 66.40625 31.78125 66.40625 
z
M 31.78125 74.21875 
Q 44.046875 74.21875 50.515625 64.515625 
Q 56.984375 54.828125 56.984375 36.375 
Q 56.984375 17.96875 50.515625 8.265625 
Q 44.046875 -1.421875 31.78125 -1.421875 
Q 19.53125 -1.421875 13.0625 8.265625 
Q 6.59375 17.96875 6.59375 36.375 
Q 6.59375 54.828125 13.0625 64.515625 
Q 19.53125 74.21875 31.78125 74.21875 
z
" id="DejaVuSans-30"/>
      </defs>
      <g transform="translate(138.954029 463.196875)scale(0.2 -0.2)">
       <use xlink:href="#DejaVuSans-30"/>
      </g>
     </g>
    </g>
    <g id="xtick_3">
     <g id="line2d_3">
      <g>
       <use style="stroke:#000000;stroke-width:0.8;" x="209.878512" xlink:href="#me47f7e39b6" y="441"/>
      </g>
     </g>
     <g id="text_3">
      <!-- 2 -->
      <g transform="translate(203.516012 463.196875)scale(0.2 -0.2)">
       <use xlink:href="#DejaVuSans-32"/>
      </g>
     </g>
    </g>
    <g id="xtick_4">
     <g id="line2d_4">
      <g>
       <use style="stroke:#000000;stroke-width:0.8;" x="274.440496" xlink:href="#me47f7e39b6" y="441"/>
      </g>
     </g>
     <g id="text_4">
      <!-- 4 -->
      <defs>
       <path d="M 37.796875 64.3125 
L 12.890625 25.390625 
L 37.796875 25.390625 
z
M 35.203125 72.90625 
L 47.609375 72.90625 
L 47.609375 25.390625 
L 58.015625 25.390625 
L 58.015625 17.1875 
L 47.609375 17.1875 
L 47.609375 0 
L 37.796875 0 
L 37.796875 17.1875 
L 4.890625 17.1875 
L 4.890625 26.703125 
z
" id="DejaVuSans-34"/>
      </defs>
      <g transform="translate(268.077996 463.196875)scale(0.2 -0.2)">
       <use xlink:href="#DejaVuSans-34"/>
      </g>
     </g>
    </g>
    <g id="xtick_5">
     <g id="line2d_5">
      <g>
       <use style="stroke:#000000;stroke-width:0.8;" x="339.002479" xlink:href="#me47f7e39b6" y="441"/>
      </g>
     </g>
     <g id="text_5">
      <!-- 6 -->
      <defs>
       <path d="M 33.015625 40.375 
Q 26.375 40.375 22.484375 35.828125 
Q 18.609375 31.296875 18.609375 23.390625 
Q 18.609375 15.53125 22.484375 10.953125 
Q 26.375 6.390625 33.015625 6.390625 
Q 39.65625 6.390625 43.53125 10.953125 
Q 47.40625 15.53125 47.40625 23.390625 
Q 47.40625 31.296875 43.53125 35.828125 
Q 39.65625 40.375 33.015625 40.375 
z
M 52.59375 71.296875 
L 52.59375 62.3125 
Q 48.875 64.0625 45.09375 64.984375 
Q 41.3125 65.921875 37.59375 65.921875 
Q 27.828125 65.921875 22.671875 59.328125 
Q 17.53125 52.734375 16.796875 39.40625 
Q 19.671875 43.65625 24.015625 45.921875 
Q 28.375 48.1875 33.59375 48.1875 
Q 44.578125 48.1875 50.953125 41.515625 
Q 57.328125 34.859375 57.328125 23.390625 
Q 57.328125 12.15625 50.6875 5.359375 
Q 44.046875 -1.421875 33.015625 -1.421875 
Q 20.359375 -1.421875 13.671875 8.265625 
Q 6.984375 17.96875 6.984375 36.375 
Q 6.984375 53.65625 15.1875 63.9375 
Q 23.390625 74.21875 37.203125 74.21875 
Q 40.921875 74.21875 44.703125 73.484375 
Q 48.484375 72.75 52.59375 71.296875 
z
" id="DejaVuSans-36"/>
      </defs>
      <g transform="translate(332.639979 463.196875)scale(0.2 -0.2)">
       <use xlink:href="#DejaVuSans-36"/>
      </g>
     </g>
    </g>
    <g id="xtick_6">
     <g id="line2d_6">
      <g>
       <use style="stroke:#000000;stroke-width:0.8;" x="403.564463" xlink:href="#me47f7e39b6" y="441"/>
      </g>
     </g>
     <g id="text_6">
      <!-- 8 -->
      <defs>
       <path d="M 31.78125 34.625 
Q 24.75 34.625 20.71875 30.859375 
Q 16.703125 27.09375 16.703125 20.515625 
Q 16.703125 13.921875 20.71875 10.15625 
Q 24.75 6.390625 31.78125 6.390625 
Q 38.8125 6.390625 42.859375 10.171875 
Q 46.921875 13.96875 46.921875 20.515625 
Q 46.921875 27.09375 42.890625 30.859375 
Q 38.875 34.625 31.78125 34.625 
z
M 21.921875 38.8125 
Q 15.578125 40.375 12.03125 44.71875 
Q 8.5 49.078125 8.5 55.328125 
Q 8.5 64.0625 14.71875 69.140625 
Q 20.953125 74.21875 31.78125 74.21875 
Q 42.671875 74.21875 48.875 69.140625 
Q 55.078125 64.0625 55.078125 55.328125 
Q 55.078125 49.078125 51.53125 44.71875 
Q 48 40.375 41.703125 38.8125 
Q 48.828125 37.15625 52.796875 32.3125 
Q 56.78125 27.484375 56.78125 20.515625 
Q 56.78125 9.90625 50.3125 4.234375 
Q 43.84375 -1.421875 31.78125 -1.421875 
Q 19.734375 -1.421875 13.25 4.234375 
Q 6.78125 9.90625 6.78125 20.515625 
Q 6.78125 27.484375 10.78125 32.3125 
Q 14.796875 37.15625 21.921875 38.8125 
z
M 18.3125 54.390625 
Q 18.3125 48.734375 21.84375 45.5625 
Q 25.390625 42.390625 31.78125 42.390625 
Q 38.140625 42.390625 41.71875 45.5625 
Q 45.3125 48.734375 45.3125 54.390625 
Q 45.3125 60.0625 41.71875 63.234375 
Q 38.140625 66.40625 31.78125 66.40625 
Q 25.390625 66.40625 21.84375 63.234375 
Q 18.3125 60.0625 18.3125 54.390625 
z
" id="DejaVuSans-38"/>
      </defs>
      <g transform="translate(397.201963 463.196875)scale(0.2 -0.2)">
       <use xlink:href="#DejaVuSans-38"/>
      </g>
     </g>
    </g>
    <g id="text_7">
     <!-- ln([transcripts]/[cell h]) -->
     <defs>
      <path d="M 9.421875 75.984375 
L 18.40625 75.984375 
L 18.40625 0 
L 9.421875 0 
z
" id="DejaVuSans-6c"/>
      <path d="M 54.890625 33.015625 
L 54.890625 0 
L 45.90625 0 
L 45.90625 32.71875 
Q 45.90625 40.484375 42.875 44.328125 
Q 39.84375 48.1875 33.796875 48.1875 
Q 26.515625 48.1875 22.3125 43.546875 
Q 18.109375 38.921875 18.109375 30.90625 
L 18.109375 0 
L 9.078125 0 
L 9.078125 54.6875 
L 18.109375 54.6875 
L 18.109375 46.1875 
Q 21.34375 51.125 25.703125 53.5625 
Q 30.078125 56 35.796875 56 
Q 45.21875 56 50.046875 50.171875 
Q 54.890625 44.34375 54.890625 33.015625 
z
" id="DejaVuSans-6e"/>
      <path d="M 31 75.875 
Q 24.46875 64.65625 21.28125 53.65625 
Q 18.109375 42.671875 18.109375 31.390625 
Q 18.109375 20.125 21.3125 9.0625 
Q 24.515625 -2 31 -13.1875 
L 23.1875 -13.1875 
Q 15.875 -1.703125 12.234375 9.375 
Q 8.59375 20.453125 8.59375 31.390625 
Q 8.59375 42.28125 12.203125 53.3125 
Q 15.828125 64.359375 23.1875 75.875 
z
" id="DejaVuSans-28"/>
      <path d="M 8.59375 75.984375 
L 29.296875 75.984375 
L 29.296875 69 
L 17.578125 69 
L 17.578125 -6.203125 
L 29.296875 -6.203125 
L 29.296875 -13.1875 
L 8.59375 -13.1875 
z
" id="DejaVuSans-5b"/>
      <path d="M 18.3125 70.21875 
L 18.3125 54.6875 
L 36.8125 54.6875 
L 36.8125 47.703125 
L 18.3125 47.703125 
L 18.3125 18.015625 
Q 18.3125 11.328125 20.140625 9.421875 
Q 21.96875 7.515625 27.59375 7.515625 
L 36.8125 7.515625 
L 36.8125 0 
L 27.59375 0 
Q 17.1875 0 13.234375 3.875 
Q 9.28125 7.765625 9.28125 18.015625 
L 9.28125 47.703125 
L 2.6875 47.703125 
L 2.6875 54.6875 
L 9.28125 54.6875 
L 9.28125 70.21875 
z
" id="DejaVuSans-74"/>
      <path d="M 41.109375 46.296875 
Q 39.59375 47.171875 37.8125 47.578125 
Q 36.03125 48 33.890625 48 
Q 26.265625 48 22.1875 43.046875 
Q 18.109375 38.09375 18.109375 28.8125 
L 18.109375 0 
L 9.078125 0 
L 9.078125 54.6875 
L 18.109375 54.6875 
L 18.109375 46.1875 
Q 20.953125 51.171875 25.484375 53.578125 
Q 30.03125 56 36.53125 56 
Q 37.453125 56 38.578125 55.875 
Q 39.703125 55.765625 41.0625 55.515625 
z
" id="DejaVuSans-72"/>
      <path d="M 34.28125 27.484375 
Q 23.390625 27.484375 19.1875 25 
Q 14.984375 22.515625 14.984375 16.5 
Q 14.984375 11.71875 18.140625 8.90625 
Q 21.296875 6.109375 26.703125 6.109375 
Q 34.1875 6.109375 38.703125 11.40625 
Q 43.21875 16.703125 43.21875 25.484375 
L 43.21875 27.484375 
z
M 52.203125 31.203125 
L 52.203125 0 
L 43.21875 0 
L 43.21875 8.296875 
Q 40.140625 3.328125 35.546875 0.953125 
Q 30.953125 -1.421875 24.3125 -1.421875 
Q 15.921875 -1.421875 10.953125 3.296875 
Q 6 8.015625 6 15.921875 
Q 6 25.140625 12.171875 29.828125 
Q 18.359375 34.515625 30.609375 34.515625 
L 43.21875 34.515625 
L 43.21875 35.40625 
Q 43.21875 41.609375 39.140625 45 
Q 35.0625 48.390625 27.6875 48.390625 
Q 23 48.390625 18.546875 47.265625 
Q 14.109375 46.140625 10.015625 43.890625 
L 10.015625 52.203125 
Q 14.9375 54.109375 19.578125 55.046875 
Q 24.21875 56 28.609375 56 
Q 40.484375 56 46.34375 49.84375 
Q 52.203125 43.703125 52.203125 31.203125 
z
" id="DejaVuSans-61"/>
      <path d="M 44.28125 53.078125 
L 44.28125 44.578125 
Q 40.484375 46.53125 36.375 47.5 
Q 32.28125 48.484375 27.875 48.484375 
Q 21.1875 48.484375 17.84375 46.4375 
Q 14.5 44.390625 14.5 40.28125 
Q 14.5 37.15625 16.890625 35.375 
Q 19.28125 33.59375 26.515625 31.984375 
L 29.59375 31.296875 
Q 39.15625 29.25 43.1875 25.515625 
Q 47.21875 21.78125 47.21875 15.09375 
Q 47.21875 7.46875 41.1875 3.015625 
Q 35.15625 -1.421875 24.609375 -1.421875 
Q 20.21875 -1.421875 15.453125 -0.5625 
Q 10.6875 0.296875 5.421875 2 
L 5.421875 11.28125 
Q 10.40625 8.6875 15.234375 7.390625 
Q 20.0625 6.109375 24.8125 6.109375 
Q 31.15625 6.109375 34.5625 8.28125 
Q 37.984375 10.453125 37.984375 14.40625 
Q 37.984375 18.0625 35.515625 20.015625 
Q 33.0625 21.96875 24.703125 23.78125 
L 21.578125 24.515625 
Q 13.234375 26.265625 9.515625 29.90625 
Q 5.8125 33.546875 5.8125 39.890625 
Q 5.8125 47.609375 11.28125 51.796875 
Q 16.75 56 26.8125 56 
Q 31.78125 56 36.171875 55.265625 
Q 40.578125 54.546875 44.28125 53.078125 
z
" id="DejaVuSans-73"/>
      <path d="M 48.78125 52.59375 
L 48.78125 44.1875 
Q 44.96875 46.296875 41.140625 47.34375 
Q 37.3125 48.390625 33.40625 48.390625 
Q 24.65625 48.390625 19.8125 42.84375 
Q 14.984375 37.3125 14.984375 27.296875 
Q 14.984375 17.28125 19.8125 11.734375 
Q 24.65625 6.203125 33.40625 6.203125 
Q 37.3125 6.203125 41.140625 7.25 
Q 44.96875 8.296875 48.78125 10.40625 
L 48.78125 2.09375 
Q 45.015625 0.34375 40.984375 -0.53125 
Q 36.96875 -1.421875 32.421875 -1.421875 
Q 20.0625 -1.421875 12.78125 6.34375 
Q 5.515625 14.109375 5.515625 27.296875 
Q 5.515625 40.671875 12.859375 48.328125 
Q 20.21875 56 33.015625 56 
Q 37.15625 56 41.109375 55.140625 
Q 45.0625 54.296875 48.78125 52.59375 
z
" id="DejaVuSans-63"/>
      <path d="M 9.421875 54.6875 
L 18.40625 54.6875 
L 18.40625 0 
L 9.421875 0 
z
M 9.421875 75.984375 
L 18.40625 75.984375 
L 18.40625 64.59375 
L 9.421875 64.59375 
z
" id="DejaVuSans-69"/>
      <path d="M 18.109375 8.203125 
L 18.109375 -20.796875 
L 9.078125 -20.796875 
L 9.078125 54.6875 
L 18.109375 54.6875 
L 18.109375 46.390625 
Q 20.953125 51.265625 25.265625 53.625 
Q 29.59375 56 35.59375 56 
Q 45.5625 56 51.78125 48.09375 
Q 58.015625 40.1875 58.015625 27.296875 
Q 58.015625 14.40625 51.78125 6.484375 
Q 45.5625 -1.421875 35.59375 -1.421875 
Q 29.59375 -1.421875 25.265625 0.953125 
Q 20.953125 3.328125 18.109375 8.203125 
z
M 48.6875 27.296875 
Q 48.6875 37.203125 44.609375 42.84375 
Q 40.53125 48.484375 33.40625 48.484375 
Q 26.265625 48.484375 22.1875 42.84375 
Q 18.109375 37.203125 18.109375 27.296875 
Q 18.109375 17.390625 22.1875 11.75 
Q 26.265625 6.109375 33.40625 6.109375 
Q 40.53125 6.109375 44.609375 11.75 
Q 48.6875 17.390625 48.6875 27.296875 
z
" id="DejaVuSans-70"/>
      <path d="M 30.421875 75.984375 
L 30.421875 -13.1875 
L 9.71875 -13.1875 
L 9.71875 -6.203125 
L 21.390625 -6.203125 
L 21.390625 69 
L 9.71875 69 
L 9.71875 75.984375 
z
" id="DejaVuSans-5d"/>
      <path d="M 25.390625 72.90625 
L 33.6875 72.90625 
L 8.296875 -9.28125 
L 0 -9.28125 
z
" id="DejaVuSans-2f"/>
      <path d="M 56.203125 29.59375 
L 56.203125 25.203125 
L 14.890625 25.203125 
Q 15.484375 15.921875 20.484375 11.0625 
Q 25.484375 6.203125 34.421875 6.203125 
Q 39.59375 6.203125 44.453125 7.46875 
Q 49.3125 8.734375 54.109375 11.28125 
L 54.109375 2.78125 
Q 49.265625 0.734375 44.1875 -0.34375 
Q 39.109375 -1.421875 33.890625 -1.421875 
Q 20.796875 -1.421875 13.15625 6.1875 
Q 5.515625 13.8125 5.515625 26.8125 
Q 5.515625 40.234375 12.765625 48.109375 
Q 20.015625 56 32.328125 56 
Q 43.359375 56 49.78125 48.890625 
Q 56.203125 41.796875 56.203125 29.59375 
z
M 47.21875 32.234375 
Q 47.125 39.59375 43.09375 43.984375 
Q 39.0625 48.390625 32.421875 48.390625 
Q 24.90625 48.390625 20.390625 44.140625 
Q 15.875 39.890625 15.1875 32.171875 
z
" id="DejaVuSans-65"/>
      <path id="DejaVuSans-20"/>
      <path d="M 54.890625 33.015625 
L 54.890625 0 
L 45.90625 0 
L 45.90625 32.71875 
Q 45.90625 40.484375 42.875 44.328125 
Q 39.84375 48.1875 33.796875 48.1875 
Q 26.515625 48.1875 22.3125 43.546875 
Q 18.109375 38.921875 18.109375 30.90625 
L 18.109375 0 
L 9.078125 0 
L 9.078125 75.984375 
L 18.109375 75.984375 
L 18.109375 46.1875 
Q 21.34375 51.125 25.703125 53.5625 
Q 30.078125 56 35.796875 56 
Q 45.21875 56 50.046875 50.171875 
Q 54.890625 44.34375 54.890625 33.015625 
z
" id="DejaVuSans-68"/>
      <path d="M 8.015625 75.875 
L 15.828125 75.875 
Q 23.140625 64.359375 26.78125 53.3125 
Q 30.421875 42.28125 30.421875 31.390625 
Q 30.421875 20.453125 26.78125 9.375 
Q 23.140625 -1.703125 15.828125 -13.1875 
L 8.015625 -13.1875 
Q 14.5 -2 17.703125 9.0625 
Q 20.90625 20.125 20.90625 31.390625 
Q 20.90625 42.671875 17.703125 53.65625 
Q 14.5 64.65625 8.015625 75.875 
z
" id="DejaVuSans-29"/>
     </defs>
     <g transform="translate(130.492031 488.072812)scale(0.22 -0.22)">
      <use xlink:href="#DejaVuSans-6c"/>
      <use x="27.783203" xlink:href="#DejaVuSans-6e"/>
      <use x="91.162109" xlink:href="#DejaVuSans-28"/>
      <use x="130.175781" xlink:href="#DejaVuSans-5b"/>
      <use x="169.189453" xlink:href="#DejaVuSans-74"/>
      <use x="208.398438" xlink:href="#DejaVuSans-72"/>
      <use x="249.511719" xlink:href="#DejaVuSans-61"/>
      <use x="310.791016" xlink:href="#DejaVuSans-6e"/>
      <use x="374.169922" xlink:href="#DejaVuSans-73"/>
      <use x="426.269531" xlink:href="#DejaVuSans-63"/>
      <use x="481.25" xlink:href="#DejaVuSans-72"/>
      <use x="522.363281" xlink:href="#DejaVuSans-69"/>
      <use x="550.146484" xlink:href="#DejaVuSans-70"/>
      <use x="613.623047" xlink:href="#DejaVuSans-74"/>
      <use x="652.832031" xlink:href="#DejaVuSans-73"/>
      <use x="704.931641" xlink:href="#DejaVuSans-5d"/>
      <use x="743.945312" xlink:href="#DejaVuSans-2f"/>
      <use x="777.636719" xlink:href="#DejaVuSans-5b"/>
      <use x="816.650391" xlink:href="#DejaVuSans-63"/>
      <use x="871.630859" xlink:href="#DejaVuSans-65"/>
      <use x="933.154297" xlink:href="#DejaVuSans-6c"/>
      <use x="960.9375" xlink:href="#DejaVuSans-6c"/>
      <use x="988.720703" xlink:href="#DejaVuSans-20"/>
      <use x="1020.507812" xlink:href="#DejaVuSans-68"/>
      <use x="1083.886719" xlink:href="#DejaVuSans-5d"/>
      <use x="1122.900391" xlink:href="#DejaVuSans-29"/>
     </g>
    </g>
   </g>
   <g id="matplotlib.axis_2">
    <g id="ytick_1">
     <g id="line2d_7">
      <defs>
       <path d="M 0 0 
L -3.5 0 
" id="m1aa6913348" style="stroke:#000000;stroke-width:0.8;"/>
      </defs>
      <g>
       <use style="stroke:#000000;stroke-width:0.8;" x="63" xlink:href="#m1aa6913348" y="441"/>
      </g>
     </g>
     <g id="text_8">
      <!-- 0.00 -->
      <defs>
       <path d="M 10.6875 12.40625 
L 21 12.40625 
L 21 0 
L 10.6875 0 
z
" id="DejaVuSans-2e"/>
      </defs>
      <g transform="translate(11.46875 448.598437)scale(0.2 -0.2)">
       <use xlink:href="#DejaVuSans-30"/>
       <use x="63.623047" xlink:href="#DejaVuSans-2e"/>
       <use x="95.410156" xlink:href="#DejaVuSans-30"/>
       <use x="159.033203" xlink:href="#DejaVuSans-30"/>
      </g>
     </g>
    </g>
    <g id="ytick_2">
     <g id="line2d_8">
      <g>
       <use style="stroke:#000000;stroke-width:0.8;" x="63" xlink:href="#m1aa6913348" y="395.514612"/>
      </g>
     </g>
     <g id="text_9">
      <!-- 0.05 -->
      <defs>
       <path d="M 10.796875 72.90625 
L 49.515625 72.90625 
L 49.515625 64.59375 
L 19.828125 64.59375 
L 19.828125 46.734375 
Q 21.96875 47.46875 24.109375 47.828125 
Q 26.265625 48.1875 28.421875 48.1875 
Q 40.625 48.1875 47.75 41.5 
Q 54.890625 34.8125 54.890625 23.390625 
Q 54.890625 11.625 47.5625 5.09375 
Q 40.234375 -1.421875 26.90625 -1.421875 
Q 22.3125 -1.421875 17.546875 -0.640625 
Q 12.796875 0.140625 7.71875 1.703125 
L 7.71875 11.625 
Q 12.109375 9.234375 16.796875 8.0625 
Q 21.484375 6.890625 26.703125 6.890625 
Q 35.15625 6.890625 40.078125 11.328125 
Q 45.015625 15.765625 45.015625 23.390625 
Q 45.015625 31 40.078125 35.4375 
Q 35.15625 39.890625 26.703125 39.890625 
Q 22.75 39.890625 18.8125 39.015625 
Q 14.890625 38.140625 10.796875 36.28125 
z
" id="DejaVuSans-35"/>
      </defs>
      <g transform="translate(11.46875 403.11305)scale(0.2 -0.2)">
       <use xlink:href="#DejaVuSans-30"/>
       <use x="63.623047" xlink:href="#DejaVuSans-2e"/>
       <use x="95.410156" xlink:href="#DejaVuSans-30"/>
       <use x="159.033203" xlink:href="#DejaVuSans-35"/>
      </g>
     </g>
    </g>
    <g id="ytick_3">
     <g id="line2d_9">
      <g>
       <use style="stroke:#000000;stroke-width:0.8;" x="63" xlink:href="#m1aa6913348" y="350.029225"/>
      </g>
     </g>
     <g id="text_10">
      <!-- 0.10 -->
      <defs>
       <path d="M 12.40625 8.296875 
L 28.515625 8.296875 
L 28.515625 63.921875 
L 10.984375 60.40625 
L 10.984375 69.390625 
L 28.421875 72.90625 
L 38.28125 72.90625 
L 38.28125 8.296875 
L 54.390625 8.296875 
L 54.390625 0 
L 12.40625 0 
z
" id="DejaVuSans-31"/>
      </defs>
      <g transform="translate(11.46875 357.627662)scale(0.2 -0.2)">
       <use xlink:href="#DejaVuSans-30"/>
       <use x="63.623047" xlink:href="#DejaVuSans-2e"/>
       <use x="95.410156" xlink:href="#DejaVuSans-31"/>
       <use x="159.033203" xlink:href="#DejaVuSans-30"/>
      </g>
     </g>
    </g>
    <g id="ytick_4">
     <g id="line2d_10">
      <g>
       <use style="stroke:#000000;stroke-width:0.8;" x="63" xlink:href="#m1aa6913348" y="304.543837"/>
      </g>
     </g>
     <g id="text_11">
      <!-- 0.15 -->
      <g transform="translate(11.46875 312.142274)scale(0.2 -0.2)">
       <use xlink:href="#DejaVuSans-30"/>
       <use x="63.623047" xlink:href="#DejaVuSans-2e"/>
       <use x="95.410156" xlink:href="#DejaVuSans-31"/>
       <use x="159.033203" xlink:href="#DejaVuSans-35"/>
      </g>
     </g>
    </g>
    <g id="ytick_5">
     <g id="line2d_11">
      <g>
       <use style="stroke:#000000;stroke-width:0.8;" x="63" xlink:href="#m1aa6913348" y="259.058449"/>
      </g>
     </g>
     <g id="text_12">
      <!-- 0.20 -->
      <g transform="translate(11.46875 266.656887)scale(0.2 -0.2)">
       <use xlink:href="#DejaVuSans-30"/>
       <use x="63.623047" xlink:href="#DejaVuSans-2e"/>
       <use x="95.410156" xlink:href="#DejaVuSans-32"/>
       <use x="159.033203" xlink:href="#DejaVuSans-30"/>
      </g>
     </g>
    </g>
    <g id="ytick_6">
     <g id="line2d_12">
      <g>
       <use style="stroke:#000000;stroke-width:0.8;" x="63" xlink:href="#m1aa6913348" y="213.573062"/>
      </g>
     </g>
     <g id="text_13">
      <!-- 0.25 -->
      <g transform="translate(11.46875 221.171499)scale(0.2 -0.2)">
       <use xlink:href="#DejaVuSans-30"/>
       <use x="63.623047" xlink:href="#DejaVuSans-2e"/>
       <use x="95.410156" xlink:href="#DejaVuSans-32"/>
       <use x="159.033203" xlink:href="#DejaVuSans-35"/>
      </g>
     </g>
    </g>
    <g id="ytick_7">
     <g id="line2d_13">
      <g>
       <use style="stroke:#000000;stroke-width:0.8;" x="63" xlink:href="#m1aa6913348" y="168.087674"/>
      </g>
     </g>
     <g id="text_14">
      <!-- 0.30 -->
      <defs>
       <path d="M 40.578125 39.3125 
Q 47.65625 37.796875 51.625 33 
Q 55.609375 28.21875 55.609375 21.1875 
Q 55.609375 10.40625 48.1875 4.484375 
Q 40.765625 -1.421875 27.09375 -1.421875 
Q 22.515625 -1.421875 17.65625 -0.515625 
Q 12.796875 0.390625 7.625 2.203125 
L 7.625 11.71875 
Q 11.71875 9.328125 16.59375 8.109375 
Q 21.484375 6.890625 26.8125 6.890625 
Q 36.078125 6.890625 40.9375 10.546875 
Q 45.796875 14.203125 45.796875 21.1875 
Q 45.796875 27.640625 41.28125 31.265625 
Q 36.765625 34.90625 28.71875 34.90625 
L 20.21875 34.90625 
L 20.21875 43.015625 
L 29.109375 43.015625 
Q 36.375 43.015625 40.234375 45.921875 
Q 44.09375 48.828125 44.09375 54.296875 
Q 44.09375 59.90625 40.109375 62.90625 
Q 36.140625 65.921875 28.71875 65.921875 
Q 24.65625 65.921875 20.015625 65.03125 
Q 15.375 64.15625 9.8125 62.3125 
L 9.8125 71.09375 
Q 15.4375 72.65625 20.34375 73.4375 
Q 25.25 74.21875 29.59375 74.21875 
Q 40.828125 74.21875 47.359375 69.109375 
Q 53.90625 64.015625 53.90625 55.328125 
Q 53.90625 49.265625 50.4375 45.09375 
Q 46.96875 40.921875 40.578125 39.3125 
z
" id="DejaVuSans-33"/>
      </defs>
      <g transform="translate(11.46875 175.686111)scale(0.2 -0.2)">
       <use xlink:href="#DejaVuSans-30"/>
       <use x="63.623047" xlink:href="#DejaVuSans-2e"/>
       <use x="95.410156" xlink:href="#DejaVuSans-33"/>
       <use x="159.033203" xlink:href="#DejaVuSans-30"/>
      </g>
     </g>
    </g>
    <g id="ytick_8">
     <g id="line2d_14">
      <g>
       <use style="stroke:#000000;stroke-width:0.8;" x="63" xlink:href="#m1aa6913348" y="122.602286"/>
      </g>
     </g>
     <g id="text_15">
      <!-- 0.35 -->
      <g transform="translate(11.46875 130.200724)scale(0.2 -0.2)">
       <use xlink:href="#DejaVuSans-30"/>
       <use x="63.623047" xlink:href="#DejaVuSans-2e"/>
       <use x="95.410156" xlink:href="#DejaVuSans-33"/>
       <use x="159.033203" xlink:href="#DejaVuSans-35"/>
      </g>
     </g>
    </g>
    <g id="ytick_9">
     <g id="line2d_15">
      <g>
       <use style="stroke:#000000;stroke-width:0.8;" x="63" xlink:href="#m1aa6913348" y="77.116899"/>
      </g>
     </g>
     <g id="text_16">
      <!-- 0.40 -->
      <g transform="translate(11.46875 84.715336)scale(0.2 -0.2)">
       <use xlink:href="#DejaVuSans-30"/>
       <use x="63.623047" xlink:href="#DejaVuSans-2e"/>
       <use x="95.410156" xlink:href="#DejaVuSans-34"/>
       <use x="159.033203" xlink:href="#DejaVuSans-30"/>
      </g>
     </g>
    </g>
    <g id="text_17">
     <!-- Frequency -->
     <defs>
      <path d="M 9.8125 72.90625 
L 51.703125 72.90625 
L 51.703125 64.59375 
L 19.671875 64.59375 
L 19.671875 43.109375 
L 48.578125 43.109375 
L 48.578125 34.8125 
L 19.671875 34.8125 
L 19.671875 0 
L 9.8125 0 
z
" id="DejaVuSans-46"/>
      <path d="M 14.796875 27.296875 
Q 14.796875 17.390625 18.875 11.75 
Q 22.953125 6.109375 30.078125 6.109375 
Q 37.203125 6.109375 41.296875 11.75 
Q 45.40625 17.390625 45.40625 27.296875 
Q 45.40625 37.203125 41.296875 42.84375 
Q 37.203125 48.484375 30.078125 48.484375 
Q 22.953125 48.484375 18.875 42.84375 
Q 14.796875 37.203125 14.796875 27.296875 
z
M 45.40625 8.203125 
Q 42.578125 3.328125 38.25 0.953125 
Q 33.9375 -1.421875 27.875 -1.421875 
Q 17.96875 -1.421875 11.734375 6.484375 
Q 5.515625 14.40625 5.515625 27.296875 
Q 5.515625 40.1875 11.734375 48.09375 
Q 17.96875 56 27.875 56 
Q 33.9375 56 38.25 53.625 
Q 42.578125 51.265625 45.40625 46.390625 
L 45.40625 54.6875 
L 54.390625 54.6875 
L 54.390625 -20.796875 
L 45.40625 -20.796875 
z
" id="DejaVuSans-71"/>
      <path d="M 8.5 21.578125 
L 8.5 54.6875 
L 17.484375 54.6875 
L 17.484375 21.921875 
Q 17.484375 14.15625 20.5 10.265625 
Q 23.53125 6.390625 29.59375 6.390625 
Q 36.859375 6.390625 41.078125 11.03125 
Q 45.3125 15.671875 45.3125 23.6875 
L 45.3125 54.6875 
L 54.296875 54.6875 
L 54.296875 0 
L 45.3125 0 
L 45.3125 8.40625 
Q 42.046875 3.421875 37.71875 1 
Q 33.40625 -1.421875 27.6875 -1.421875 
Q 18.265625 -1.421875 13.375 4.4375 
Q 8.5 10.296875 8.5 21.578125 
z
M 31.109375 56 
z
" id="DejaVuSans-75"/>
      <path d="M 32.171875 -5.078125 
Q 28.375 -14.84375 24.75 -17.8125 
Q 21.140625 -20.796875 15.09375 -20.796875 
L 7.90625 -20.796875 
L 7.90625 -13.28125 
L 13.1875 -13.28125 
Q 16.890625 -13.28125 18.9375 -11.515625 
Q 21 -9.765625 23.484375 -3.21875 
L 25.09375 0.875 
L 2.984375 54.6875 
L 12.5 54.6875 
L 29.59375 11.921875 
L 46.6875 54.6875 
L 56.203125 54.6875 
z
" id="DejaVuSans-79"/>
     </defs>
     <g transform="translate(2.893437 308.594844)rotate(-90)scale(0.22 -0.22)">
      <use xlink:href="#DejaVuSans-46"/>
      <use x="57.410156" xlink:href="#DejaVuSans-72"/>
      <use x="98.492188" xlink:href="#DejaVuSans-65"/>
      <use x="160.015625" xlink:href="#DejaVuSans-71"/>
      <use x="223.492188" xlink:href="#DejaVuSans-75"/>
      <use x="286.871094" xlink:href="#DejaVuSans-65"/>
      <use x="348.394531" xlink:href="#DejaVuSans-6e"/>
      <use x="411.773438" xlink:href="#DejaVuSans-63"/>
      <use x="466.753906" xlink:href="#DejaVuSans-79"/>
     </g>
    </g>
   </g>
   <g id="line2d_16">
    <path clip-path="url(#p48e6a4ff0a)" d="M 80.754545 440.998822 
L 84.341322 440.998083 
L 87.928099 440.99691 
L 91.514876 440.995068 
L 95.101653 440.992204 
L 98.68843 440.987795 
L 102.275207 440.981076 
L 105.861983 440.97094 
L 109.44876 440.955804 
L 113.035537 440.93343 
L 116.622314 440.900693 
L 120.209091 440.853282 
L 123.795868 440.785321 
L 127.382645 440.688898 
L 130.969421 440.553501 
L 134.556198 440.365337 
L 138.142975 440.106549 
L 141.729752 439.754331 
L 145.316529 439.279957 
L 148.903306 438.647765 
L 152.490083 437.814138 
L 156.07686 436.726556 
L 159.663636 435.322806 
L 163.250413 433.530453 
L 166.83719 431.266712 
L 170.423967 428.438844 
L 174.010744 424.945219 
L 177.597521 420.67718 
L 181.184298 415.521827 
L 184.771074 409.365763 
L 188.357851 402.099856 
L 191.944628 393.624936 
L 195.531405 383.858299 
L 199.118182 372.740785 
L 202.704959 360.244118 
L 206.291736 346.37807 
L 209.878512 331.197001 
L 213.465289 314.805229 
L 217.052066 297.360701 
L 220.638843 279.076474 
L 224.22562 260.219581 
L 227.812397 241.107001 
L 231.399174 222.0986 
L 234.98595 203.587132 
L 238.572727 185.985586 
L 242.159504 169.712389 
L 245.746281 155.17517 
L 249.333058 142.753946 
L 252.919835 132.784682 
L 256.506612 125.544219 
L 260.093388 121.237507 
L 263.680165 119.987967 
L 267.266942 121.831618 
L 270.853719 126.715349 
L 274.440496 134.499463 
L 278.027273 144.964313 
L 281.61405 157.820601 
L 285.200826 172.722653 
L 288.787603 189.283833 
L 292.37438 207.093131 
L 295.961157 225.731937 
L 299.547934 244.790068 
L 303.134711 263.880192 
L 306.721488 282.650011 
L 310.308264 300.791708 
L 313.895041 318.048417 
L 317.481818 334.217691 
L 321.068595 349.152096 
L 324.655372 362.757278 
L 328.242149 374.987921 
L 331.828926 385.842112 
L 335.415702 395.354643 
L 339.002479 403.589772 
L 342.589256 410.633912 
L 346.176033 416.588632 
L 349.76281 421.564303 
L 353.349587 425.674562 
L 356.936364 429.031756 
L 360.52314 431.743374 
L 364.109917 433.909452 
L 367.696694 435.620875 
L 371.283471 436.958448 
L 374.870248 437.992612 
L 378.457025 438.783664 
L 382.043802 439.382343 
L 385.630579 439.830657 
L 389.217355 440.162852 
L 392.804132 440.406436 
L 396.390909 440.583191 
L 399.977686 440.710124 
L 403.564463 440.80034 
L 407.15124 440.8638 
L 410.738017 440.907984 
L 414.324793 440.938432 
L 417.91157 440.9592 
L 421.498347 440.973223 
L 425.085124 440.982595 
L 428.671901 440.988796 
L 432.258678 440.992857 
L 435.845455 440.99549 
" style="fill:none;stroke:#70029f;stroke-linecap:square;stroke-width:3;"/>
   </g>
   <g id="patch_103">
    <path d="M 63 441 
L 63 60.48 
" style="fill:none;stroke:#000000;stroke-linecap:square;stroke-linejoin:miter;stroke-width:0.8;"/>
   </g>
   <g id="patch_104">
    <path d="M 453.6 441 
L 453.6 60.48 
" style="fill:none;stroke:#000000;stroke-linecap:square;stroke-linejoin:miter;stroke-width:0.8;"/>
   </g>
   <g id="patch_105">
    <path d="M 63 441 
L 453.6 441 
" style="fill:none;stroke:#000000;stroke-linecap:square;stroke-linejoin:miter;stroke-width:0.8;"/>
   </g>
   <g id="patch_106">
    <path d="M 63 60.48 
L 453.6 60.48 
" style="fill:none;stroke:#000000;stroke-linecap:square;stroke-linejoin:miter;stroke-width:0.8;"/>
   </g>
  </g>
 </g>
 <defs>
  <clipPath id="p48e6a4ff0a">
   <rect height="380.52" width="390.6" x="63" y="60.48"/>
  </clipPath>
 </defs>
</svg>
