<?xml version="1.0" encoding="utf-8" standalone="no"?>
<!DOCTYPE svg PUBLIC "-//W3C//DTD SVG 1.1//EN"
  "http://www.w3.org/Graphics/SVG/1.1/DTD/svg11.dtd">
<!-- Created with matplotlib (http://matplotlib.org/) -->
<svg height="504pt" version="1.1" viewBox="0 0 504 504" width="504pt" xmlns="http://www.w3.org/2000/svg" xmlns:xlink="http://www.w3.org/1999/xlink">
 <defs>
  <style type="text/css">
*{stroke-linecap:butt;stroke-linejoin:round;}
  </style>
 </defs>
 <g id="figure_1">
  <g id="patch_1">
   <path d="M 0 504 
L 504 504 
L 504 0 
L 0 0 
z
" style="fill:none;"/>
  </g>
  <g id="axes_1">
   <g id="patch_2">
    <path d="M 63 441 
L 453.6 441 
L 453.6 60.48 
L 63 60.48 
z
" style="fill:none;"/>
   </g>
   <g id="patch_3">
    <path clip-path="url(#pbbb532f75c)" d="M 168.894895 441 
L 168.894895 60.48 
L 226.739285 60.48 
L 226.739285 441 
z
" style="fill:#ff0000;opacity:0.5;stroke:#ff0000;stroke-linejoin:miter;stroke-width:2;"/>
   </g>
   <g id="patch_4">
    <path clip-path="url(#pbbb532f75c)" d="M 80.754545 441 
L 89.631818 441 
L 89.631818 380.6 
L 80.754545 380.6 
z
" style="fill:#708090;"/>
   </g>
   <g id="patch_5">
    <path clip-path="url(#pbbb532f75c)" d="M 89.631818 441 
L 98.509091 441 
L 98.509091 441 
L 89.631818 441 
z
" style="fill:#708090;"/>
   </g>
   <g id="patch_6">
    <path clip-path="url(#pbbb532f75c)" d="M 98.509091 441 
L 107.386364 441 
L 107.386364 410.8 
L 98.509091 410.8 
z
" style="fill:#708090;"/>
   </g>
   <g id="patch_7">
    <path clip-path="url(#pbbb532f75c)" d="M 107.386364 441 
L 116.263636 441 
L 116.263636 410.8 
L 107.386364 410.8 
z
" style="fill:#708090;"/>
   </g>
   <g id="patch_8">
    <path clip-path="url(#pbbb532f75c)" d="M 116.263636 441 
L 125.140909 441 
L 125.140909 380.6 
L 116.263636 380.6 
z
" style="fill:#708090;"/>
   </g>
   <g id="patch_9">
    <path clip-path="url(#pbbb532f75c)" d="M 125.140909 441 
L 134.018182 441 
L 134.018182 259.8 
L 125.140909 259.8 
z
" style="fill:#708090;"/>
   </g>
   <g id="patch_10">
    <path clip-path="url(#pbbb532f75c)" d="M 134.018182 441 
L 142.895455 441 
L 142.895455 320.2 
L 134.018182 320.2 
z
" style="fill:#708090;"/>
   </g>
   <g id="patch_11">
    <path clip-path="url(#pbbb532f75c)" d="M 142.895455 441 
L 151.772727 441 
L 151.772727 169.2 
L 142.895455 169.2 
z
" style="fill:#708090;"/>
   </g>
   <g id="patch_12">
    <path clip-path="url(#pbbb532f75c)" d="M 151.772727 441 
L 160.65 441 
L 160.65 169.2 
L 151.772727 169.2 
z
" style="fill:#708090;"/>
   </g>
   <g id="patch_13">
    <path clip-path="url(#pbbb532f75c)" d="M 160.65 441 
L 169.527273 441 
L 169.527273 259.8 
L 160.65 259.8 
z
" style="fill:#708090;"/>
   </g>
   <g id="patch_14">
    <path clip-path="url(#pbbb532f75c)" d="M 169.527273 441 
L 178.404545 441 
L 178.404545 139 
L 169.527273 139 
z
" style="fill:#708090;"/>
   </g>
   <g id="patch_15">
    <path clip-path="url(#pbbb532f75c)" d="M 178.404545 441 
L 187.281818 441 
L 187.281818 199.4 
L 178.404545 199.4 
z
" style="fill:#708090;"/>
   </g>
   <g id="patch_16">
    <path clip-path="url(#pbbb532f75c)" d="M 187.281818 441 
L 196.159091 441 
L 196.159091 78.6 
L 187.281818 78.6 
z
" style="fill:#708090;"/>
   </g>
   <g id="patch_17">
    <path clip-path="url(#pbbb532f75c)" d="M 196.159091 441 
L 205.036364 441 
L 205.036364 229.6 
L 196.159091 229.6 
z
" style="fill:#708090;"/>
   </g>
   <g id="patch_18">
    <path clip-path="url(#pbbb532f75c)" d="M 205.036364 441 
L 213.913636 441 
L 213.913636 320.2 
L 205.036364 320.2 
z
" style="fill:#708090;"/>
   </g>
   <g id="patch_19">
    <path clip-path="url(#pbbb532f75c)" d="M 213.913636 441 
L 222.790909 441 
L 222.790909 380.6 
L 213.913636 380.6 
z
" style="fill:#708090;"/>
   </g>
   <g id="patch_20">
    <path clip-path="url(#pbbb532f75c)" d="M 222.790909 441 
L 231.668182 441 
L 231.668182 410.8 
L 222.790909 410.8 
z
" style="fill:#708090;"/>
   </g>
   <g id="patch_21">
    <path clip-path="url(#pbbb532f75c)" d="M 231.668182 441 
L 240.545455 441 
L 240.545455 259.8 
L 231.668182 259.8 
z
" style="fill:#708090;"/>
   </g>
   <g id="patch_22">
    <path clip-path="url(#pbbb532f75c)" d="M 240.545455 441 
L 249.422727 441 
L 249.422727 410.8 
L 240.545455 410.8 
z
" style="fill:#708090;"/>
   </g>
   <g id="patch_23">
    <path clip-path="url(#pbbb532f75c)" d="M 249.422727 441 
L 258.3 441 
L 258.3 441 
L 249.422727 441 
z
" style="fill:#708090;"/>
   </g>
   <g id="patch_24">
    <path clip-path="url(#pbbb532f75c)" d="M 258.3 441 
L 267.177273 441 
L 267.177273 441 
L 258.3 441 
z
" style="fill:#708090;"/>
   </g>
   <g id="patch_25">
    <path clip-path="url(#pbbb532f75c)" d="M 267.177273 441 
L 276.054545 441 
L 276.054545 441 
L 267.177273 441 
z
" style="fill:#708090;"/>
   </g>
   <g id="patch_26">
    <path clip-path="url(#pbbb532f75c)" d="M 276.054545 441 
L 284.931818 441 
L 284.931818 410.8 
L 276.054545 410.8 
z
" style="fill:#708090;"/>
   </g>
   <g id="patch_27">
    <path clip-path="url(#pbbb532f75c)" d="M 284.931818 441 
L 293.809091 441 
L 293.809091 410.8 
L 284.931818 410.8 
z
" style="fill:#708090;"/>
   </g>
   <g id="patch_28">
    <path clip-path="url(#pbbb532f75c)" d="M 293.809091 441 
L 302.686364 441 
L 302.686364 410.8 
L 293.809091 410.8 
z
" style="fill:#708090;"/>
   </g>
   <g id="patch_29">
    <path clip-path="url(#pbbb532f75c)" d="M 302.686364 441 
L 311.563636 441 
L 311.563636 441 
L 302.686364 441 
z
" style="fill:#708090;"/>
   </g>
   <g id="patch_30">
    <path clip-path="url(#pbbb532f75c)" d="M 311.563636 441 
L 320.440909 441 
L 320.440909 441 
L 311.563636 441 
z
" style="fill:#708090;"/>
   </g>
   <g id="patch_31">
    <path clip-path="url(#pbbb532f75c)" d="M 320.440909 441 
L 329.318182 441 
L 329.318182 441 
L 320.440909 441 
z
" style="fill:#708090;"/>
   </g>
   <g id="patch_32">
    <path clip-path="url(#pbbb532f75c)" d="M 329.318182 441 
L 338.195455 441 
L 338.195455 441 
L 329.318182 441 
z
" style="fill:#708090;"/>
   </g>
   <g id="patch_33">
    <path clip-path="url(#pbbb532f75c)" d="M 338.195455 441 
L 347.072727 441 
L 347.072727 410.8 
L 338.195455 410.8 
z
" style="fill:#708090;"/>
   </g>
   <g id="patch_34">
    <path clip-path="url(#pbbb532f75c)" d="M 347.072727 441 
L 355.95 441 
L 355.95 441 
L 347.072727 441 
z
" style="fill:#708090;"/>
   </g>
   <g id="patch_35">
    <path clip-path="url(#pbbb532f75c)" d="M 355.95 441 
L 364.827273 441 
L 364.827273 441 
L 355.95 441 
z
" style="fill:#708090;"/>
   </g>
   <g id="patch_36">
    <path clip-path="url(#pbbb532f75c)" d="M 364.827273 441 
L 373.704545 441 
L 373.704545 441 
L 364.827273 441 
z
" style="fill:#708090;"/>
   </g>
   <g id="patch_37">
    <path clip-path="url(#pbbb532f75c)" d="M 373.704545 441 
L 382.581818 441 
L 382.581818 350.4 
L 373.704545 350.4 
z
" style="fill:#708090;"/>
   </g>
   <g id="patch_38">
    <path clip-path="url(#pbbb532f75c)" d="M 382.581818 441 
L 391.459091 441 
L 391.459091 410.8 
L 382.581818 410.8 
z
" style="fill:#708090;"/>
   </g>
   <g id="patch_39">
    <path clip-path="url(#pbbb532f75c)" d="M 391.459091 441 
L 400.336364 441 
L 400.336364 441 
L 391.459091 441 
z
" style="fill:#708090;"/>
   </g>
   <g id="patch_40">
    <path clip-path="url(#pbbb532f75c)" d="M 400.336364 441 
L 409.213636 441 
L 409.213636 410.8 
L 400.336364 410.8 
z
" style="fill:#708090;"/>
   </g>
   <g id="patch_41">
    <path clip-path="url(#pbbb532f75c)" d="M 409.213636 441 
L 418.090909 441 
L 418.090909 441 
L 409.213636 441 
z
" style="fill:#708090;"/>
   </g>
   <g id="patch_42">
    <path clip-path="url(#pbbb532f75c)" d="M 418.090909 441 
L 426.968182 441 
L 426.968182 441 
L 418.090909 441 
z
" style="fill:#708090;"/>
   </g>
   <g id="patch_43">
    <path clip-path="url(#pbbb532f75c)" d="M 426.968182 441 
L 435.845455 441 
L 435.845455 410.8 
L 426.968182 410.8 
z
" style="fill:#708090;"/>
   </g>
   <g id="matplotlib.axis_1">
    <g id="xtick_1">
     <g id="line2d_1">
      <defs>
       <path d="M 0 0 
L 0 3.5 
" id="mddfe255e5d" style="stroke:#000000;stroke-width:0.8;"/>
      </defs>
      <g>
       <use style="stroke:#000000;stroke-width:0.8;" x="125.511603" xlink:href="#mddfe255e5d" y="441"/>
      </g>
     </g>
     <g id="text_1">
      <!-- 0.5 -->
      <defs>
       <path d="M 31.78125 66.40625 
Q 24.171875 66.40625 20.328125 58.90625 
Q 16.5 51.421875 16.5 36.375 
Q 16.5 21.390625 20.328125 13.890625 
Q 24.171875 6.390625 31.78125 6.390625 
Q 39.453125 6.390625 43.28125 13.890625 
Q 47.125 21.390625 47.125 36.375 
Q 47.125 51.421875 43.28125 58.90625 
Q 39.453125 66.40625 31.78125 66.40625 
z
M 31.78125 74.21875 
Q 44.046875 74.21875 50.515625 64.515625 
Q 56.984375 54.828125 56.984375 36.375 
Q 56.984375 17.96875 50.515625 8.265625 
Q 44.046875 -1.421875 31.78125 -1.421875 
Q 19.53125 -1.421875 13.0625 8.265625 
Q 6.59375 17.96875 6.59375 36.375 
Q 6.59375 54.828125 13.0625 64.515625 
Q 19.53125 74.21875 31.78125 74.21875 
z
" id="DejaVuSans-30"/>
       <path d="M 10.6875 12.40625 
L 21 12.40625 
L 21 0 
L 10.6875 0 
z
" id="DejaVuSans-2e"/>
       <path d="M 10.796875 72.90625 
L 49.515625 72.90625 
L 49.515625 64.59375 
L 19.828125 64.59375 
L 19.828125 46.734375 
Q 21.96875 47.46875 24.109375 47.828125 
Q 26.265625 48.1875 28.421875 48.1875 
Q 40.625 48.1875 47.75 41.5 
Q 54.890625 34.8125 54.890625 23.390625 
Q 54.890625 11.625 47.5625 5.09375 
Q 40.234375 -1.421875 26.90625 -1.421875 
Q 22.3125 -1.421875 17.546875 -0.640625 
Q 12.796875 0.140625 7.71875 1.703125 
L 7.71875 11.625 
Q 12.109375 9.234375 16.796875 8.0625 
Q 21.484375 6.890625 26.703125 6.890625 
Q 35.15625 6.890625 40.078125 11.328125 
Q 45.015625 15.765625 45.015625 23.390625 
Q 45.015625 31 40.078125 35.4375 
Q 35.15625 39.890625 26.703125 39.890625 
Q 22.75 39.890625 18.8125 39.015625 
Q 14.890625 38.140625 10.796875 36.28125 
z
" id="DejaVuSans-35"/>
      </defs>
      <g transform="translate(109.608478 463.196875)scale(0.2 -0.2)">
       <use xlink:href="#DejaVuSans-30"/>
       <use x="63.623047" xlink:href="#DejaVuSans-2e"/>
       <use x="95.410156" xlink:href="#DejaVuSans-35"/>
      </g>
     </g>
    </g>
    <g id="xtick_2">
     <g id="line2d_2">
      <g>
       <use style="stroke:#000000;stroke-width:0.8;" x="197.81709" xlink:href="#mddfe255e5d" y="441"/>
      </g>
     </g>
     <g id="text_2">
      <!-- 1.0 -->
      <defs>
       <path d="M 12.40625 8.296875 
L 28.515625 8.296875 
L 28.515625 63.921875 
L 10.984375 60.40625 
L 10.984375 69.390625 
L 28.421875 72.90625 
L 38.28125 72.90625 
L 38.28125 8.296875 
L 54.390625 8.296875 
L 54.390625 0 
L 12.40625 0 
z
" id="DejaVuSans-31"/>
      </defs>
      <g transform="translate(181.913965 463.196875)scale(0.2 -0.2)">
       <use xlink:href="#DejaVuSans-31"/>
       <use x="63.623047" xlink:href="#DejaVuSans-2e"/>
       <use x="95.410156" xlink:href="#DejaVuSans-30"/>
      </g>
     </g>
    </g>
    <g id="xtick_3">
     <g id="line2d_3">
      <g>
       <use style="stroke:#000000;stroke-width:0.8;" x="270.122578" xlink:href="#mddfe255e5d" y="441"/>
      </g>
     </g>
     <g id="text_3">
      <!-- 1.5 -->
      <g transform="translate(254.219453 463.196875)scale(0.2 -0.2)">
       <use xlink:href="#DejaVuSans-31"/>
       <use x="63.623047" xlink:href="#DejaVuSans-2e"/>
       <use x="95.410156" xlink:href="#DejaVuSans-35"/>
      </g>
     </g>
    </g>
    <g id="xtick_4">
     <g id="line2d_4">
      <g>
       <use style="stroke:#000000;stroke-width:0.8;" x="342.428065" xlink:href="#mddfe255e5d" y="441"/>
      </g>
     </g>
     <g id="text_4">
      <!-- 2.0 -->
      <defs>
       <path d="M 19.1875 8.296875 
L 53.609375 8.296875 
L 53.609375 0 
L 7.328125 0 
L 7.328125 8.296875 
Q 12.9375 14.109375 22.625 23.890625 
Q 32.328125 33.6875 34.8125 36.53125 
Q 39.546875 41.84375 41.421875 45.53125 
Q 43.3125 49.21875 43.3125 52.78125 
Q 43.3125 58.59375 39.234375 62.25 
Q 35.15625 65.921875 28.609375 65.921875 
Q 23.96875 65.921875 18.8125 64.3125 
Q 13.671875 62.703125 7.8125 59.421875 
L 7.8125 69.390625 
Q 13.765625 71.78125 18.9375 73 
Q 24.125 74.21875 28.421875 74.21875 
Q 39.75 74.21875 46.484375 68.546875 
Q 53.21875 62.890625 53.21875 53.421875 
Q 53.21875 48.921875 51.53125 44.890625 
Q 49.859375 40.875 45.40625 35.40625 
Q 44.1875 33.984375 37.640625 27.21875 
Q 31.109375 20.453125 19.1875 8.296875 
z
" id="DejaVuSans-32"/>
      </defs>
      <g transform="translate(326.52494 463.196875)scale(0.2 -0.2)">
       <use xlink:href="#DejaVuSans-32"/>
       <use x="63.623047" xlink:href="#DejaVuSans-2e"/>
       <use x="95.410156" xlink:href="#DejaVuSans-30"/>
      </g>
     </g>
    </g>
    <g id="xtick_5">
     <g id="line2d_5">
      <g>
       <use style="stroke:#000000;stroke-width:0.8;" x="414.733552" xlink:href="#mddfe255e5d" y="441"/>
      </g>
     </g>
     <g id="text_5">
      <!-- 2.5 -->
      <g transform="translate(398.830427 463.196875)scale(0.2 -0.2)">
       <use xlink:href="#DejaVuSans-32"/>
       <use x="63.623047" xlink:href="#DejaVuSans-2e"/>
       <use x="95.410156" xlink:href="#DejaVuSans-35"/>
      </g>
     </g>
    </g>
   </g>
   <g id="matplotlib.axis_2">
    <g id="ytick_1">
     <g id="line2d_6">
      <defs>
       <path d="M 0 0 
L -3.5 0 
" id="m20a206a74f" style="stroke:#000000;stroke-width:0.8;"/>
      </defs>
      <g>
       <use style="stroke:#000000;stroke-width:0.8;" x="63" xlink:href="#m20a206a74f" y="441"/>
      </g>
     </g>
     <g id="text_6">
      <!-- 0 -->
      <g transform="translate(43.275 448.598437)scale(0.2 -0.2)">
       <use xlink:href="#DejaVuSans-30"/>
      </g>
     </g>
    </g>
    <g id="ytick_2">
     <g id="line2d_7">
      <g>
       <use style="stroke:#000000;stroke-width:0.8;" x="63" xlink:href="#m20a206a74f" y="380.6"/>
      </g>
     </g>
     <g id="text_7">
      <!-- 2 -->
      <g transform="translate(43.275 388.198438)scale(0.2 -0.2)">
       <use xlink:href="#DejaVuSans-32"/>
      </g>
     </g>
    </g>
    <g id="ytick_3">
     <g id="line2d_8">
      <g>
       <use style="stroke:#000000;stroke-width:0.8;" x="63" xlink:href="#m20a206a74f" y="320.2"/>
      </g>
     </g>
     <g id="text_8">
      <!-- 4 -->
      <defs>
       <path d="M 37.796875 64.3125 
L 12.890625 25.390625 
L 37.796875 25.390625 
z
M 35.203125 72.90625 
L 47.609375 72.90625 
L 47.609375 25.390625 
L 58.015625 25.390625 
L 58.015625 17.1875 
L 47.609375 17.1875 
L 47.609375 0 
L 37.796875 0 
L 37.796875 17.1875 
L 4.890625 17.1875 
L 4.890625 26.703125 
z
" id="DejaVuSans-34"/>
      </defs>
      <g transform="translate(43.275 327.798437)scale(0.2 -0.2)">
       <use xlink:href="#DejaVuSans-34"/>
      </g>
     </g>
    </g>
    <g id="ytick_4">
     <g id="line2d_9">
      <g>
       <use style="stroke:#000000;stroke-width:0.8;" x="63" xlink:href="#m20a206a74f" y="259.8"/>
      </g>
     </g>
     <g id="text_9">
      <!-- 6 -->
      <defs>
       <path d="M 33.015625 40.375 
Q 26.375 40.375 22.484375 35.828125 
Q 18.609375 31.296875 18.609375 23.390625 
Q 18.609375 15.53125 22.484375 10.953125 
Q 26.375 6.390625 33.015625 6.390625 
Q 39.65625 6.390625 43.53125 10.953125 
Q 47.40625 15.53125 47.40625 23.390625 
Q 47.40625 31.296875 43.53125 35.828125 
Q 39.65625 40.375 33.015625 40.375 
z
M 52.59375 71.296875 
L 52.59375 62.3125 
Q 48.875 64.0625 45.09375 64.984375 
Q 41.3125 65.921875 37.59375 65.921875 
Q 27.828125 65.921875 22.671875 59.328125 
Q 17.53125 52.734375 16.796875 39.40625 
Q 19.671875 43.65625 24.015625 45.921875 
Q 28.375 48.1875 33.59375 48.1875 
Q 44.578125 48.1875 50.953125 41.515625 
Q 57.328125 34.859375 57.328125 23.390625 
Q 57.328125 12.15625 50.6875 5.359375 
Q 44.046875 -1.421875 33.015625 -1.421875 
Q 20.359375 -1.421875 13.671875 8.265625 
Q 6.984375 17.96875 6.984375 36.375 
Q 6.984375 53.65625 15.1875 63.9375 
Q 23.390625 74.21875 37.203125 74.21875 
Q 40.921875 74.21875 44.703125 73.484375 
Q 48.484375 72.75 52.59375 71.296875 
z
" id="DejaVuSans-36"/>
      </defs>
      <g transform="translate(43.275 267.398438)scale(0.2 -0.2)">
       <use xlink:href="#DejaVuSans-36"/>
      </g>
     </g>
    </g>
    <g id="ytick_5">
     <g id="line2d_10">
      <g>
       <use style="stroke:#000000;stroke-width:0.8;" x="63" xlink:href="#m20a206a74f" y="199.4"/>
      </g>
     </g>
     <g id="text_10">
      <!-- 8 -->
      <defs>
       <path d="M 31.78125 34.625 
Q 24.75 34.625 20.71875 30.859375 
Q 16.703125 27.09375 16.703125 20.515625 
Q 16.703125 13.921875 20.71875 10.15625 
Q 24.75 6.390625 31.78125 6.390625 
Q 38.8125 6.390625 42.859375 10.171875 
Q 46.921875 13.96875 46.921875 20.515625 
Q 46.921875 27.09375 42.890625 30.859375 
Q 38.875 34.625 31.78125 34.625 
z
M 21.921875 38.8125 
Q 15.578125 40.375 12.03125 44.71875 
Q 8.5 49.078125 8.5 55.328125 
Q 8.5 64.0625 14.71875 69.140625 
Q 20.953125 74.21875 31.78125 74.21875 
Q 42.671875 74.21875 48.875 69.140625 
Q 55.078125 64.0625 55.078125 55.328125 
Q 55.078125 49.078125 51.53125 44.71875 
Q 48 40.375 41.703125 38.8125 
Q 48.828125 37.15625 52.796875 32.3125 
Q 56.78125 27.484375 56.78125 20.515625 
Q 56.78125 9.90625 50.3125 4.234375 
Q 43.84375 -1.421875 31.78125 -1.421875 
Q 19.734375 -1.421875 13.25 4.234375 
Q 6.78125 9.90625 6.78125 20.515625 
Q 6.78125 27.484375 10.78125 32.3125 
Q 14.796875 37.15625 21.921875 38.8125 
z
M 18.3125 54.390625 
Q 18.3125 48.734375 21.84375 45.5625 
Q 25.390625 42.390625 31.78125 42.390625 
Q 38.140625 42.390625 41.71875 45.5625 
Q 45.3125 48.734375 45.3125 54.390625 
Q 45.3125 60.0625 41.71875 63.234375 
Q 38.140625 66.40625 31.78125 66.40625 
Q 25.390625 66.40625 21.84375 63.234375 
Q 18.3125 60.0625 18.3125 54.390625 
z
" id="DejaVuSans-38"/>
      </defs>
      <g transform="translate(43.275 206.998438)scale(0.2 -0.2)">
       <use xlink:href="#DejaVuSans-38"/>
      </g>
     </g>
    </g>
    <g id="ytick_6">
     <g id="line2d_11">
      <g>
       <use style="stroke:#000000;stroke-width:0.8;" x="63" xlink:href="#m20a206a74f" y="139"/>
      </g>
     </g>
     <g id="text_11">
      <!-- 10 -->
      <g transform="translate(30.55 146.598438)scale(0.2 -0.2)">
       <use xlink:href="#DejaVuSans-31"/>
       <use x="63.623047" xlink:href="#DejaVuSans-30"/>
      </g>
     </g>
    </g>
    <g id="ytick_7">
     <g id="line2d_12">
      <g>
       <use style="stroke:#000000;stroke-width:0.8;" x="63" xlink:href="#m20a206a74f" y="78.6"/>
      </g>
     </g>
     <g id="text_12">
      <!-- 12 -->
      <g transform="translate(30.55 86.198438)scale(0.2 -0.2)">
       <use xlink:href="#DejaVuSans-31"/>
       <use x="63.623047" xlink:href="#DejaVuSans-32"/>
      </g>
     </g>
    </g>
   </g>
   <g id="patch_44">
    <path d="M 63 441 
L 63 60.48 
" style="fill:none;stroke:#000000;stroke-linecap:square;stroke-linejoin:miter;stroke-width:0.8;"/>
   </g>
   <g id="patch_45">
    <path d="M 453.6 441 
L 453.6 60.48 
" style="fill:none;stroke:#000000;stroke-linecap:square;stroke-linejoin:miter;stroke-width:0.8;"/>
   </g>
   <g id="patch_46">
    <path d="M 63 441 
L 453.6 441 
" style="fill:none;stroke:#000000;stroke-linecap:square;stroke-linejoin:miter;stroke-width:0.8;"/>
   </g>
   <g id="patch_47">
    <path d="M 63 60.48 
L 453.6 60.48 
" style="fill:none;stroke:#000000;stroke-linecap:square;stroke-linejoin:miter;stroke-width:0.8;"/>
   </g>
  </g>
 </g>
 <defs>
  <clipPath id="pbbb532f75c">
   <rect height="380.52" width="390.6" x="63" y="60.48"/>
  </clipPath>
 </defs>
</svg>
