<?xml version="1.0" encoding="utf-8" standalone="no"?>
<!DOCTYPE svg PUBLIC "-//W3C//DTD SVG 1.1//EN"
  "http://www.w3.org/Graphics/SVG/1.1/DTD/svg11.dtd">
<!-- Created with matplotlib (http://matplotlib.org/) -->
<svg height="432pt" version="1.1" viewBox="0 0 720 432" width="720pt" xmlns="http://www.w3.org/2000/svg" xmlns:xlink="http://www.w3.org/1999/xlink">
 <defs>
  <style type="text/css">
*{stroke-linecap:butt;stroke-linejoin:round;}
  </style>
 </defs>
 <g id="figure_1">
  <g id="patch_1">
   <path d="M 0 432 
L 720 432 
L 720 0 
L 0 0 
z
" style="fill:none;"/>
  </g>
  <g id="axes_1">
   <g id="patch_2">
    <path d="M 90 378 
L 648 378 
L 648 51.84 
L 90 51.84 
z
" style="fill:none;"/>
   </g>
   <g id="patch_3">
    <path clip-path="url(#p1e94fa5d7e)" d="M 229.5 378 
L 229.5 51.84 
L 369 51.84 
L 369 378 
z
" style="fill:#808080;opacity:0.5;stroke:#808080;stroke-linejoin:miter;"/>
   </g>
   <g id="patch_4">
    <path clip-path="url(#p1e94fa5d7e)" d="M 508.5 378 
L 508.5 51.84 
L 648 51.84 
L 648 378 
z
" style="fill:#808080;opacity:0.5;stroke:#808080;stroke-linejoin:miter;"/>
   </g>
   <g id="matplotlib.axis_1">
    <g id="xtick_1">
     <g id="line2d_1">
      <defs>
       <path d="M 0 0 
L 0 3.5 
" id="m8337b1fb88" style="stroke:#000000;stroke-width:0.8;"/>
      </defs>
      <g>
       <use style="stroke:#000000;stroke-width:0.8;" x="90" xlink:href="#m8337b1fb88" y="378"/>
      </g>
     </g>
     <g id="text_1">
      <!-- 0 -->
      <defs>
       <path d="M 31.78125 66.40625 
Q 24.171875 66.40625 20.328125 58.90625 
Q 16.5 51.421875 16.5 36.375 
Q 16.5 21.390625 20.328125 13.890625 
Q 24.171875 6.390625 31.78125 6.390625 
Q 39.453125 6.390625 43.28125 13.890625 
Q 47.125 21.390625 47.125 36.375 
Q 47.125 51.421875 43.28125 58.90625 
Q 39.453125 66.40625 31.78125 66.40625 
z
M 31.78125 74.21875 
Q 44.046875 74.21875 50.515625 64.515625 
Q 56.984375 54.828125 56.984375 36.375 
Q 56.984375 17.96875 50.515625 8.265625 
Q 44.046875 -1.421875 31.78125 -1.421875 
Q 19.53125 -1.421875 13.0625 8.265625 
Q 6.59375 17.96875 6.59375 36.375 
Q 6.59375 54.828125 13.0625 64.515625 
Q 19.53125 74.21875 31.78125 74.21875 
z
" id="DejaVuSans-30"/>
      </defs>
      <g transform="translate(83.00125 401.716563)scale(0.22 -0.22)">
       <use xlink:href="#DejaVuSans-30"/>
      </g>
     </g>
    </g>
    <g id="xtick_2">
     <g id="line2d_2">
      <g>
       <use style="stroke:#000000;stroke-width:0.8;" x="229.5" xlink:href="#m8337b1fb88" y="378"/>
      </g>
     </g>
     <g id="text_2">
      <!-- 12 -->
      <defs>
       <path d="M 12.40625 8.296875 
L 28.515625 8.296875 
L 28.515625 63.921875 
L 10.984375 60.40625 
L 10.984375 69.390625 
L 28.421875 72.90625 
L 38.28125 72.90625 
L 38.28125 8.296875 
L 54.390625 8.296875 
L 54.390625 0 
L 12.40625 0 
z
" id="DejaVuSans-31"/>
       <path d="M 19.1875 8.296875 
L 53.609375 8.296875 
L 53.609375 0 
L 7.328125 0 
L 7.328125 8.296875 
Q 12.9375 14.109375 22.625 23.890625 
Q 32.328125 33.6875 34.8125 36.53125 
Q 39.546875 41.84375 41.421875 45.53125 
Q 43.3125 49.21875 43.3125 52.78125 
Q 43.3125 58.59375 39.234375 62.25 
Q 35.15625 65.921875 28.609375 65.921875 
Q 23.96875 65.921875 18.8125 64.3125 
Q 13.671875 62.703125 7.8125 59.421875 
L 7.8125 69.390625 
Q 13.765625 71.78125 18.9375 73 
Q 24.125 74.21875 28.421875 74.21875 
Q 39.75 74.21875 46.484375 68.546875 
Q 53.21875 62.890625 53.21875 53.421875 
Q 53.21875 48.921875 51.53125 44.890625 
Q 49.859375 40.875 45.40625 35.40625 
Q 44.1875 33.984375 37.640625 27.21875 
Q 31.109375 20.453125 19.1875 8.296875 
z
" id="DejaVuSans-32"/>
      </defs>
      <g transform="translate(215.5025 401.716563)scale(0.22 -0.22)">
       <use xlink:href="#DejaVuSans-31"/>
       <use x="63.623047" xlink:href="#DejaVuSans-32"/>
      </g>
     </g>
    </g>
    <g id="xtick_3">
     <g id="line2d_3">
      <g>
       <use style="stroke:#000000;stroke-width:0.8;" x="369" xlink:href="#m8337b1fb88" y="378"/>
      </g>
     </g>
     <g id="text_3">
      <!-- 24 -->
      <defs>
       <path d="M 37.796875 64.3125 
L 12.890625 25.390625 
L 37.796875 25.390625 
z
M 35.203125 72.90625 
L 47.609375 72.90625 
L 47.609375 25.390625 
L 58.015625 25.390625 
L 58.015625 17.1875 
L 47.609375 17.1875 
L 47.609375 0 
L 37.796875 0 
L 37.796875 17.1875 
L 4.890625 17.1875 
L 4.890625 26.703125 
z
" id="DejaVuSans-34"/>
      </defs>
      <g transform="translate(355.0025 401.716563)scale(0.22 -0.22)">
       <use xlink:href="#DejaVuSans-32"/>
       <use x="63.623047" xlink:href="#DejaVuSans-34"/>
      </g>
     </g>
    </g>
    <g id="xtick_4">
     <g id="line2d_4">
      <g>
       <use style="stroke:#000000;stroke-width:0.8;" x="508.5" xlink:href="#m8337b1fb88" y="378"/>
      </g>
     </g>
     <g id="text_4">
      <!-- 36 -->
      <defs>
       <path d="M 40.578125 39.3125 
Q 47.65625 37.796875 51.625 33 
Q 55.609375 28.21875 55.609375 21.1875 
Q 55.609375 10.40625 48.1875 4.484375 
Q 40.765625 -1.421875 27.09375 -1.421875 
Q 22.515625 -1.421875 17.65625 -0.515625 
Q 12.796875 0.390625 7.625 2.203125 
L 7.625 11.71875 
Q 11.71875 9.328125 16.59375 8.109375 
Q 21.484375 6.890625 26.8125 6.890625 
Q 36.078125 6.890625 40.9375 10.546875 
Q 45.796875 14.203125 45.796875 21.1875 
Q 45.796875 27.640625 41.28125 31.265625 
Q 36.765625 34.90625 28.71875 34.90625 
L 20.21875 34.90625 
L 20.21875 43.015625 
L 29.109375 43.015625 
Q 36.375 43.015625 40.234375 45.921875 
Q 44.09375 48.828125 44.09375 54.296875 
Q 44.09375 59.90625 40.109375 62.90625 
Q 36.140625 65.921875 28.71875 65.921875 
Q 24.65625 65.921875 20.015625 65.03125 
Q 15.375 64.15625 9.8125 62.3125 
L 9.8125 71.09375 
Q 15.4375 72.65625 20.34375 73.4375 
Q 25.25 74.21875 29.59375 74.21875 
Q 40.828125 74.21875 47.359375 69.109375 
Q 53.90625 64.015625 53.90625 55.328125 
Q 53.90625 49.265625 50.4375 45.09375 
Q 46.96875 40.921875 40.578125 39.3125 
z
" id="DejaVuSans-33"/>
       <path d="M 33.015625 40.375 
Q 26.375 40.375 22.484375 35.828125 
Q 18.609375 31.296875 18.609375 23.390625 
Q 18.609375 15.53125 22.484375 10.953125 
Q 26.375 6.390625 33.015625 6.390625 
Q 39.65625 6.390625 43.53125 10.953125 
Q 47.40625 15.53125 47.40625 23.390625 
Q 47.40625 31.296875 43.53125 35.828125 
Q 39.65625 40.375 33.015625 40.375 
z
M 52.59375 71.296875 
L 52.59375 62.3125 
Q 48.875 64.0625 45.09375 64.984375 
Q 41.3125 65.921875 37.59375 65.921875 
Q 27.828125 65.921875 22.671875 59.328125 
Q 17.53125 52.734375 16.796875 39.40625 
Q 19.671875 43.65625 24.015625 45.921875 
Q 28.375 48.1875 33.59375 48.1875 
Q 44.578125 48.1875 50.953125 41.515625 
Q 57.328125 34.859375 57.328125 23.390625 
Q 57.328125 12.15625 50.6875 5.359375 
Q 44.046875 -1.421875 33.015625 -1.421875 
Q 20.359375 -1.421875 13.671875 8.265625 
Q 6.984375 17.96875 6.984375 36.375 
Q 6.984375 53.65625 15.1875 63.9375 
Q 23.390625 74.21875 37.203125 74.21875 
Q 40.921875 74.21875 44.703125 73.484375 
Q 48.484375 72.75 52.59375 71.296875 
z
" id="DejaVuSans-36"/>
      </defs>
      <g transform="translate(494.5025 401.716563)scale(0.22 -0.22)">
       <use xlink:href="#DejaVuSans-33"/>
       <use x="63.623047" xlink:href="#DejaVuSans-36"/>
      </g>
     </g>
    </g>
    <g id="xtick_5">
     <g id="line2d_5">
      <g>
       <use style="stroke:#000000;stroke-width:0.8;" x="648" xlink:href="#m8337b1fb88" y="378"/>
      </g>
     </g>
     <g id="text_5">
      <!-- 48 -->
      <defs>
       <path d="M 31.78125 34.625 
Q 24.75 34.625 20.71875 30.859375 
Q 16.703125 27.09375 16.703125 20.515625 
Q 16.703125 13.921875 20.71875 10.15625 
Q 24.75 6.390625 31.78125 6.390625 
Q 38.8125 6.390625 42.859375 10.171875 
Q 46.921875 13.96875 46.921875 20.515625 
Q 46.921875 27.09375 42.890625 30.859375 
Q 38.875 34.625 31.78125 34.625 
z
M 21.921875 38.8125 
Q 15.578125 40.375 12.03125 44.71875 
Q 8.5 49.078125 8.5 55.328125 
Q 8.5 64.0625 14.71875 69.140625 
Q 20.953125 74.21875 31.78125 74.21875 
Q 42.671875 74.21875 48.875 69.140625 
Q 55.078125 64.0625 55.078125 55.328125 
Q 55.078125 49.078125 51.53125 44.71875 
Q 48 40.375 41.703125 38.8125 
Q 48.828125 37.15625 52.796875 32.3125 
Q 56.78125 27.484375 56.78125 20.515625 
Q 56.78125 9.90625 50.3125 4.234375 
Q 43.84375 -1.421875 31.78125 -1.421875 
Q 19.734375 -1.421875 13.25 4.234375 
Q 6.78125 9.90625 6.78125 20.515625 
Q 6.78125 27.484375 10.78125 32.3125 
Q 14.796875 37.15625 21.921875 38.8125 
z
M 18.3125 54.390625 
Q 18.3125 48.734375 21.84375 45.5625 
Q 25.390625 42.390625 31.78125 42.390625 
Q 38.140625 42.390625 41.71875 45.5625 
Q 45.3125 48.734375 45.3125 54.390625 
Q 45.3125 60.0625 41.71875 63.234375 
Q 38.140625 66.40625 31.78125 66.40625 
Q 25.390625 66.40625 21.84375 63.234375 
Q 18.3125 60.0625 18.3125 54.390625 
z
" id="DejaVuSans-38"/>
      </defs>
      <g transform="translate(634.0025 401.716563)scale(0.22 -0.22)">
       <use xlink:href="#DejaVuSans-34"/>
       <use x="63.623047" xlink:href="#DejaVuSans-38"/>
      </g>
     </g>
    </g>
   </g>
   <g id="matplotlib.axis_2">
    <g id="ytick_1">
     <g id="line2d_6">
      <defs>
       <path d="M 0 0 
L -3.5 0 
" id="m3062f040a8" style="stroke:#000000;stroke-width:0.8;"/>
      </defs>
      <g>
       <use style="stroke:#000000;stroke-width:0.8;" x="90" xlink:href="#m3062f040a8" y="364.975057"/>
      </g>
     </g>
     <g id="text_6">
      <!-- 0.0 -->
      <defs>
       <path d="M 10.6875 12.40625 
L 21 12.40625 
L 21 0 
L 10.6875 0 
z
" id="DejaVuSans-2e"/>
      </defs>
      <g transform="translate(48.013125 373.333338)scale(0.22 -0.22)">
       <use xlink:href="#DejaVuSans-30"/>
       <use x="63.623047" xlink:href="#DejaVuSans-2e"/>
       <use x="95.410156" xlink:href="#DejaVuSans-30"/>
      </g>
     </g>
    </g>
    <g id="ytick_2">
     <g id="line2d_7">
      <g>
       <use style="stroke:#000000;stroke-width:0.8;" x="90" xlink:href="#m3062f040a8" y="318.280485"/>
      </g>
     </g>
     <g id="text_7">
      <!-- 0.2 -->
      <g transform="translate(48.013125 326.638766)scale(0.22 -0.22)">
       <use xlink:href="#DejaVuSans-30"/>
       <use x="63.623047" xlink:href="#DejaVuSans-2e"/>
       <use x="95.410156" xlink:href="#DejaVuSans-32"/>
      </g>
     </g>
    </g>
    <g id="ytick_3">
     <g id="line2d_8">
      <g>
       <use style="stroke:#000000;stroke-width:0.8;" x="90" xlink:href="#m3062f040a8" y="271.585912"/>
      </g>
     </g>
     <g id="text_8">
      <!-- 0.4 -->
      <g transform="translate(48.013125 279.944194)scale(0.22 -0.22)">
       <use xlink:href="#DejaVuSans-30"/>
       <use x="63.623047" xlink:href="#DejaVuSans-2e"/>
       <use x="95.410156" xlink:href="#DejaVuSans-34"/>
      </g>
     </g>
    </g>
    <g id="ytick_4">
     <g id="line2d_9">
      <g>
       <use style="stroke:#000000;stroke-width:0.8;" x="90" xlink:href="#m3062f040a8" y="224.89134"/>
      </g>
     </g>
     <g id="text_9">
      <!-- 0.6 -->
      <g transform="translate(48.013125 233.249621)scale(0.22 -0.22)">
       <use xlink:href="#DejaVuSans-30"/>
       <use x="63.623047" xlink:href="#DejaVuSans-2e"/>
       <use x="95.410156" xlink:href="#DejaVuSans-36"/>
      </g>
     </g>
    </g>
    <g id="ytick_5">
     <g id="line2d_10">
      <g>
       <use style="stroke:#000000;stroke-width:0.8;" x="90" xlink:href="#m3062f040a8" y="178.196768"/>
      </g>
     </g>
     <g id="text_10">
      <!-- 0.8 -->
      <g transform="translate(48.013125 186.555049)scale(0.22 -0.22)">
       <use xlink:href="#DejaVuSans-30"/>
       <use x="63.623047" xlink:href="#DejaVuSans-2e"/>
       <use x="95.410156" xlink:href="#DejaVuSans-38"/>
      </g>
     </g>
    </g>
    <g id="ytick_6">
     <g id="line2d_11">
      <g>
       <use style="stroke:#000000;stroke-width:0.8;" x="90" xlink:href="#m3062f040a8" y="131.502195"/>
      </g>
     </g>
     <g id="text_11">
      <!-- 1.0 -->
      <g transform="translate(48.013125 139.860477)scale(0.22 -0.22)">
       <use xlink:href="#DejaVuSans-31"/>
       <use x="63.623047" xlink:href="#DejaVuSans-2e"/>
       <use x="95.410156" xlink:href="#DejaVuSans-30"/>
      </g>
     </g>
    </g>
    <g id="ytick_7">
     <g id="line2d_12">
      <g>
       <use style="stroke:#000000;stroke-width:0.8;" x="90" xlink:href="#m3062f040a8" y="84.807623"/>
      </g>
     </g>
     <g id="text_12">
      <!-- 1.2 -->
      <g transform="translate(48.013125 93.165904)scale(0.22 -0.22)">
       <use xlink:href="#DejaVuSans-31"/>
       <use x="63.623047" xlink:href="#DejaVuSans-2e"/>
       <use x="95.410156" xlink:href="#DejaVuSans-32"/>
      </g>
     </g>
    </g>
   </g>
   <g id="line2d_13">
    <path clip-path="url(#p1e94fa5d7e)" d="M 90 119.527362 
L 91.395465 97.649044 
L 92.79093 82.688852 
L 94.186395 73.305385 
L 95.581861 68.283356 
L 96.977326 66.665455 
L 98.372791 67.720201 
L 99.768256 70.883253 
L 101.163721 75.710251 
L 102.559186 81.844385 
L 103.954652 88.994735 
L 106.745582 105.425901 
L 110.931977 132.880427 
L 117.909303 179.180429 
L 120.700233 196.520148 
L 123.491164 212.828088 
L 126.282094 227.999945 
L 129.073024 241.993757 
L 131.863955 254.811427 
L 134.654885 266.484951 
L 137.445815 277.066188 
L 140.236746 286.619306 
L 143.027676 295.215252 
L 145.818606 302.927846 
L 148.609537 309.830953 
L 151.400467 315.996523 
L 154.191397 321.493337 
L 156.982327 326.386188 
L 159.773258 330.735436 
L 162.564188 334.596819 
L 165.355118 338.021432 
L 168.146049 341.055842 
L 170.936979 343.742282 
L 173.727909 346.118897 
L 176.51884 348.220019 
L 179.30977 350.076461 
L 182.1007 351.715804 
L 184.891631 353.162683 
L 189.078026 355.019504 
L 193.264421 356.556315 
L 197.450817 357.826846 
L 201.637212 358.875957 
L 207.219073 359.994011 
L 212.800934 360.855801 
L 219.778259 361.656572 
L 226.755585 362.225945 
L 229.546516 362.399885 
L 235.128376 362.235692 
L 242.105702 361.751967 
L 249.083028 361.040398 
L 256.060353 360.104708 
L 261.642214 359.156602 
L 267.224075 357.976684 
L 271.41047 356.89824 
L 275.596866 355.613002 
L 279.783261 354.075621 
L 283.969657 352.231561 
L 286.760587 350.800138 
L 289.551517 349.181519 
L 292.342447 347.350929 
L 295.133378 345.280849 
L 297.924308 342.940858 
L 300.715238 340.297541 
L 303.506169 337.31445 
L 306.297099 333.952179 
L 309.088029 330.168579 
L 311.87896 325.919162 
L 314.66989 321.157772 
L 317.46082 315.837547 
L 320.251751 309.912343 
L 323.042681 303.338676 
L 325.833611 296.078054 
L 328.624542 288.100247 
L 331.415472 279.387339 
L 334.206402 269.938222 
L 336.997332 259.77368 
L 339.788263 248.941785 
L 343.974658 231.628026 
L 349.556519 207.260072 
L 355.138379 182.822786 
L 359.324775 165.561483 
L 362.115705 155.006167 
L 364.906636 145.459254 
L 367.697566 137.091661 
L 369.093031 131.782848 
L 370.488496 108.295989 
L 371.883961 91.945633 
L 373.279426 81.412973 
L 374.674892 75.443222 
L 376.070357 73.03281 
L 377.465822 73.413677 
L 378.861287 75.995288 
L 380.256752 80.314794 
L 381.652217 86.002076 
L 383.047683 92.756339 
L 384.443148 100.330268 
L 387.234078 117.151935 
L 391.420473 144.409589 
L 397.002334 180.64618 
L 399.793264 197.742709 
L 402.584195 213.848957 
L 405.375125 228.852995 
L 408.166055 242.706786 
L 410.956986 255.407343 
L 413.747916 266.982701 
L 416.538846 277.481493 
L 419.329777 286.965266 
L 422.120707 295.50281 
L 424.911637 303.166155 
L 427.702568 310.027698 
L 430.493498 316.158168 
L 433.284428 321.625325 
L 436.075358 326.493113 
L 438.866289 330.821181 
L 441.657219 334.664666 
L 444.448149 338.074158 
L 447.23908 341.0958 
L 450.03001 343.771464 
L 452.82094 346.13899 
L 455.611871 348.232453 
L 458.402801 350.082444 
L 461.193731 351.716358 
L 463.984662 353.158672 
L 468.171057 355.009975 
L 472.357452 356.542537 
L 476.543848 357.809792 
L 480.730243 358.856369 
L 486.312104 359.971884 
L 491.893965 360.831799 
L 498.87129 361.630794 
L 505.848616 362.19871 
L 508.639547 362.365766 
L 514.221407 362.190457 
L 521.198733 361.686972 
L 528.176059 360.948773 
L 535.153384 359.977279 
L 540.735245 358.9913 
L 546.317106 357.762172 
L 550.503501 356.63708 
L 554.689897 355.294609 
L 558.876292 353.686955 
L 563.062688 351.756684 
L 565.853618 350.25727 
L 568.644548 348.560937 
L 571.435478 346.641668 
L 574.226409 344.470599 
L 577.017339 342.015881 
L 579.808269 339.2426 
L 582.5992 336.112767 
L 585.39013 332.585444 
L 588.18106 328.617052 
L 590.971991 324.161841 
L 593.762921 319.172642 
L 596.553851 313.602075 
L 599.344782 307.404177 
L 602.135712 300.53637 
L 604.926642 292.962333 
L 607.717573 284.655695 
L 610.508503 275.604189 
L 613.299433 265.81447 
L 616.090363 255.317553 
L 620.276759 238.388381 
L 624.463154 220.365656 
L 635.626876 171.568037 
L 638.417806 160.438805 
L 641.208736 150.206282 
L 643.999667 141.066717 
L 646.790597 133.174437 
L 648.186062 126.565139 
L 648.186062 126.565139 
" style="fill:none;stroke:#000000;stroke-linecap:square;stroke-width:3;"/>
   </g>
   <g id="line2d_14">
    <path clip-path="url(#p1e94fa5d7e)" d="M 90 239.050632 
L 92.79093 222.597202 
L 98.372791 187.744648 
L 101.163721 171.989082 
L 103.954652 158.182445 
L 105.350117 152.096266 
L 106.745582 146.576891 
L 108.141047 141.629774 
L 109.536512 137.253494 
L 110.931977 133.441075 
L 112.327442 130.181068 
L 113.722908 127.458469 
L 115.118373 125.255484 
L 116.513838 123.552174 
L 117.909303 122.326998 
L 119.304768 121.557272 
L 120.700233 121.219556 
L 122.095699 121.28997 
L 123.491164 121.744471 
L 124.886629 122.559069 
L 126.282094 123.710014 
L 127.677559 125.173948 
L 129.073024 126.928023 
L 130.468489 128.949998 
L 131.863955 131.218313 
L 134.654885 136.411465 
L 137.445815 142.350454 
L 140.236746 148.891437 
L 144.423141 159.549847 
L 148.609537 170.886855 
L 166.750584 221.082463 
L 170.936979 231.860089 
L 175.123374 242.096899 
L 179.30977 251.738598 
L 183.496165 260.755308 
L 187.682561 269.137287 
L 191.868956 276.890839 
L 196.055352 284.034493 
L 200.241747 290.595548 
L 204.428143 296.607081 
L 208.614538 302.105466 
L 212.800934 307.128417 
L 216.987329 311.713523 
L 221.173725 315.897215 
L 225.36012 319.71408 
L 229.546516 323.197804 
L 233.732911 326.470042 
L 237.919306 329.413808 
L 242.105702 332.054718 
L 246.292097 334.416946 
L 250.478493 336.52232 
L 254.664888 338.389621 
L 258.851284 340.034221 
L 263.037679 341.467923 
L 267.224075 342.698859 
L 271.41047 343.731361 
L 275.596866 344.565767 
L 279.783261 345.198157 
L 283.969657 345.619983 
L 288.156052 345.817619 
L 292.342447 345.771819 
L 296.528843 345.457116 
L 300.715238 344.841183 
L 303.506169 344.243884 
L 306.297099 343.481444 
L 309.088029 342.538511 
L 311.87896 341.39811 
L 314.66989 340.041694 
L 317.46082 338.449239 
L 320.251751 336.599439 
L 323.042681 334.470007 
L 325.833611 332.038069 
L 328.624542 329.280741 
L 331.415472 326.175906 
L 334.206402 322.703144 
L 336.997332 318.844855 
L 339.788263 314.587583 
L 342.579193 309.923477 
L 345.370123 304.851818 
L 348.161054 299.380486 
L 350.951984 293.527224 
L 355.138379 284.09659 
L 359.324775 274.015972 
L 364.906636 259.905663 
L 369.093031 248.886528 
L 370.488496 241.157659 
L 373.279426 224.022432 
L 377.465822 197.953941 
L 380.256752 182.055063 
L 383.047683 168.041248 
L 384.443148 161.833631 
L 385.838613 156.183337 
L 387.234078 151.097298 
L 388.629543 146.575362 
L 390.025008 142.611653 
L 391.420473 139.195687 
L 392.815939 136.31331 
L 394.211404 133.947475 
L 395.606869 132.078905 
L 397.002334 130.686648 
L 398.397799 129.748548 
L 399.793264 129.241622 
L 401.18873 129.142401 
L 402.584195 129.427203 
L 403.97966 130.072363 
L 405.375125 131.054415 
L 406.77059 132.35025 
L 408.166055 133.937242 
L 409.561521 135.793344 
L 410.956986 137.897166 
L 413.747916 142.766056 
L 416.538846 148.387869 
L 419.329777 154.619497 
L 422.120707 161.331022 
L 426.307102 172.045804 
L 433.284428 190.822267 
L 441.657219 213.426046 
L 447.23908 227.868962 
L 451.425475 238.16992 
L 455.611871 247.931586 
L 459.798266 257.108179 
L 463.984662 265.676654 
L 468.171057 273.632452 
L 472.357452 280.985483 
L 476.543848 287.756442 
L 480.730243 293.973551 
L 484.916639 299.6698 
L 489.103034 304.880704 
L 493.28943 309.642574 
L 497.475825 313.991258 
L 501.662221 317.961262 
L 505.848616 321.585193 
L 511.430477 326.00379 
L 515.616872 328.9942 
L 519.803268 331.67882 
L 523.989663 334.081474 
L 528.176059 336.224035 
L 532.362454 338.125575 
L 536.54885 339.801878 
L 540.735245 341.265205 
L 544.921641 342.524154 
L 549.108036 343.583519 
L 553.294431 344.444099 
L 557.480827 345.102422 
L 561.667222 345.550386 
L 565.853618 345.774803 
L 570.040013 345.756861 
L 574.226409 345.471511 
L 578.412804 344.886819 
L 581.203735 344.311571 
L 583.994665 343.572257 
L 586.785595 342.653594 
L 589.576526 341.53867 
L 592.367456 340.20894 
L 595.158386 338.644344 
L 597.949316 336.823501 
L 600.740247 334.723981 
L 603.531177 332.322678 
L 606.322107 329.596405 
L 609.113038 326.522644 
L 611.903968 323.080464 
L 614.694898 319.251637 
L 617.485829 315.021964 
L 620.276759 310.382752 
L 623.067689 305.332356 
L 625.85862 299.877682 
L 628.64955 294.035502 
L 632.835945 284.609074 
L 637.022341 274.515639 
L 642.604201 260.359639 
L 646.790597 249.528277 
L 648.186062 245.430057 
L 648.186062 245.430057 
" style="fill:none;stroke:#e8175d;stroke-linecap:square;stroke-width:3;"/>
   </g>
   <g id="line2d_15">
    <path clip-path="url(#p1e94fa5d7e)" d="M 90 345.25636 
L 92.79093 343.567027 
L 95.581861 341.626334 
L 99.768256 338.352492 
L 105.350117 333.624973 
L 115.118373 325.343563 
L 120.700233 320.960012 
L 124.886629 317.925495 
L 129.073024 315.138829 
L 133.25942 312.619661 
L 137.445815 310.383044 
L 141.632211 308.441045 
L 145.818606 306.80361 
L 150.005002 305.47887 
L 154.191397 304.473026 
L 158.377793 303.789899 
L 162.564188 303.430253 
L 166.750584 303.391031 
L 170.936979 303.664634 
L 175.123374 304.238422 
L 179.30977 305.094555 
L 183.496165 306.210264 
L 187.682561 307.558551 
L 191.868956 309.109248 
L 197.450817 311.436163 
L 204.428143 314.653398 
L 214.196399 319.48213 
L 230.941981 327.827644 
L 239.314772 331.763936 
L 247.687563 335.437362 
L 254.664888 338.266576 
L 261.642214 340.873519 
L 268.61954 343.25677 
L 275.596866 345.420423 
L 282.574191 347.371542 
L 289.551517 349.118007 
L 296.528843 350.666401 
L 303.506169 352.01953 
L 310.483494 353.173014 
L 317.46082 354.110249 
L 324.438146 354.795175 
L 330.020007 355.119295 
L 335.601867 355.191905 
L 339.788263 355.043042 
L 343.974658 354.685515 
L 348.161054 354.087692 
L 352.347449 353.221645 
L 356.533845 352.067995 
L 360.72024 350.620281 
L 364.906636 348.887501 
L 369.093031 346.893877 
L 371.883961 345.338844 
L 374.674892 343.506247 
L 377.465822 341.440873 
L 381.652217 338.047635 
L 398.397799 324.026884 
L 402.584195 320.877933 
L 406.77059 317.966186 
L 410.956986 315.315703 
L 415.143381 312.944436 
L 419.329777 310.866339 
L 423.516172 309.092581 
L 427.702568 307.632094 
L 431.888963 306.491632 
L 436.075358 305.675452 
L 440.261754 305.184743 
L 444.448149 305.016924 
L 448.634545 305.164967 
L 452.82094 305.616893 
L 457.007336 306.35559 
L 461.193731 307.35903 
L 465.380127 308.600907 
L 469.566522 310.051635 
L 475.148383 312.255986 
L 480.730243 314.698725 
L 489.103034 318.649577 
L 514.221407 330.765336 
L 522.594198 334.475232 
L 529.571524 337.353566 
L 536.54885 340.019659 
L 543.526175 342.467529 
L 550.503501 344.698239 
L 557.480827 346.717075 
L 564.458153 348.531212 
L 571.435478 350.147594 
L 578.412804 351.570658 
L 585.39013 352.799388 
L 592.367456 353.823057 
L 599.344782 354.614944 
L 604.926642 355.048223 
L 610.508503 355.259713 
L 614.694898 355.239123 
L 618.881294 355.032788 
L 623.067689 354.608752 
L 627.254085 353.935601 
L 631.44048 352.986935 
L 635.626876 351.746288 
L 639.813271 350.211185 
L 643.999667 348.395021 
L 648.186062 346.325767 
L 648.186062 346.325767 
" style="fill:none;stroke:#0000ff;stroke-linecap:square;stroke-width:3;"/>
   </g>
   <g id="line2d_16">
    <path clip-path="url(#p1e94fa5d7e)" d="M 369 346.66346 
L 403.875 310.269161 
L 438.75 303.173417 
L 473.625 334.532027 
L 508.5 345.742387 
L 543.375 353.072519 
L 578.25 352.614729 
L 613.125 349.639095 
" style="fill:none;stroke:#1f77b4;stroke-dasharray:11.1,4.8;stroke-dashoffset:0;stroke-width:3;"/>
    <defs>
     <path d="M 0 3 
C 0.795609 3 1.55874 2.683901 2.12132 2.12132 
C 2.683901 1.55874 3 0.795609 3 0 
C 3 -0.795609 2.683901 -1.55874 2.12132 -2.12132 
C 1.55874 -2.683901 0.795609 -3 0 -3 
C -0.795609 -3 -1.55874 -2.683901 -2.12132 -2.12132 
C -2.683901 -1.55874 -3 -0.795609 -3 0 
C -3 0.795609 -2.683901 1.55874 -2.12132 2.12132 
C -1.55874 2.683901 -0.795609 3 0 3 
z
" id="m7538760f8b" style="stroke:#1f77b4;"/>
    </defs>
    <g clip-path="url(#p1e94fa5d7e)">
     <use style="fill:#1f77b4;stroke:#1f77b4;" x="369" xlink:href="#m7538760f8b" y="346.66346"/>
     <use style="fill:#1f77b4;stroke:#1f77b4;" x="403.875" xlink:href="#m7538760f8b" y="310.269161"/>
     <use style="fill:#1f77b4;stroke:#1f77b4;" x="438.75" xlink:href="#m7538760f8b" y="303.173417"/>
     <use style="fill:#1f77b4;stroke:#1f77b4;" x="473.625" xlink:href="#m7538760f8b" y="334.532027"/>
     <use style="fill:#1f77b4;stroke:#1f77b4;" x="508.5" xlink:href="#m7538760f8b" y="345.742387"/>
     <use style="fill:#1f77b4;stroke:#1f77b4;" x="543.375" xlink:href="#m7538760f8b" y="353.072519"/>
     <use style="fill:#1f77b4;stroke:#1f77b4;" x="578.25" xlink:href="#m7538760f8b" y="352.614729"/>
     <use style="fill:#1f77b4;stroke:#1f77b4;" x="613.125" xlink:href="#m7538760f8b" y="349.639095"/>
    </g>
   </g>
   <g id="patch_5">
    <path d="M 90 378 
L 90 51.84 
" style="fill:none;stroke:#000000;stroke-linecap:square;stroke-linejoin:miter;stroke-width:0.8;"/>
   </g>
   <g id="patch_6">
    <path d="M 648 378 
L 648 51.84 
" style="fill:none;stroke:#000000;stroke-linecap:square;stroke-linejoin:miter;stroke-width:0.8;"/>
   </g>
   <g id="patch_7">
    <path d="M 90 378 
L 648 378 
" style="fill:none;stroke:#000000;stroke-linecap:square;stroke-linejoin:miter;stroke-width:0.8;"/>
   </g>
   <g id="patch_8">
    <path d="M 90 51.84 
L 648 51.84 
" style="fill:none;stroke:#000000;stroke-linecap:square;stroke-linejoin:miter;stroke-width:0.8;"/>
   </g>
   <g id="text_13">
    <!-- 0.6 -->
    <g transform="translate(375.977326 73.13398)scale(0.2 -0.2)">
     <use xlink:href="#DejaVuSans-30"/>
     <use x="63.623047" xlink:href="#DejaVuSans-2e"/>
     <use x="95.410156" xlink:href="#DejaVuSans-36"/>
    </g>
   </g>
   <g id="text_14">
    <!-- 2.6 -->
    <g style="fill:#e8175d;" transform="translate(399.700233 119.828552)scale(0.2 -0.2)">
     <use xlink:href="#DejaVuSans-32"/>
     <use x="63.623047" xlink:href="#DejaVuSans-2e"/>
     <use x="95.410156" xlink:href="#DejaVuSans-36"/>
    </g>
   </g>
   <g id="text_15">
    <!-- 6.5 -->
    <defs>
     <path d="M 10.796875 72.90625 
L 49.515625 72.90625 
L 49.515625 64.59375 
L 19.828125 64.59375 
L 19.828125 46.734375 
Q 21.96875 47.46875 24.109375 47.828125 
Q 26.265625 48.1875 28.421875 48.1875 
Q 40.625 48.1875 47.75 41.5 
Q 54.890625 34.8125 54.890625 23.390625 
Q 54.890625 11.625 47.5625 5.09375 
Q 40.234375 -1.421875 26.90625 -1.421875 
Q 22.3125 -1.421875 17.546875 -0.640625 
Q 12.796875 0.140625 7.71875 1.703125 
L 7.71875 11.625 
Q 12.109375 9.234375 16.796875 8.0625 
Q 21.484375 6.890625 26.703125 6.890625 
Q 35.15625 6.890625 40.078125 11.328125 
Q 45.015625 15.765625 45.015625 23.390625 
Q 45.015625 31 40.078125 35.4375 
Q 35.15625 39.890625 26.703125 39.890625 
Q 22.75 39.890625 18.8125 39.015625 
Q 14.890625 38.140625 10.796875 36.28125 
z
" id="DejaVuSans-35"/>
    </defs>
    <g style="fill:#0000ff;" transform="translate(444.355118 301.937385)scale(0.2 -0.2)">
     <use xlink:href="#DejaVuSans-36"/>
     <use x="63.623047" xlink:href="#DejaVuSans-2e"/>
     <use x="95.410156" xlink:href="#DejaVuSans-35"/>
    </g>
   </g>
  </g>
 </g>
 <defs>
  <clipPath id="p1e94fa5d7e">
   <rect height="326.16" width="558" x="90" y="51.84"/>
  </clipPath>
 </defs>
</svg>
