<?xml version="1.0" encoding="utf-8" standalone="no"?>
<!DOCTYPE svg PUBLIC "-//W3C//DTD SVG 1.1//EN"
  "http://www.w3.org/Graphics/SVG/1.1/DTD/svg11.dtd">
<!-- Created with matplotlib (http://matplotlib.org/) -->
<svg height="432pt" version="1.1" viewBox="0 0 648 432" width="648pt" xmlns="http://www.w3.org/2000/svg" xmlns:xlink="http://www.w3.org/1999/xlink">
 <defs>
  <style type="text/css">
*{stroke-linecap:butt;stroke-linejoin:round;}
  </style>
 </defs>
 <g id="figure_1">
  <g id="patch_1">
   <path d="M 0 432 
L 648 432 
L 648 0 
L 0 0 
z
" style="fill:none;"/>
  </g>
  <g id="axes_1">
   <g id="patch_2">
    <path d="M 81 378 
L 583.2 378 
L 583.2 51.84 
L 81 51.84 
z
" style="fill:none;"/>
   </g>
   <g id="patch_3">
    <path clip-path="url(#p136c2208a0)" d="M 131.22 378 
L 131.22 51.84 
L 181.44 51.84 
L 181.44 378 
z
" style="fill:#808080;opacity:0.6;stroke:#808080;stroke-linejoin:miter;"/>
   </g>
   <g id="patch_4">
    <path clip-path="url(#p136c2208a0)" d="M 231.66 378 
L 231.66 51.84 
L 281.88 51.84 
L 281.88 378 
z
" style="fill:#808080;opacity:0.2;stroke:#808080;stroke-linejoin:miter;"/>
   </g>
   <g id="patch_5">
    <path clip-path="url(#p136c2208a0)" d="M 332.1 378 
L 332.1 51.84 
L 382.32 51.84 
L 382.32 378 
z
" style="fill:#808080;opacity:0.2;stroke:#808080;stroke-linejoin:miter;"/>
   </g>
   <g id="patch_6">
    <path clip-path="url(#p136c2208a0)" d="M 432.54 378 
L 432.54 51.84 
L 482.76 51.84 
L 482.76 378 
z
" style="fill:#808080;opacity:0.2;stroke:#808080;stroke-linejoin:miter;"/>
   </g>
   <g id="patch_7">
    <path clip-path="url(#p136c2208a0)" d="M 532.98 378 
L 532.98 51.84 
L 583.2 51.84 
L 583.2 378 
z
" style="fill:#808080;opacity:0.2;stroke:#808080;stroke-linejoin:miter;"/>
   </g>
   <g id="matplotlib.axis_1">
    <g id="xtick_1">
     <g id="line2d_1">
      <defs>
       <path d="M 0 0 
L 0 3.5 
" id="m2768f5e823" style="stroke:#000000;stroke-width:0.8;"/>
      </defs>
      <g>
       <use style="stroke:#000000;stroke-width:0.8;" x="181.44" xlink:href="#m2768f5e823" y="378"/>
      </g>
     </g>
     <g id="text_1">
      <!-- 0 -->
      <defs>
       <path d="M 31.78125 66.40625 
Q 24.171875 66.40625 20.328125 58.90625 
Q 16.5 51.421875 16.5 36.375 
Q 16.5 21.390625 20.328125 13.890625 
Q 24.171875 6.390625 31.78125 6.390625 
Q 39.453125 6.390625 43.28125 13.890625 
Q 47.125 21.390625 47.125 36.375 
Q 47.125 51.421875 43.28125 58.90625 
Q 39.453125 66.40625 31.78125 66.40625 
z
M 31.78125 74.21875 
Q 44.046875 74.21875 50.515625 64.515625 
Q 56.984375 54.828125 56.984375 36.375 
Q 56.984375 17.96875 50.515625 8.265625 
Q 44.046875 -1.421875 31.78125 -1.421875 
Q 19.53125 -1.421875 13.0625 8.265625 
Q 6.59375 17.96875 6.59375 36.375 
Q 6.59375 54.828125 13.0625 64.515625 
Q 19.53125 74.21875 31.78125 74.21875 
z
" id="DejaVuSans-30"/>
      </defs>
      <g transform="translate(174.44125 401.716563)scale(0.22 -0.22)">
       <use xlink:href="#DejaVuSans-30"/>
      </g>
     </g>
    </g>
    <g id="xtick_2">
     <g id="line2d_2">
      <g>
       <use style="stroke:#000000;stroke-width:0.8;" x="281.88" xlink:href="#m2768f5e823" y="378"/>
      </g>
     </g>
     <g id="text_2">
      <!-- 24 -->
      <defs>
       <path d="M 19.1875 8.296875 
L 53.609375 8.296875 
L 53.609375 0 
L 7.328125 0 
L 7.328125 8.296875 
Q 12.9375 14.109375 22.625 23.890625 
Q 32.328125 33.6875 34.8125 36.53125 
Q 39.546875 41.84375 41.421875 45.53125 
Q 43.3125 49.21875 43.3125 52.78125 
Q 43.3125 58.59375 39.234375 62.25 
Q 35.15625 65.921875 28.609375 65.921875 
Q 23.96875 65.921875 18.8125 64.3125 
Q 13.671875 62.703125 7.8125 59.421875 
L 7.8125 69.390625 
Q 13.765625 71.78125 18.9375 73 
Q 24.125 74.21875 28.421875 74.21875 
Q 39.75 74.21875 46.484375 68.546875 
Q 53.21875 62.890625 53.21875 53.421875 
Q 53.21875 48.921875 51.53125 44.890625 
Q 49.859375 40.875 45.40625 35.40625 
Q 44.1875 33.984375 37.640625 27.21875 
Q 31.109375 20.453125 19.1875 8.296875 
z
" id="DejaVuSans-32"/>
       <path d="M 37.796875 64.3125 
L 12.890625 25.390625 
L 37.796875 25.390625 
z
M 35.203125 72.90625 
L 47.609375 72.90625 
L 47.609375 25.390625 
L 58.015625 25.390625 
L 58.015625 17.1875 
L 47.609375 17.1875 
L 47.609375 0 
L 37.796875 0 
L 37.796875 17.1875 
L 4.890625 17.1875 
L 4.890625 26.703125 
z
" id="DejaVuSans-34"/>
      </defs>
      <g transform="translate(267.8825 401.716563)scale(0.22 -0.22)">
       <use xlink:href="#DejaVuSans-32"/>
       <use x="63.623047" xlink:href="#DejaVuSans-34"/>
      </g>
     </g>
    </g>
    <g id="xtick_3">
     <g id="line2d_3">
      <g>
       <use style="stroke:#000000;stroke-width:0.8;" x="382.32" xlink:href="#m2768f5e823" y="378"/>
      </g>
     </g>
     <g id="text_3">
      <!-- 48 -->
      <defs>
       <path d="M 31.78125 34.625 
Q 24.75 34.625 20.71875 30.859375 
Q 16.703125 27.09375 16.703125 20.515625 
Q 16.703125 13.921875 20.71875 10.15625 
Q 24.75 6.390625 31.78125 6.390625 
Q 38.8125 6.390625 42.859375 10.171875 
Q 46.921875 13.96875 46.921875 20.515625 
Q 46.921875 27.09375 42.890625 30.859375 
Q 38.875 34.625 31.78125 34.625 
z
M 21.921875 38.8125 
Q 15.578125 40.375 12.03125 44.71875 
Q 8.5 49.078125 8.5 55.328125 
Q 8.5 64.0625 14.71875 69.140625 
Q 20.953125 74.21875 31.78125 74.21875 
Q 42.671875 74.21875 48.875 69.140625 
Q 55.078125 64.0625 55.078125 55.328125 
Q 55.078125 49.078125 51.53125 44.71875 
Q 48 40.375 41.703125 38.8125 
Q 48.828125 37.15625 52.796875 32.3125 
Q 56.78125 27.484375 56.78125 20.515625 
Q 56.78125 9.90625 50.3125 4.234375 
Q 43.84375 -1.421875 31.78125 -1.421875 
Q 19.734375 -1.421875 13.25 4.234375 
Q 6.78125 9.90625 6.78125 20.515625 
Q 6.78125 27.484375 10.78125 32.3125 
Q 14.796875 37.15625 21.921875 38.8125 
z
M 18.3125 54.390625 
Q 18.3125 48.734375 21.84375 45.5625 
Q 25.390625 42.390625 31.78125 42.390625 
Q 38.140625 42.390625 41.71875 45.5625 
Q 45.3125 48.734375 45.3125 54.390625 
Q 45.3125 60.0625 41.71875 63.234375 
Q 38.140625 66.40625 31.78125 66.40625 
Q 25.390625 66.40625 21.84375 63.234375 
Q 18.3125 60.0625 18.3125 54.390625 
z
" id="DejaVuSans-38"/>
      </defs>
      <g transform="translate(368.3225 401.716563)scale(0.22 -0.22)">
       <use xlink:href="#DejaVuSans-34"/>
       <use x="63.623047" xlink:href="#DejaVuSans-38"/>
      </g>
     </g>
    </g>
    <g id="xtick_4">
     <g id="line2d_4">
      <g>
       <use style="stroke:#000000;stroke-width:0.8;" x="482.76" xlink:href="#m2768f5e823" y="378"/>
      </g>
     </g>
     <g id="text_4">
      <!-- 72 -->
      <defs>
       <path d="M 8.203125 72.90625 
L 55.078125 72.90625 
L 55.078125 68.703125 
L 28.609375 0 
L 18.3125 0 
L 43.21875 64.59375 
L 8.203125 64.59375 
z
" id="DejaVuSans-37"/>
      </defs>
      <g transform="translate(468.7625 401.716563)scale(0.22 -0.22)">
       <use xlink:href="#DejaVuSans-37"/>
       <use x="63.623047" xlink:href="#DejaVuSans-32"/>
      </g>
     </g>
    </g>
   </g>
   <g id="matplotlib.axis_2">
    <g id="ytick_1">
     <g id="line2d_5">
      <defs>
       <path d="M 0 0 
L -3.5 0 
" id="ma61dc756c2" style="stroke:#000000;stroke-width:0.8;"/>
      </defs>
      <g>
       <use style="stroke:#000000;stroke-width:0.8;" x="81" xlink:href="#ma61dc756c2" y="364.695265"/>
      </g>
     </g>
     <g id="text_5">
      <!-- 0.0 -->
      <defs>
       <path d="M 10.6875 12.40625 
L 21 12.40625 
L 21 0 
L 10.6875 0 
z
" id="DejaVuSans-2e"/>
      </defs>
      <g transform="translate(39.013125 373.053546)scale(0.22 -0.22)">
       <use xlink:href="#DejaVuSans-30"/>
       <use x="63.623047" xlink:href="#DejaVuSans-2e"/>
       <use x="95.410156" xlink:href="#DejaVuSans-30"/>
      </g>
     </g>
    </g>
    <g id="ytick_2">
     <g id="line2d_6">
      <g>
       <use style="stroke:#000000;stroke-width:0.8;" x="81" xlink:href="#ma61dc756c2" y="320.879184"/>
      </g>
     </g>
     <g id="text_6">
      <!-- 0.2 -->
      <g transform="translate(39.013125 329.237465)scale(0.22 -0.22)">
       <use xlink:href="#DejaVuSans-30"/>
       <use x="63.623047" xlink:href="#DejaVuSans-2e"/>
       <use x="95.410156" xlink:href="#DejaVuSans-32"/>
      </g>
     </g>
    </g>
    <g id="ytick_3">
     <g id="line2d_7">
      <g>
       <use style="stroke:#000000;stroke-width:0.8;" x="81" xlink:href="#ma61dc756c2" y="277.063103"/>
      </g>
     </g>
     <g id="text_7">
      <!-- 0.4 -->
      <g transform="translate(39.013125 285.421384)scale(0.22 -0.22)">
       <use xlink:href="#DejaVuSans-30"/>
       <use x="63.623047" xlink:href="#DejaVuSans-2e"/>
       <use x="95.410156" xlink:href="#DejaVuSans-34"/>
      </g>
     </g>
    </g>
    <g id="ytick_4">
     <g id="line2d_8">
      <g>
       <use style="stroke:#000000;stroke-width:0.8;" x="81" xlink:href="#ma61dc756c2" y="233.247022"/>
      </g>
     </g>
     <g id="text_8">
      <!-- 0.6 -->
      <defs>
       <path d="M 33.015625 40.375 
Q 26.375 40.375 22.484375 35.828125 
Q 18.609375 31.296875 18.609375 23.390625 
Q 18.609375 15.53125 22.484375 10.953125 
Q 26.375 6.390625 33.015625 6.390625 
Q 39.65625 6.390625 43.53125 10.953125 
Q 47.40625 15.53125 47.40625 23.390625 
Q 47.40625 31.296875 43.53125 35.828125 
Q 39.65625 40.375 33.015625 40.375 
z
M 52.59375 71.296875 
L 52.59375 62.3125 
Q 48.875 64.0625 45.09375 64.984375 
Q 41.3125 65.921875 37.59375 65.921875 
Q 27.828125 65.921875 22.671875 59.328125 
Q 17.53125 52.734375 16.796875 39.40625 
Q 19.671875 43.65625 24.015625 45.921875 
Q 28.375 48.1875 33.59375 48.1875 
Q 44.578125 48.1875 50.953125 41.515625 
Q 57.328125 34.859375 57.328125 23.390625 
Q 57.328125 12.15625 50.6875 5.359375 
Q 44.046875 -1.421875 33.015625 -1.421875 
Q 20.359375 -1.421875 13.671875 8.265625 
Q 6.984375 17.96875 6.984375 36.375 
Q 6.984375 53.65625 15.1875 63.9375 
Q 23.390625 74.21875 37.203125 74.21875 
Q 40.921875 74.21875 44.703125 73.484375 
Q 48.484375 72.75 52.59375 71.296875 
z
" id="DejaVuSans-36"/>
      </defs>
      <g transform="translate(39.013125 241.605303)scale(0.22 -0.22)">
       <use xlink:href="#DejaVuSans-30"/>
       <use x="63.623047" xlink:href="#DejaVuSans-2e"/>
       <use x="95.410156" xlink:href="#DejaVuSans-36"/>
      </g>
     </g>
    </g>
    <g id="ytick_5">
     <g id="line2d_9">
      <g>
       <use style="stroke:#000000;stroke-width:0.8;" x="81" xlink:href="#ma61dc756c2" y="189.430941"/>
      </g>
     </g>
     <g id="text_9">
      <!-- 0.8 -->
      <g transform="translate(39.013125 197.789223)scale(0.22 -0.22)">
       <use xlink:href="#DejaVuSans-30"/>
       <use x="63.623047" xlink:href="#DejaVuSans-2e"/>
       <use x="95.410156" xlink:href="#DejaVuSans-38"/>
      </g>
     </g>
    </g>
    <g id="ytick_6">
     <g id="line2d_10">
      <g>
       <use style="stroke:#000000;stroke-width:0.8;" x="81" xlink:href="#ma61dc756c2" y="145.61486"/>
      </g>
     </g>
     <g id="text_10">
      <!-- 1.0 -->
      <defs>
       <path d="M 12.40625 8.296875 
L 28.515625 8.296875 
L 28.515625 63.921875 
L 10.984375 60.40625 
L 10.984375 69.390625 
L 28.421875 72.90625 
L 38.28125 72.90625 
L 38.28125 8.296875 
L 54.390625 8.296875 
L 54.390625 0 
L 12.40625 0 
z
" id="DejaVuSans-31"/>
      </defs>
      <g transform="translate(39.013125 153.973142)scale(0.22 -0.22)">
       <use xlink:href="#DejaVuSans-31"/>
       <use x="63.623047" xlink:href="#DejaVuSans-2e"/>
       <use x="95.410156" xlink:href="#DejaVuSans-30"/>
      </g>
     </g>
    </g>
    <g id="ytick_7">
     <g id="line2d_11">
      <g>
       <use style="stroke:#000000;stroke-width:0.8;" x="81" xlink:href="#ma61dc756c2" y="101.79878"/>
      </g>
     </g>
     <g id="text_11">
      <!-- 1.2 -->
      <g transform="translate(39.013125 110.157061)scale(0.22 -0.22)">
       <use xlink:href="#DejaVuSans-31"/>
       <use x="63.623047" xlink:href="#DejaVuSans-2e"/>
       <use x="95.410156" xlink:href="#DejaVuSans-32"/>
      </g>
     </g>
    </g>
    <g id="ytick_8">
     <g id="line2d_12">
      <g>
       <use style="stroke:#000000;stroke-width:0.8;" x="81" xlink:href="#ma61dc756c2" y="57.982699"/>
      </g>
     </g>
     <g id="text_12">
      <!-- 1.4 -->
      <g transform="translate(39.013125 66.34098)scale(0.22 -0.22)">
       <use xlink:href="#DejaVuSans-31"/>
       <use x="63.623047" xlink:href="#DejaVuSans-2e"/>
       <use x="95.410156" xlink:href="#DejaVuSans-34"/>
      </g>
     </g>
    </g>
   </g>
   <g id="line2d_13">
    <path clip-path="url(#p136c2208a0)" d="M 80.832544 146.318695 
L 81.837279 111.92874 
L 82.339647 100.206579 
L 82.842014 93.18141 
L 83.344381 89.819485 
L 83.846749 89.323548 
L 84.349116 91.083483 
L 84.851484 94.624692 
L 85.353851 99.570305 
L 86.358586 112.511109 
L 87.865689 136.403075 
L 92.386996 212.01274 
L 94.396465 240.679536 
L 95.903568 259.34261 
L 97.41067 275.608277 
L 98.917773 289.631387 
L 100.424875 301.620628 
L 101.931977 311.80428 
L 103.43908 320.409632 
L 104.946182 327.651189 
L 106.453284 333.724661 
L 107.960387 338.804517 
L 109.467489 343.043722 
L 110.974592 346.574736 
L 112.481694 349.511188 
L 113.988796 351.949838 
L 115.495899 353.972599 
L 117.003001 355.648497 
L 118.510103 357.035479 
L 120.017206 358.182035 
L 122.026676 359.405749 
L 124.036145 360.350972 
L 126.045615 361.078452 
L 128.557452 361.752672 
L 131.06929 362.229766 
L 132.576392 362.171827 
L 134.585862 361.876979 
L 137.097699 361.29022 
L 139.609537 360.49536 
L 142.121374 359.459395 
L 144.130844 358.403402 
L 146.140313 357.07962 
L 147.647416 355.862665 
L 149.154518 354.406356 
L 150.661621 352.658759 
L 152.168723 350.557852 
L 153.675825 348.030138 
L 155.182928 344.989301 
L 156.69003 341.335124 
L 158.197132 336.952923 
L 159.704235 331.713989 
L 161.211337 325.477702 
L 162.718439 318.095913 
L 164.225542 309.42134 
L 165.732644 299.32046 
L 167.239747 287.693408 
L 168.746849 274.501624 
L 170.756319 254.594818 
L 173.268156 226.799183 
L 177.287096 181.254556 
L 178.794198 166.162269 
L 180.3013 153.246903 
L 181.306035 146.098052 
L 182.31077 110.974764 
L 182.813138 99.602971 
L 183.315505 92.851576 
L 183.817873 89.703289 
L 184.32024 89.375106 
L 184.822608 91.267419 
L 185.324975 94.913168 
L 186.32971 106.050306 
L 187.334445 120.570603 
L 189.343915 154.19548 
L 192.358119 204.734346 
L 194.367589 234.372441 
L 195.874692 253.79789 
L 197.381794 270.796656 
L 198.888896 285.496815 
L 200.395999 298.094803 
L 201.903101 308.815518 
L 203.410203 317.888176 
L 204.917306 325.532116 
L 206.424408 331.949296 
L 207.931511 337.320902 
L 209.438613 341.806527 
L 210.945715 345.544854 
L 212.452818 348.655169 
L 213.95992 351.239262 
L 215.467022 353.383452 
L 216.974125 355.160573 
L 218.481227 356.631833 
L 219.988329 357.848504 
L 221.997799 359.147679 
L 224.007269 360.15189 
L 226.016739 360.925502 
L 228.528576 361.64359 
L 231.542781 362.235049 
L 235.059353 362.663431 
L 239.078293 362.919724 
L 244.101967 363.004697 
L 249.628009 362.864051 
L 254.149316 362.548793 
L 258.168256 362.049049 
L 261.182461 361.469511 
L 263.694298 360.792204 
L 266.206135 359.870389 
L 268.215605 358.898931 
L 270.225075 357.657366 
L 271.732177 356.506045 
L 273.23928 355.126092 
L 274.746382 353.475734 
L 276.253484 351.5078 
L 277.760587 349.170246 
L 279.267689 346.407475 
L 280.774792 343.16284 
L 282.281894 339.382848 
L 283.788996 335.023594 
L 285.296099 330.0596 
L 287.305569 322.516437 
L 289.315038 314.063623 
L 294.84108 290.082855 
L 296.348183 284.956955 
L 297.352918 282.266268 
L 298.357653 280.264703 
L 299.362387 279.012721 
L 299.864755 278.677364 
L 300.367122 278.536371 
L 300.86949 278.587452 
L 301.371857 278.826268 
L 301.874225 279.246562 
L 302.87896 280.598441 
L 303.883695 282.563998 
L 304.888429 285.049496 
L 306.395532 289.532761 
L 308.405002 296.409006 
L 314.433411 317.673823 
L 316.442881 323.85115 
L 318.452351 329.348476 
L 320.461821 334.157165 
L 322.47129 338.3114 
L 324.48076 341.868921 
L 326.49023 344.89765 
L 328.4997 347.466263 
L 330.50917 349.638216 
L 332.51864 351.46925 
L 334.528109 353.00734 
L 336.537579 354.293619 
L 339.049416 355.600614 
L 341.561254 356.626821 
L 344.073091 357.4193 
L 347.087296 358.113505 
L 350.101501 358.571177 
L 353.115705 358.821047 
L 356.12991 358.87372 
L 359.144115 358.720862 
L 362.158319 358.333281 
L 364.670157 357.793194 
L 367.181994 357.006616 
L 369.191464 356.156997 
L 371.200934 355.065408 
L 373.210403 353.678675 
L 374.717506 352.406946 
L 376.224608 350.902707 
L 377.731711 349.132181 
L 379.238813 347.059362 
L 380.745915 344.647329 
L 382.253018 341.860346 
L 383.76012 338.667054 
L 385.267222 335.045038 
L 387.276692 329.53934 
L 389.286162 323.31192 
L 392.300367 313.014987 
L 395.314572 302.694373 
L 396.821674 298.108161 
L 398.328776 294.264256 
L 399.333511 292.237144 
L 400.338246 290.70755 
L 401.342981 289.7155 
L 401.845348 289.428053 
L 402.347716 289.280731 
L 402.850083 289.272689 
L 403.352451 289.401813 
L 403.854818 289.664785 
L 404.859553 290.57366 
L 405.864288 291.953088 
L 406.869023 293.745487 
L 408.376125 297.066582 
L 410.385595 302.325751 
L 414.404535 313.939222 
L 417.41874 322.300885 
L 419.930577 328.542267 
L 421.940047 332.961832 
L 423.949517 336.861174 
L 425.958986 340.263521 
L 427.968456 343.20991 
L 429.977926 345.749749 
L 431.987396 347.933373 
L 433.996866 349.80694 
L 436.006335 351.410399 
L 438.015805 352.777629 
L 440.527643 354.198038 
L 443.03948 355.341847 
L 445.551317 356.248782 
L 448.565522 357.06976 
L 451.579727 357.638951 
L 454.593931 357.984017 
L 457.608136 358.116419 
L 460.622341 358.029856 
L 463.636546 357.698013 
L 466.148383 357.199014 
L 468.66022 356.451745 
L 470.66969 355.634886 
L 472.67916 354.57999 
L 474.68863 353.237102 
L 476.195732 352.005307 
L 477.702834 350.549247 
L 479.209937 348.837475 
L 480.717039 346.836644 
L 482.224141 344.512792 
L 483.731244 341.833348 
L 485.238346 338.770113 
L 486.745448 335.303477 
L 488.754918 330.047403 
L 490.764388 324.117174 
L 493.778593 314.328658 
L 497.295165 302.973959 
L 498.802267 298.774361 
L 500.30937 295.330217 
L 501.314105 293.561469 
L 502.31884 292.272423 
L 503.323575 291.494151 
L 503.825942 291.301175 
L 504.328309 291.239043 
L 504.830677 291.306333 
L 505.333044 291.500513 
L 506.337779 292.254363 
L 507.342514 293.461468 
L 508.347249 295.071368 
L 509.854351 298.113877 
L 511.361454 301.724932 
L 513.873291 308.469737 
L 518.896966 322.167347 
L 521.408803 328.268314 
L 523.418273 332.617727 
L 525.427743 336.475111 
L 527.437212 339.856377 
L 529.446682 342.796633 
L 531.456152 345.3408 
L 533.465622 347.536037 
L 535.475092 349.426291 
L 537.484562 351.049821 
L 539.996399 352.753222 
L 542.508236 354.143573 
L 545.020073 355.265229 
L 547.531911 356.155309 
L 550.546115 356.960157 
L 553.56032 357.51493 
L 556.574525 357.844727 
L 559.58873 357.958566 
L 562.602934 357.847607 
L 565.114772 357.563086 
L 567.626609 357.073282 
L 570.138446 356.335067 
L 572.147916 355.525996 
L 574.157386 354.480058 
L 576.166856 353.148094 
L 578.176325 351.471238 
L 579.683428 349.946589 
L 581.19053 348.158173 
L 582.697633 346.072916 
L 583.2 345.306111 
L 583.2 345.306111 
" style="fill:none;stroke:#3459a4;stroke-linecap:square;stroke-width:3;"/>
   </g>
   <g id="line2d_14">
    <path clip-path="url(#p136c2208a0)" d="M 80.832544 131.833817 
L 81.837279 99.187653 
L 82.339647 88.446014 
L 82.842014 82.312907 
L 83.344381 79.750952 
L 83.846749 79.974289 
L 84.349116 82.385512 
L 84.851484 86.520591 
L 85.856219 98.557916 
L 86.860954 113.886049 
L 88.870423 148.888392 
L 91.884628 200.997965 
L 93.894098 231.416954 
L 95.4012 251.315485 
L 96.908303 268.706534 
L 98.415405 283.730399 
L 99.922508 296.594469 
L 101.42961 307.533132 
L 102.936712 316.783685 
L 104.443815 324.572352 
L 105.950917 331.106898 
L 107.458019 336.573364 
L 108.965122 341.135379 
L 110.472224 344.934954 
L 111.979326 348.094102 
L 113.486429 350.71683 
L 114.993531 352.891255 
L 116.500634 354.691656 
L 118.007736 356.180397 
L 119.514838 357.409666 
L 121.524308 358.719264 
L 123.533778 359.727752 
L 125.543248 360.50037 
L 128.055085 361.210644 
L 131.06929 361.783862 
L 132.074025 361.718345 
L 133.581127 361.39568 
L 135.590597 360.697354 
L 137.600067 359.77222 
L 139.609537 358.645495 
L 141.619006 357.294689 
L 143.628476 355.67067 
L 145.637946 353.706268 
L 147.145048 351.959577 
L 148.652151 349.931521 
L 150.159253 347.571439 
L 151.666355 344.819249 
L 153.173458 341.603635 
L 154.68056 337.84035 
L 156.187663 333.430916 
L 157.694765 328.262187 
L 159.201867 322.207378 
L 160.70897 315.129349 
L 162.216072 306.887213 
L 163.723174 297.347549 
L 165.230277 286.401516 
L 166.737379 273.98865 
L 168.746849 255.202279 
L 170.756319 234.212367 
L 177.287096 163.093341 
L 178.794198 149.498283 
L 180.3013 138.011832 
L 181.306035 131.646558 
L 182.31077 98.309735 
L 182.813138 87.912669 
L 183.315505 82.046361 
L 183.817873 79.691691 
L 184.32024 80.077372 
L 184.822608 82.616397 
L 185.324975 86.8521 
L 186.32971 99.029192 
L 187.836812 122.872163 
L 193.362854 217.253237 
L 194.869957 238.784692 
L 196.377059 257.781877 
L 197.884161 274.310479 
L 199.391264 288.540457 
L 200.898366 300.692435 
L 202.405468 311.003955 
L 203.912571 319.709584 
L 205.419673 327.029564 
L 206.926776 333.164148 
L 208.433878 338.291391 
L 209.94098 342.567089 
L 211.448083 346.125927 
L 212.955185 349.083277 
L 214.462287 351.537255 
L 215.96939 353.570825 
L 217.476492 355.253819 
L 218.983595 356.644792 
L 220.490697 357.792696 
L 222.500167 359.014651 
L 224.509637 359.954516 
L 226.519106 360.673322 
L 229.030944 361.332183 
L 232.045148 361.860635 
L 235.561721 362.219725 
L 239.58066 362.395577 
L 244.604335 362.375186 
L 250.130377 362.130245 
L 255.656419 361.682621 
L 260.680093 361.064449 
L 264.699033 360.348344 
L 267.713238 359.607835 
L 270.225075 358.795225 
L 272.736912 357.735686 
L 274.746382 356.651471 
L 276.755852 355.294043 
L 278.262954 354.053286 
L 279.770057 352.581405 
L 281.277159 350.836533 
L 282.784261 348.771749 
L 284.291364 346.335745 
L 285.798466 343.474299 
L 287.305569 340.132953 
L 288.812671 336.261392 
L 290.319773 331.820186 
L 291.826876 326.790519 
L 293.836345 319.201611 
L 296.348183 308.587963 
L 300.367122 291.348574 
L 301.874225 285.913868 
L 302.87896 282.917312 
L 303.883695 280.539057 
L 304.888429 278.852869 
L 305.390797 278.284075 
L 305.893164 277.901846 
L 306.395532 277.706303 
L 306.897899 277.695513 
L 307.400267 277.865587 
L 307.902634 278.210818 
L 308.405002 278.723937 
L 309.409737 280.218137 
L 310.414471 282.266939 
L 311.419206 284.778765 
L 312.926309 289.207614 
L 314.935779 295.878946 
L 320.461821 314.651526 
L 322.47129 320.705208 
L 324.48076 326.133732 
L 326.49023 330.916118 
L 328.4997 335.073848 
L 330.50917 338.652941 
L 332.51864 341.712015 
L 334.528109 344.314733 
L 336.537579 346.525037 
L 338.547049 348.403334 
L 340.556519 350.002697 
L 343.068356 351.674469 
L 345.580193 353.040802 
L 348.092031 354.14855 
L 350.603868 355.034249 
L 353.618073 355.845999 
L 356.632277 356.424105 
L 360.14885 356.848266 
L 363.665422 357.03858 
L 367.181994 357.013616 
L 370.698566 356.768565 
L 373.712771 356.358706 
L 376.726976 355.720909 
L 379.238813 354.968728 
L 381.75065 353.960016 
L 383.76012 352.921995 
L 385.76959 351.630505 
L 387.77906 350.031506 
L 389.78853 348.061642 
L 391.295632 346.298116 
L 392.802734 344.253827 
L 394.309837 341.896706 
L 395.816939 339.196984 
L 397.324041 336.130487 
L 399.333511 331.449115 
L 401.342981 326.106347 
L 403.854818 318.652224 
L 409.38086 301.789209 
L 410.887963 298.01305 
L 411.892698 295.907929 
L 412.897432 294.197963 
L 413.902167 292.926104 
L 414.906902 292.120527 
L 415.911637 291.793016 
L 416.414005 291.807661 
L 417.41874 292.183354 
L 418.423474 292.996883 
L 419.428209 294.209389 
L 420.432944 295.773518 
L 421.940047 298.66359 
L 423.949517 303.247685 
L 426.963721 310.888533 
L 430.982661 320.969911 
L 433.494498 326.649543 
L 435.503968 330.72321 
L 437.513438 334.357345 
L 439.522908 337.561659 
L 441.532377 340.363515 
L 443.541847 342.800998 
L 445.551317 344.917683 
L 447.560787 346.757772 
L 450.072624 348.728683 
L 452.584461 350.389152 
L 455.096299 351.781477 
L 457.608136 352.936543 
L 460.119973 353.879564 
L 463.134178 354.762613 
L 466.148383 355.406751 
L 469.162588 355.840619 
L 472.67916 356.108524 
L 476.195732 356.134582 
L 479.712304 355.911703 
L 482.726509 355.495882 
L 485.238346 354.958686 
L 487.750183 354.20851 
L 490.262021 353.194243 
L 492.27149 352.148276 
L 494.28096 350.84805 
L 496.29043 349.242596 
L 498.2999 347.27287 
L 499.807002 345.517281 
L 501.314105 343.491197 
L 502.821207 341.166543 
L 504.328309 338.518324 
L 506.337779 334.453246 
L 508.347249 329.768708 
L 510.356719 324.509795 
L 513.370924 315.856252 
L 516.887496 305.760344 
L 518.394598 301.954216 
L 519.901701 298.748577 
L 520.906435 297.034673 
L 521.91117 295.709681 
L 522.915905 294.803432 
L 523.92064 294.331904 
L 524.925375 294.296614 
L 525.93011 294.685116 
L 526.934845 295.472565 
L 527.93958 296.624026 
L 528.944315 298.097206 
L 530.451417 300.807162 
L 532.460887 305.099575 
L 535.475092 312.27016 
L 539.494031 321.789832 
L 542.005869 327.189558 
L 544.015338 331.081343 
L 546.024808 334.568328 
L 548.034278 337.656534 
L 550.043748 340.369415 
L 552.053218 342.741335 
L 554.062688 344.812307 
L 556.574525 347.039029 
L 559.086362 348.926051 
L 561.598199 350.522854 
L 564.110037 351.864031 
L 566.621874 352.975991 
L 569.636079 354.039719 
L 572.650283 354.841878 
L 575.664488 355.414046 
L 578.678693 355.781681 
L 582.195265 355.974284 
L 583.2 355.984116 
L 583.2 355.984116 
" style="fill:none;stroke:#af4794;stroke-linecap:square;stroke-width:3;"/>
   </g>
   <g id="line2d_15">
    <path clip-path="url(#p136c2208a0)" d="M 80.832544 175.806319 
L 82.339647 128.211588 
L 82.842014 119.900326 
L 83.344381 115.164371 
L 83.846749 113.281145 
L 84.349116 113.680768 
L 84.851484 115.909483 
L 85.353851 119.600615 
L 86.358586 130.220627 
L 87.363321 143.700523 
L 89.372791 174.485399 
L 92.386996 220.37922 
L 94.396465 247.202083 
L 95.903568 264.759985 
L 97.41067 280.112887 
L 98.917773 293.382008 
L 100.424875 304.748225 
L 101.931977 314.416849 
L 103.43908 322.596201 
L 104.946182 329.485193 
L 106.453284 335.266715 
L 107.960387 340.104709 
L 109.467489 344.143499 
L 110.974592 347.508455 
L 112.481694 350.307384 
L 113.988796 352.632265 
L 115.495899 354.561084 
L 117.003001 356.159633 
L 118.510103 357.483186 
L 120.519573 358.899019 
L 122.529043 359.996462 
L 124.538513 360.845213 
L 127.05035 361.637908 
L 129.562187 362.205778 
L 131.571657 362.480134 
L 133.581127 362.333495 
L 136.092964 361.915467 
L 138.604802 361.272006 
L 141.116639 360.386788 
L 143.126109 359.463695 
L 145.135579 358.296778 
L 147.145048 356.820431 
L 148.652151 355.460388 
L 150.159253 353.836181 
L 151.666355 351.896525 
L 153.173458 349.581097 
L 154.68056 346.819492 
L 156.187663 343.530387 
L 157.694765 339.621112 
L 159.201867 334.988012 
L 160.70897 329.51806 
L 162.216072 323.092405 
L 163.723174 315.59273 
L 165.230277 306.911515 
L 166.737379 296.967377 
L 168.244481 285.72656 
L 170.253951 268.808661 
L 172.765789 245.210899 
L 176.784728 206.633374 
L 178.291831 194.041786 
L 179.798933 183.549878 
L 180.803668 177.981765 
L 181.306035 175.664493 
L 182.31077 139.991751 
L 182.813138 127.531037 
L 183.315505 119.484004 
L 183.817873 114.958656 
L 184.32024 113.243745 
L 184.822608 113.778208 
L 185.324975 116.114892 
L 185.827342 119.892107 
L 186.832077 130.633223 
L 188.33918 151.599539 
L 193.865222 234.709218 
L 195.372324 253.701409 
L 196.879426 270.467145 
L 198.386529 285.061181 
L 199.893631 297.631107 
L 201.400734 308.36968 
L 202.907836 317.485188 
L 204.414938 325.183672 
L 205.922041 331.658875 
L 207.429143 337.087144 
L 208.936245 341.625436 
L 210.443348 345.411213 
L 211.95045 348.563416 
L 213.457553 351.184016 
L 214.964655 353.359805 
L 216.471757 355.164232 
L 217.97886 356.659166 
L 219.485962 357.896517 
L 221.495432 359.219612 
L 223.504902 360.244622 
L 225.514371 361.036777 
L 228.026209 361.775669 
L 231.040413 362.38895 
L 234.556986 362.837109 
L 238.575925 363.103123 
L 243.097232 363.170722 
L 247.61854 363.020934 
L 251.637479 362.679409 
L 255.154051 362.163336 
L 258.168256 361.49326 
L 260.680093 360.712415 
L 262.689563 359.894751 
L 264.699033 358.857384 
L 266.708503 357.544227 
L 268.215605 356.337672 
L 269.722708 354.904068 
L 271.22981 353.205839 
L 272.736912 351.202193 
L 274.244015 348.850497 
L 275.751117 346.108674 
L 277.258219 342.938826 
L 278.765322 339.312387 
L 280.272424 335.216969 
L 282.281894 329.052833 
L 284.793731 320.420926 
L 289.315038 304.371982 
L 290.822141 299.778589 
L 291.826876 297.175815 
L 292.831611 295.035001 
L 293.836345 293.423143 
L 294.84108 292.388578 
L 295.343448 292.096837 
L 295.845815 291.957226 
L 296.348183 291.969157 
L 296.85055 292.130512 
L 297.352918 292.43772 
L 298.357653 293.468921 
L 299.362387 295.009922 
L 300.367122 296.993872 
L 301.874225 300.634221 
L 303.883695 306.320579 
L 310.414471 325.73108 
L 312.423941 330.905795 
L 314.433411 335.502863 
L 316.442881 339.51773 
L 318.452351 342.980304 
L 320.461821 345.938312 
L 322.47129 348.446451 
L 324.48076 350.559845 
L 326.49023 352.33042 
L 328.4997 353.805087 
L 330.50917 355.025007 
L 332.51864 356.025449 
L 335.030477 357.011845 
L 337.542314 357.746952 
L 340.054151 358.264432 
L 342.565989 358.58662 
L 345.580193 358.731065 
L 348.092031 358.649571 
L 350.603868 358.372076 
L 353.115705 357.87396 
L 355.627543 357.116595 
L 357.637012 356.288044 
L 359.646482 355.223276 
L 361.655952 353.8791 
L 363.665422 352.205116 
L 365.172524 350.699348 
L 366.679627 348.950947 
L 368.186729 346.934384 
L 369.693831 344.625565 
L 371.703301 341.058261 
L 373.712771 336.908611 
L 375.722241 332.189133 
L 378.234078 325.610511 
L 384.262487 309.278353 
L 385.76959 305.954361 
L 386.774325 304.106791 
L 387.77906 302.613553 
L 388.783795 301.515624 
L 389.78853 300.841817 
L 390.793264 300.606778 
L 391.797999 300.810111 
L 392.802734 301.436744 
L 393.807469 302.458462 
L 394.812204 303.836301 
L 396.319306 306.467249 
L 397.826409 309.619372 
L 400.338246 315.560137 
L 405.361921 327.728477 
L 407.873758 333.162922 
L 409.883228 337.036565 
L 411.892698 340.470031 
L 413.902167 343.476521 
L 415.911637 346.085022 
L 417.921107 348.331713 
L 419.930577 350.254557 
L 421.940047 351.890237 
L 423.949517 353.27255 
L 425.958986 354.431674 
L 428.470824 355.606369 
L 430.982661 356.515709 
L 433.494498 357.192737 
L 436.006335 357.661085 
L 438.518173 357.935057 
L 441.03001 358.019509 
L 443.541847 357.909368 
L 446.053685 357.588679 
L 448.565522 357.02914 
L 450.574992 356.381564 
L 452.584461 355.525398 
L 454.593931 354.424913 
L 456.603401 353.03749 
L 458.612871 351.314109 
L 460.622341 349.200821 
L 462.129443 347.326325 
L 463.636546 345.178428 
L 465.646015 341.856138 
L 467.655485 337.984373 
L 469.664955 333.567518 
L 472.176792 327.37463 
L 479.209937 309.313274 
L 480.717039 306.319322 
L 481.721774 304.700235 
L 482.726509 303.434197 
L 483.731244 302.55474 
L 484.735979 302.083371 
L 485.740714 302.028165 
L 486.745448 302.383414 
L 487.750183 303.130369 
L 488.754918 304.238948 
L 489.759653 305.670111 
L 491.266756 308.321829 
L 493.276225 312.543732 
L 496.29043 319.597592 
L 499.807002 327.770663 
L 502.31884 333.076441 
L 504.328309 336.878524 
L 506.337779 340.262714 
L 508.347249 343.237433 
L 510.356719 345.827636 
L 512.366189 348.066216 
L 514.375659 349.98848 
L 516.385128 351.628961 
L 518.394598 353.019738 
L 520.906435 354.450613 
L 523.418273 355.584415 
L 525.93011 356.460429 
L 528.441947 357.108893 
L 530.953785 357.551041 
L 533.465622 357.799064 
L 535.977459 357.855854 
L 538.489296 357.714406 
L 541.001134 357.356738 
L 543.512971 356.752361 
L 545.522441 356.061688 
L 547.531911 355.15469 
L 549.54138 353.994503 
L 551.55085 352.537592 
L 553.56032 350.734483 
L 555.56979 348.531571 
L 557.076892 346.584293 
L 559.086362 343.554366 
L 561.095832 339.994589 
L 563.105302 335.891665 
L 565.114772 331.274622 
L 567.626609 324.928213 
L 572.650283 311.976772 
L 574.157386 308.657324 
L 575.664488 305.90933 
L 576.669223 304.474987 
L 577.673958 303.404378 
L 578.678693 302.724938 
L 579.683428 302.451658 
L 580.688163 302.586171 
L 581.692898 303.116927 
L 582.697633 304.020358 
L 583.2 304.601639 
L 583.2 304.601639 
" style="fill:none;stroke:#55328b;stroke-linecap:square;stroke-width:3;"/>
   </g>
   <g id="patch_8">
    <path d="M 81 378 
L 81 51.84 
" style="fill:none;stroke:#000000;stroke-linecap:square;stroke-linejoin:miter;stroke-width:0.8;"/>
   </g>
   <g id="patch_9">
    <path d="M 583.2 378 
L 583.2 51.84 
" style="fill:none;stroke:#000000;stroke-linecap:square;stroke-linejoin:miter;stroke-width:0.8;"/>
   </g>
   <g id="patch_10">
    <path d="M 81 378 
L 583.2 378 
" style="fill:none;stroke:#000000;stroke-linecap:square;stroke-linejoin:miter;stroke-width:0.8;"/>
   </g>
   <g id="patch_11">
    <path d="M 81 51.84 
L 583.2 51.84 
" style="fill:none;stroke:#000000;stroke-linecap:square;stroke-linejoin:miter;stroke-width:0.8;"/>
   </g>
  </g>
 </g>
 <defs>
  <clipPath id="p136c2208a0">
   <rect height="326.16" width="502.2" x="81" y="51.84"/>
  </clipPath>
 </defs>
</svg>
