<?xml version="1.0" encoding="utf-8" standalone="no"?>
<!DOCTYPE svg PUBLIC "-//W3C//DTD SVG 1.1//EN"
  "http://www.w3.org/Graphics/SVG/1.1/DTD/svg11.dtd">
<!-- Created with matplotlib (http://matplotlib.org/) -->
<svg height="432pt" version="1.1" viewBox="0 0 648 432" width="648pt" xmlns="http://www.w3.org/2000/svg" xmlns:xlink="http://www.w3.org/1999/xlink">
 <defs>
  <style type="text/css">
*{stroke-linecap:butt;stroke-linejoin:round;}
  </style>
 </defs>
 <g id="figure_1">
  <g id="patch_1">
   <path d="M 0 432 
L 648 432 
L 648 0 
L 0 0 
z
" style="fill:none;"/>
  </g>
  <g id="axes_1">
   <g id="patch_2">
    <path d="M 81 378 
L 583.2 378 
L 583.2 51.84 
L 81 51.84 
z
" style="fill:none;"/>
   </g>
   <g id="patch_3">
    <path clip-path="url(#pbfb8832a1d)" d="M 131.22 378 
L 131.22 51.84 
L 181.44 51.84 
L 181.44 378 
z
" style="fill:#808080;opacity:0.7;stroke:#808080;stroke-linejoin:miter;"/>
   </g>
   <g id="patch_4">
    <path clip-path="url(#pbfb8832a1d)" d="M 231.66 378 
L 231.66 51.84 
L 281.88 51.84 
L 281.88 378 
z
" style="fill:#808080;opacity:0.3;stroke:#808080;stroke-linejoin:miter;"/>
   </g>
   <g id="patch_5">
    <path clip-path="url(#pbfb8832a1d)" d="M 332.1 378 
L 332.1 51.84 
L 382.32 51.84 
L 382.32 378 
z
" style="fill:#808080;opacity:0.3;stroke:#808080;stroke-linejoin:miter;"/>
   </g>
   <g id="patch_6">
    <path clip-path="url(#pbfb8832a1d)" d="M 432.54 378 
L 432.54 51.84 
L 482.76 51.84 
L 482.76 378 
z
" style="fill:#808080;opacity:0.3;stroke:#808080;stroke-linejoin:miter;"/>
   </g>
   <g id="patch_7">
    <path clip-path="url(#pbfb8832a1d)" d="M 532.98 378 
L 532.98 51.84 
L 583.2 51.84 
L 583.2 378 
z
" style="fill:#808080;opacity:0.3;stroke:#808080;stroke-linejoin:miter;"/>
   </g>
   <g id="patch_8">
    <path clip-path="url(#pbfb8832a1d)" d="M 633.42 378 
L 633.42 51.84 
L 683.64 51.84 
L 683.64 378 
z
" style="fill:#808080;opacity:0.3;stroke:#808080;stroke-linejoin:miter;"/>
   </g>
   <g id="matplotlib.axis_1">
    <g id="xtick_1">
     <g id="line2d_1">
      <defs>
       <path d="M 0 0 
L 0 3.5 
" id="m12b738ba6e" style="stroke:#000000;stroke-width:0.8;"/>
      </defs>
      <g>
       <use style="stroke:#000000;stroke-width:0.8;" x="181.44" xlink:href="#m12b738ba6e" y="378"/>
      </g>
     </g>
     <g id="text_1">
      <!-- 0 -->
      <defs>
       <path d="M 31.78125 66.40625 
Q 24.171875 66.40625 20.328125 58.90625 
Q 16.5 51.421875 16.5 36.375 
Q 16.5 21.390625 20.328125 13.890625 
Q 24.171875 6.390625 31.78125 6.390625 
Q 39.453125 6.390625 43.28125 13.890625 
Q 47.125 21.390625 47.125 36.375 
Q 47.125 51.421875 43.28125 58.90625 
Q 39.453125 66.40625 31.78125 66.40625 
z
M 31.78125 74.21875 
Q 44.046875 74.21875 50.515625 64.515625 
Q 56.984375 54.828125 56.984375 36.375 
Q 56.984375 17.96875 50.515625 8.265625 
Q 44.046875 -1.421875 31.78125 -1.421875 
Q 19.53125 -1.421875 13.0625 8.265625 
Q 6.59375 17.96875 6.59375 36.375 
Q 6.59375 54.828125 13.0625 64.515625 
Q 19.53125 74.21875 31.78125 74.21875 
z
" id="DejaVuSans-30"/>
      </defs>
      <g transform="translate(174.44125 401.716563)scale(0.22 -0.22)">
       <use xlink:href="#DejaVuSans-30"/>
      </g>
     </g>
    </g>
    <g id="xtick_2">
     <g id="line2d_2">
      <g>
       <use style="stroke:#000000;stroke-width:0.8;" x="281.88" xlink:href="#m12b738ba6e" y="378"/>
      </g>
     </g>
     <g id="text_2">
      <!-- 24 -->
      <defs>
       <path d="M 19.1875 8.296875 
L 53.609375 8.296875 
L 53.609375 0 
L 7.328125 0 
L 7.328125 8.296875 
Q 12.9375 14.109375 22.625 23.890625 
Q 32.328125 33.6875 34.8125 36.53125 
Q 39.546875 41.84375 41.421875 45.53125 
Q 43.3125 49.21875 43.3125 52.78125 
Q 43.3125 58.59375 39.234375 62.25 
Q 35.15625 65.921875 28.609375 65.921875 
Q 23.96875 65.921875 18.8125 64.3125 
Q 13.671875 62.703125 7.8125 59.421875 
L 7.8125 69.390625 
Q 13.765625 71.78125 18.9375 73 
Q 24.125 74.21875 28.421875 74.21875 
Q 39.75 74.21875 46.484375 68.546875 
Q 53.21875 62.890625 53.21875 53.421875 
Q 53.21875 48.921875 51.53125 44.890625 
Q 49.859375 40.875 45.40625 35.40625 
Q 44.1875 33.984375 37.640625 27.21875 
Q 31.109375 20.453125 19.1875 8.296875 
z
" id="DejaVuSans-32"/>
       <path d="M 37.796875 64.3125 
L 12.890625 25.390625 
L 37.796875 25.390625 
z
M 35.203125 72.90625 
L 47.609375 72.90625 
L 47.609375 25.390625 
L 58.015625 25.390625 
L 58.015625 17.1875 
L 47.609375 17.1875 
L 47.609375 0 
L 37.796875 0 
L 37.796875 17.1875 
L 4.890625 17.1875 
L 4.890625 26.703125 
z
" id="DejaVuSans-34"/>
      </defs>
      <g transform="translate(267.8825 401.716563)scale(0.22 -0.22)">
       <use xlink:href="#DejaVuSans-32"/>
       <use x="63.623047" xlink:href="#DejaVuSans-34"/>
      </g>
     </g>
    </g>
    <g id="xtick_3">
     <g id="line2d_3">
      <g>
       <use style="stroke:#000000;stroke-width:0.8;" x="382.32" xlink:href="#m12b738ba6e" y="378"/>
      </g>
     </g>
     <g id="text_3">
      <!-- 48 -->
      <defs>
       <path d="M 31.78125 34.625 
Q 24.75 34.625 20.71875 30.859375 
Q 16.703125 27.09375 16.703125 20.515625 
Q 16.703125 13.921875 20.71875 10.15625 
Q 24.75 6.390625 31.78125 6.390625 
Q 38.8125 6.390625 42.859375 10.171875 
Q 46.921875 13.96875 46.921875 20.515625 
Q 46.921875 27.09375 42.890625 30.859375 
Q 38.875 34.625 31.78125 34.625 
z
M 21.921875 38.8125 
Q 15.578125 40.375 12.03125 44.71875 
Q 8.5 49.078125 8.5 55.328125 
Q 8.5 64.0625 14.71875 69.140625 
Q 20.953125 74.21875 31.78125 74.21875 
Q 42.671875 74.21875 48.875 69.140625 
Q 55.078125 64.0625 55.078125 55.328125 
Q 55.078125 49.078125 51.53125 44.71875 
Q 48 40.375 41.703125 38.8125 
Q 48.828125 37.15625 52.796875 32.3125 
Q 56.78125 27.484375 56.78125 20.515625 
Q 56.78125 9.90625 50.3125 4.234375 
Q 43.84375 -1.421875 31.78125 -1.421875 
Q 19.734375 -1.421875 13.25 4.234375 
Q 6.78125 9.90625 6.78125 20.515625 
Q 6.78125 27.484375 10.78125 32.3125 
Q 14.796875 37.15625 21.921875 38.8125 
z
M 18.3125 54.390625 
Q 18.3125 48.734375 21.84375 45.5625 
Q 25.390625 42.390625 31.78125 42.390625 
Q 38.140625 42.390625 41.71875 45.5625 
Q 45.3125 48.734375 45.3125 54.390625 
Q 45.3125 60.0625 41.71875 63.234375 
Q 38.140625 66.40625 31.78125 66.40625 
Q 25.390625 66.40625 21.84375 63.234375 
Q 18.3125 60.0625 18.3125 54.390625 
z
" id="DejaVuSans-38"/>
      </defs>
      <g transform="translate(368.3225 401.716563)scale(0.22 -0.22)">
       <use xlink:href="#DejaVuSans-34"/>
       <use x="63.623047" xlink:href="#DejaVuSans-38"/>
      </g>
     </g>
    </g>
    <g id="xtick_4">
     <g id="line2d_4">
      <g>
       <use style="stroke:#000000;stroke-width:0.8;" x="482.76" xlink:href="#m12b738ba6e" y="378"/>
      </g>
     </g>
     <g id="text_4">
      <!-- 72 -->
      <defs>
       <path d="M 8.203125 72.90625 
L 55.078125 72.90625 
L 55.078125 68.703125 
L 28.609375 0 
L 18.3125 0 
L 43.21875 64.59375 
L 8.203125 64.59375 
z
" id="DejaVuSans-37"/>
      </defs>
      <g transform="translate(468.7625 401.716563)scale(0.22 -0.22)">
       <use xlink:href="#DejaVuSans-37"/>
       <use x="63.623047" xlink:href="#DejaVuSans-32"/>
      </g>
     </g>
    </g>
   </g>
   <g id="matplotlib.axis_2">
    <g id="ytick_1">
     <g id="line2d_5">
      <defs>
       <path d="M 0 0 
L -3.5 0 
" id="m1bd8767ebc" style="stroke:#000000;stroke-width:0.8;"/>
      </defs>
      <g>
       <use style="stroke:#000000;stroke-width:0.8;" x="81" xlink:href="#m1bd8767ebc" y="364.159938"/>
      </g>
     </g>
     <g id="text_5">
      <!-- 0.0 -->
      <defs>
       <path d="M 10.6875 12.40625 
L 21 12.40625 
L 21 0 
L 10.6875 0 
z
" id="DejaVuSans-2e"/>
      </defs>
      <g transform="translate(39.013125 372.51822)scale(0.22 -0.22)">
       <use xlink:href="#DejaVuSans-30"/>
       <use x="63.623047" xlink:href="#DejaVuSans-2e"/>
       <use x="95.410156" xlink:href="#DejaVuSans-30"/>
      </g>
     </g>
    </g>
    <g id="ytick_2">
     <g id="line2d_6">
      <g>
       <use style="stroke:#000000;stroke-width:0.8;" x="81" xlink:href="#m1bd8767ebc" y="317.592957"/>
      </g>
     </g>
     <g id="text_6">
      <!-- 0.2 -->
      <g transform="translate(39.013125 325.951238)scale(0.22 -0.22)">
       <use xlink:href="#DejaVuSans-30"/>
       <use x="63.623047" xlink:href="#DejaVuSans-2e"/>
       <use x="95.410156" xlink:href="#DejaVuSans-32"/>
      </g>
     </g>
    </g>
    <g id="ytick_3">
     <g id="line2d_7">
      <g>
       <use style="stroke:#000000;stroke-width:0.8;" x="81" xlink:href="#m1bd8767ebc" y="271.025976"/>
      </g>
     </g>
     <g id="text_7">
      <!-- 0.4 -->
      <g transform="translate(39.013125 279.384257)scale(0.22 -0.22)">
       <use xlink:href="#DejaVuSans-30"/>
       <use x="63.623047" xlink:href="#DejaVuSans-2e"/>
       <use x="95.410156" xlink:href="#DejaVuSans-34"/>
      </g>
     </g>
    </g>
    <g id="ytick_4">
     <g id="line2d_8">
      <g>
       <use style="stroke:#000000;stroke-width:0.8;" x="81" xlink:href="#m1bd8767ebc" y="224.458994"/>
      </g>
     </g>
     <g id="text_8">
      <!-- 0.6 -->
      <defs>
       <path d="M 33.015625 40.375 
Q 26.375 40.375 22.484375 35.828125 
Q 18.609375 31.296875 18.609375 23.390625 
Q 18.609375 15.53125 22.484375 10.953125 
Q 26.375 6.390625 33.015625 6.390625 
Q 39.65625 6.390625 43.53125 10.953125 
Q 47.40625 15.53125 47.40625 23.390625 
Q 47.40625 31.296875 43.53125 35.828125 
Q 39.65625 40.375 33.015625 40.375 
z
M 52.59375 71.296875 
L 52.59375 62.3125 
Q 48.875 64.0625 45.09375 64.984375 
Q 41.3125 65.921875 37.59375 65.921875 
Q 27.828125 65.921875 22.671875 59.328125 
Q 17.53125 52.734375 16.796875 39.40625 
Q 19.671875 43.65625 24.015625 45.921875 
Q 28.375 48.1875 33.59375 48.1875 
Q 44.578125 48.1875 50.953125 41.515625 
Q 57.328125 34.859375 57.328125 23.390625 
Q 57.328125 12.15625 50.6875 5.359375 
Q 44.046875 -1.421875 33.015625 -1.421875 
Q 20.359375 -1.421875 13.671875 8.265625 
Q 6.984375 17.96875 6.984375 36.375 
Q 6.984375 53.65625 15.1875 63.9375 
Q 23.390625 74.21875 37.203125 74.21875 
Q 40.921875 74.21875 44.703125 73.484375 
Q 48.484375 72.75 52.59375 71.296875 
z
" id="DejaVuSans-36"/>
      </defs>
      <g transform="translate(39.013125 232.817276)scale(0.22 -0.22)">
       <use xlink:href="#DejaVuSans-30"/>
       <use x="63.623047" xlink:href="#DejaVuSans-2e"/>
       <use x="95.410156" xlink:href="#DejaVuSans-36"/>
      </g>
     </g>
    </g>
    <g id="ytick_5">
     <g id="line2d_9">
      <g>
       <use style="stroke:#000000;stroke-width:0.8;" x="81" xlink:href="#m1bd8767ebc" y="177.892013"/>
      </g>
     </g>
     <g id="text_9">
      <!-- 0.8 -->
      <g transform="translate(39.013125 186.250294)scale(0.22 -0.22)">
       <use xlink:href="#DejaVuSans-30"/>
       <use x="63.623047" xlink:href="#DejaVuSans-2e"/>
       <use x="95.410156" xlink:href="#DejaVuSans-38"/>
      </g>
     </g>
    </g>
    <g id="ytick_6">
     <g id="line2d_10">
      <g>
       <use style="stroke:#000000;stroke-width:0.8;" x="81" xlink:href="#m1bd8767ebc" y="131.325032"/>
      </g>
     </g>
     <g id="text_10">
      <!-- 1.0 -->
      <defs>
       <path d="M 12.40625 8.296875 
L 28.515625 8.296875 
L 28.515625 63.921875 
L 10.984375 60.40625 
L 10.984375 69.390625 
L 28.421875 72.90625 
L 38.28125 72.90625 
L 38.28125 8.296875 
L 54.390625 8.296875 
L 54.390625 0 
L 12.40625 0 
z
" id="DejaVuSans-31"/>
      </defs>
      <g transform="translate(39.013125 139.683313)scale(0.22 -0.22)">
       <use xlink:href="#DejaVuSans-31"/>
       <use x="63.623047" xlink:href="#DejaVuSans-2e"/>
       <use x="95.410156" xlink:href="#DejaVuSans-30"/>
      </g>
     </g>
    </g>
    <g id="ytick_7">
     <g id="line2d_11">
      <g>
       <use style="stroke:#000000;stroke-width:0.8;" x="81" xlink:href="#m1bd8767ebc" y="84.75805"/>
      </g>
     </g>
     <g id="text_11">
      <!-- 1.2 -->
      <g transform="translate(39.013125 93.116332)scale(0.22 -0.22)">
       <use xlink:href="#DejaVuSans-31"/>
       <use x="63.623047" xlink:href="#DejaVuSans-2e"/>
       <use x="95.410156" xlink:href="#DejaVuSans-32"/>
      </g>
     </g>
    </g>
   </g>
   <g id="line2d_12">
    <path clip-path="url(#pbfb8832a1d)" d="M 80.832544 132.070676 
L 81.837279 95.522055 
L 82.339647 83.064132 
L 82.842014 75.598063 
L 83.344381 72.025202 
L 83.846749 71.498247 
L 84.349116 73.368779 
L 84.851484 77.132408 
L 85.353851 82.388604 
L 86.358586 96.142015 
L 87.865689 121.534166 
L 92.386996 201.891171 
L 94.396465 232.357849 
L 95.903568 252.192702 
L 97.41067 269.479621 
L 98.917773 284.383179 
L 100.424875 297.12517 
L 101.931977 307.948206 
L 103.43908 317.093847 
L 104.946182 324.790066 
L 106.453284 331.244861 
L 107.960387 336.643656 
L 109.467489 341.149019 
L 110.974592 344.901728 
L 112.481694 348.022545 
L 113.988796 350.614304 
L 115.495899 352.764063 
L 117.003001 354.545183 
L 118.510103 356.019245 
L 120.017206 357.237788 
L 122.026676 358.538332 
L 124.036145 359.5429 
L 126.045615 360.316054 
L 128.557452 361.032605 
L 131.06929 361.539654 
L 132.576392 361.478078 
L 134.585862 361.164721 
L 137.097699 360.54113 
L 139.609537 359.696374 
L 142.121374 358.595377 
L 144.130844 357.473096 
L 146.140313 356.066216 
L 147.647416 354.77287 
L 149.154518 353.225146 
L 150.661621 351.367849 
L 152.168723 349.135066 
L 153.675825 346.448683 
L 155.182928 343.216969 
L 156.69003 339.333415 
L 158.197132 334.676139 
L 159.704235 329.10835 
L 161.211337 322.480604 
L 162.718439 314.635448 
L 164.225542 305.416357 
L 165.732644 294.681423 
L 167.239747 282.324506 
L 168.746849 268.304624 
L 170.756319 247.148163 
L 173.268156 217.607581 
L 177.287096 169.203524 
L 178.794198 153.163602 
L 180.3013 139.43723 
L 181.306035 131.839441 
L 182.31077 94.510847 
L 182.813138 82.425031 
L 183.315505 75.249705 
L 183.817873 71.90371 
L 184.32024 71.554879 
L 184.822608 73.565958 
L 185.324975 77.440564 
L 186.32971 89.276865 
L 187.334445 104.708739 
L 189.343915 140.444604 
L 192.358119 194.156365 
L 194.367589 225.655187 
L 195.874692 246.300199 
L 197.381794 264.366179 
L 198.888896 279.989242 
L 200.395999 293.378156 
L 201.903101 304.771938 
L 203.410203 314.414196 
L 204.917306 322.538038 
L 206.424408 329.358103 
L 207.931511 335.066949 
L 209.438613 339.834191 
L 210.945715 343.807219 
L 212.452818 347.112806 
L 213.95992 349.859134 
L 215.467022 352.137941 
L 216.974125 354.026633 
L 218.481227 355.590263 
L 219.988329 356.883319 
L 221.997799 358.264059 
L 224.007269 359.331317 
L 226.016739 360.153498 
L 228.528576 360.916669 
L 231.040413 361.4582 
L 234.054618 361.894968 
L 238.073558 362.224409 
L 242.594865 362.360208 
L 247.61854 362.297632 
L 252.642214 362.0159 
L 256.661154 361.57914 
L 260.177726 360.962871 
L 262.689563 360.32661 
L 265.2014 359.460521 
L 267.21087 358.547594 
L 269.22034 357.380214 
L 271.22981 355.889383 
L 272.736912 354.508428 
L 274.244015 352.855536 
L 275.751117 350.882455 
L 277.258219 348.535495 
L 278.765322 345.756601 
L 280.272424 342.48555 
L 281.779527 338.663723 
L 283.286629 334.24004 
L 284.793731 329.179657 
L 286.300834 323.475948 
L 288.310303 314.942724 
L 291.324508 300.789226 
L 293.836345 289.089364 
L 295.343448 282.911734 
L 296.348183 279.415439 
L 297.352918 276.55623 
L 298.357653 274.429406 
L 298.86002 273.66208 
L 299.362387 273.099131 
L 299.864755 272.742833 
L 300.367122 272.593076 
L 300.86949 272.647424 
L 301.371857 272.901251 
L 301.874225 273.347925 
L 302.87896 274.784612 
L 303.883695 276.87347 
L 304.888429 279.51487 
L 306.395532 284.279347 
L 308.405002 291.586961 
L 314.433411 314.186705 
L 316.442881 320.751889 
L 318.452351 326.594356 
L 320.461821 331.704927 
L 322.47129 336.119916 
L 324.48076 339.900733 
L 326.49023 343.119569 
L 328.4997 345.849408 
L 330.50917 348.157691 
L 332.51864 350.103658 
L 334.528109 351.738294 
L 336.537579 353.105312 
L 338.547049 354.242209 
L 341.058886 355.388162 
L 343.570724 356.276576 
L 346.082561 356.949034 
L 349.096766 357.514887 
L 352.11097 357.851839 
L 355.125175 357.97763 
L 358.13938 357.890271 
L 361.153585 357.566443 
L 363.665422 357.082352 
L 366.177259 356.358273 
L 368.186729 355.56607 
L 370.196199 354.540892 
L 372.205669 353.231686 
L 373.712771 352.026439 
L 375.219873 350.596293 
L 376.726976 348.907394 
L 378.234078 346.922947 
L 379.74118 344.604163 
L 381.248283 341.911927 
L 382.755385 338.809368 
L 384.262487 335.265707 
L 385.76959 331.261661 
L 387.77906 325.209544 
L 389.78853 318.42088 
L 393.305102 305.493402 
L 395.816939 296.571583 
L 397.324041 291.92887 
L 398.328776 289.306904 
L 399.333511 287.15256 
L 400.338246 285.526981 
L 401.342981 284.472705 
L 401.845348 284.167236 
L 402.347716 284.010692 
L 402.850083 284.002182 
L 403.352451 284.139436 
L 403.854818 284.41894 
L 404.859553 285.384927 
L 405.864288 286.850991 
L 406.869023 288.755945 
L 408.376125 292.285562 
L 410.385595 297.87491 
L 413.902167 308.67087 
L 416.916372 317.684047 
L 419.428209 324.476573 
L 421.437679 329.31227 
L 423.447149 333.593311 
L 425.456619 337.337771 
L 427.466089 340.585554 
L 429.475559 343.387761 
L 431.485028 345.798268 
L 433.494498 347.867584 
L 435.503968 349.639859 
L 437.513438 351.15262 
L 440.025275 352.726775 
L 442.537112 353.997548 
L 445.04895 355.008758 
L 447.560787 355.796492 
L 450.574992 356.486531 
L 453.589196 356.930422 
L 456.603401 357.146243 
L 459.617606 357.133808 
L 462.631811 356.87257 
L 465.143648 356.43383 
L 467.655485 355.751854 
L 469.664955 354.993449 
L 471.674425 354.004797 
L 473.683895 352.737916 
L 475.693364 351.134476 
L 477.200467 349.670032 
L 478.707569 347.945234 
L 480.214672 345.925199 
L 481.721774 343.573856 
L 483.228876 340.8558 
L 484.735979 337.739087 
L 486.243081 334.199246 
L 488.252551 328.804063 
L 490.262021 322.670364 
L 492.773858 314.177684 
L 497.295165 298.563291 
L 498.802267 294.100041 
L 500.30937 290.439765 
L 501.314105 288.560142 
L 502.31884 287.190384 
L 503.323575 286.363497 
L 503.825942 286.158515 
L 504.328309 286.092611 
L 504.830677 286.16421 
L 505.333044 286.370695 
L 506.337779 287.171995 
L 507.342514 288.454889 
L 508.347249 290.165768 
L 509.854351 293.399017 
L 511.361454 297.23647 
L 513.873291 304.404306 
L 518.896966 318.961708 
L 521.408803 325.445804 
L 523.418273 330.068363 
L 525.427743 334.167967 
L 527.437212 337.76152 
L 529.446682 340.886373 
L 531.456152 343.590276 
L 533.465622 345.923347 
L 535.475092 347.93228 
L 537.484562 349.657745 
L 539.494031 351.134302 
L 542.005869 352.674452 
L 544.517706 353.92026 
L 547.029543 354.912635 
L 549.54138 355.685362 
L 552.555585 356.359796 
L 555.56979 356.788058 
L 558.583995 356.985614 
L 561.598199 356.949638 
L 564.110037 356.725057 
L 566.621874 356.296383 
L 569.133711 355.62398 
L 571.143181 354.873493 
L 573.152651 353.893641 
L 575.162121 352.637202 
L 577.171591 351.046784 
L 578.678693 349.59448 
L 580.185795 347.884479 
L 581.692898 345.882543 
L 583.2 343.553311 
L 583.2 343.553311 
" style="fill:none;stroke:#3459a4;stroke-linecap:square;stroke-width:3;"/>
   </g>
   <g id="line2d_13">
    <path clip-path="url(#pbfb8832a1d)" d="M 80.832544 163.412963 
L 82.339647 112.829809 
L 82.842014 103.996673 
L 83.344381 98.963323 
L 83.846749 96.961814 
L 84.349116 97.386485 
L 84.851484 99.755088 
L 85.353851 103.677926 
L 86.358586 114.964637 
L 87.363321 129.290793 
L 89.372791 162.008359 
L 92.386996 210.783451 
L 94.396465 239.290297 
L 95.903568 257.950514 
L 97.41067 274.267299 
L 98.917773 288.369482 
L 100.424875 300.449292 
L 101.931977 310.724931 
L 103.43908 319.4178 
L 104.946182 326.739297 
L 106.453284 332.883795 
L 107.960387 338.025529 
L 109.467489 342.317882 
L 110.974592 345.894098 
L 112.481694 348.86875 
L 113.988796 351.339593 
L 115.495899 353.389507 
L 117.003001 355.088416 
L 118.510103 356.495066 
L 120.017206 357.658641 
L 122.026676 358.901907 
L 124.036145 359.864038 
L 126.045615 360.606461 
L 128.557452 361.297054 
L 131.06929 361.78777 
L 132.576392 361.752542 
L 134.585862 361.502381 
L 137.097699 360.960493 
L 139.609537 360.179046 
L 141.619006 359.356821 
L 143.628476 358.31657 
L 145.637946 357.001414 
L 147.145048 355.790675 
L 148.652151 354.345238 
L 150.159253 352.619052 
L 151.666355 350.557611 
L 153.173458 348.096802 
L 154.68056 345.161804 
L 156.187663 341.666183 
L 157.694765 337.511454 
L 159.201867 332.587453 
L 160.70897 326.774056 
L 162.216072 319.94495 
L 163.723174 311.97439 
L 165.230277 302.748103 
L 166.737379 292.179603 
L 168.244481 280.233011 
L 170.253951 262.2529 
L 172.765789 237.173545 
L 176.784728 196.174005 
L 178.291831 182.791917 
L 179.798933 171.641352 
L 180.803668 165.723702 
L 181.306035 163.26097 
L 182.31077 125.348653 
L 182.813138 112.105646 
L 183.315505 103.553418 
L 183.817873 98.743973 
L 184.32024 96.921409 
L 184.822608 97.48944 
L 185.324975 99.97284 
L 185.827342 103.987209 
L 186.832077 115.402701 
L 188.33918 137.685364 
L 193.865222 226.012955 
L 195.372324 246.197538 
L 196.879426 264.015881 
L 198.386529 279.526177 
L 199.893631 292.885283 
L 201.400734 304.298058 
L 202.907836 313.985867 
L 204.414938 322.167686 
L 205.922041 329.049422 
L 207.429143 334.818495 
L 208.936245 339.641716 
L 210.443348 343.665176 
L 211.95045 347.015284 
L 213.457553 349.800413 
L 214.964655 352.112805 
L 216.471757 354.03052 
L 217.97886 355.61931 
L 219.485962 356.934346 
L 221.495432 358.340509 
L 223.504902 359.429872 
L 225.514371 360.271761 
L 228.026209 361.057042 
L 230.538046 361.618175 
L 233.552251 362.074404 
L 237.068823 362.38898 
L 241.087763 362.536599 
L 245.60907 362.480472 
L 249.628009 362.228749 
L 253.144582 361.813525 
L 256.158786 361.260587 
L 258.670624 360.610425 
L 261.182461 359.728877 
L 263.191931 358.806423 
L 265.2014 357.636735 
L 267.21087 356.157027 
L 268.717973 354.798477 
L 270.225075 353.185752 
L 271.732177 351.27766 
L 273.23928 349.029992 
L 274.746382 346.397291 
L 276.253484 343.335812 
L 277.760587 339.807894 
L 279.267689 335.788012 
L 281.277159 329.657416 
L 283.286629 322.719207 
L 286.300834 311.30572 
L 289.315038 300.049437 
L 290.822141 295.167652 
L 291.826876 292.401463 
L 292.831611 290.126236 
L 293.836345 288.413173 
L 294.84108 287.313647 
L 295.343448 287.003585 
L 295.845815 286.855205 
L 296.348183 286.867881 
L 296.85055 287.039362 
L 297.352918 287.365853 
L 298.357653 288.461788 
L 299.362387 290.09953 
L 300.367122 292.208032 
L 301.874225 296.076926 
L 303.883695 302.120284 
L 310.414471 322.749433 
L 312.423941 328.249035 
L 314.433411 333.134724 
L 316.442881 337.401659 
L 318.452351 341.081627 
L 320.461821 344.225351 
L 322.47129 346.89096 
L 324.48076 349.137041 
L 326.49023 351.018781 
L 328.4997 352.586034 
L 330.50917 353.882545 
L 332.51864 354.9458 
L 335.030477 355.994126 
L 337.542314 356.775386 
L 340.054151 357.325356 
L 342.565989 357.667773 
L 345.077826 357.814976 
L 347.589663 357.768068 
L 350.101501 357.516464 
L 352.613338 357.036751 
L 355.125175 356.291005 
L 357.134645 355.466951 
L 359.144115 354.402092 
L 361.153585 353.052496 
L 363.163054 351.366456 
L 364.670157 349.846067 
L 366.177259 348.07689 
L 367.684361 346.031685 
L 369.191464 343.684108 
L 370.698566 341.01088 
L 372.708036 336.911657 
L 374.717506 332.193481 
L 376.726976 326.899591 
L 379.74118 318.175126 
L 383.257753 307.922096 
L 384.764855 304.017842 
L 386.271957 300.705433 
L 387.276692 298.92401 
L 388.281427 297.542385 
L 389.286162 296.59797 
L 390.290897 296.114049 
L 390.793264 296.047796 
L 391.295632 296.098247 
L 392.300367 296.542212 
L 393.305102 297.422665 
L 394.309837 298.703532 
L 395.314572 300.338872 
L 396.821674 303.340685 
L 398.831144 308.074558 
L 402.347716 317.220558 
L 405.361921 324.872241 
L 407.873758 330.64788 
L 409.883228 334.764723 
L 411.892698 338.413755 
L 413.902167 341.609003 
L 415.911637 344.381276 
L 417.921107 346.769022 
L 419.930577 348.81259 
L 421.940047 350.550964 
L 423.949517 352.020064 
L 425.958986 353.251962 
L 428.470824 354.50041 
L 430.982661 355.466842 
L 433.494498 356.186376 
L 436.006335 356.684129 
L 438.518173 356.975302 
L 441.03001 357.065056 
L 443.541847 356.948001 
L 446.053685 356.607178 
L 448.565522 356.01251 
L 450.574992 355.324278 
L 452.584461 354.414361 
L 454.593931 353.244786 
L 456.603401 351.770257 
L 458.612871 349.938679 
L 460.119973 348.296309 
L 461.627076 346.395736 
L 463.134178 344.212367 
L 464.64128 341.724024 
L 466.65075 337.903239 
L 468.66022 333.495113 
L 470.66969 328.529777 
L 473.181527 321.697817 
L 478.205202 307.743176 
L 479.712304 304.168818 
L 481.219406 301.214267 
L 482.224141 299.675981 
L 483.228876 298.5322 
L 484.233611 297.81242 
L 485.238346 297.532481 
L 486.243081 297.69361 
L 487.247816 298.282641 
L 488.252551 299.27334 
L 489.257286 300.62863 
L 490.262021 302.303359 
L 491.769123 305.30396 
L 493.778593 309.943665 
L 501.816472 329.478098 
L 503.825942 333.628093 
L 505.835412 337.335877 
L 507.844882 340.604162 
L 509.854351 343.456071 
L 511.863821 345.925121 
L 513.873291 348.048594 
L 515.882761 349.863614 
L 517.892231 351.405033 
L 519.901701 352.704386 
L 522.413538 354.030105 
L 524.925375 355.066309 
L 527.437212 355.848973 
L 529.94905 356.404489 
L 532.460887 356.749674 
L 534.972724 356.891607 
L 537.484562 356.827157 
L 539.996399 356.542053 
L 542.508236 356.009423 
L 544.517706 355.3779 
L 546.527176 354.533352 
L 548.536646 353.440212 
L 550.546115 352.05571 
L 552.555585 350.330268 
L 554.062688 348.779431 
L 555.56979 346.9814 
L 557.076892 344.91186 
L 558.583995 342.54827 
L 560.593464 338.908413 
L 562.602934 334.691417 
L 564.612404 329.914934 
L 567.124241 323.285429 
L 573.152651 306.899648 
L 574.659753 303.553708 
L 575.664488 301.683191 
L 576.669223 300.158807 
L 577.673958 299.020993 
L 578.678693 298.298913 
L 579.683428 298.008488 
L 580.688163 298.151454 
L 581.692898 298.715552 
L 582.697633 299.675714 
L 583.2 300.293495 
L 583.2 300.293495 
" style="fill:none;stroke:#55328b;stroke-linecap:square;stroke-width:3;"/>
   </g>
   <g id="line2d_14">
    <path clip-path="url(#pbfb8832a1d)" d="M 80.832544 337.267196 
L 81.334912 316.912734 
L 82.339647 270.493522 
L 83.344381 240.956959 
L 83.846749 231.07704 
L 84.349116 223.823912 
L 84.851484 218.799473 
L 85.353851 215.658232 
L 85.856219 214.10082 
L 86.358586 213.868134 
L 86.860954 214.736167 
L 87.363321 216.511482 
L 87.865689 219.027288 
L 88.870423 225.726276 
L 90.377526 238.344078 
L 95.4012 283.411469 
L 97.41067 298.585576 
L 98.917773 308.439876 
L 100.424875 317.01666 
L 101.931977 324.404064 
L 103.43908 330.716018 
L 104.946182 336.075187 
L 106.453284 340.602709 
L 107.960387 344.412394 
L 109.467489 347.607782 
L 110.974592 350.281002 
L 112.481694 352.512718 
L 113.988796 354.372717 
L 115.495899 355.920816 
L 117.003001 357.207919 
L 119.012471 358.591495 
L 121.021941 359.670559 
L 123.03141 360.511235 
L 125.543248 361.304873 
L 128.557452 361.978856 
L 131.06929 362.372906 
L 132.576392 362.362022 
L 135.590597 362.079829 
L 139.609537 361.42808 
L 143.628476 360.562318 
L 147.647416 359.480363 
L 151.666355 358.160185 
L 155.182928 356.791085 
L 158.6995 355.201492 
L 162.216072 353.363044 
L 165.230277 351.559753 
L 168.244481 349.514333 
L 171.258686 347.193403 
L 174.272891 344.567161 
L 177.287096 341.620541 
L 180.3013 338.369931 
L 181.306035 337.228767 
L 183.315505 252.950875 
L 183.817873 240.20774 
L 184.32024 230.516482 
L 184.822608 223.423701 
L 185.324975 218.535013 
L 185.827342 215.508198 
L 186.32971 214.046748 
L 186.832077 213.894052 
L 187.334445 214.828274 
L 187.836812 216.65787 
L 188.33918 219.217698 
L 189.343915 225.979517 
L 190.851017 238.645018 
L 195.874692 283.682889 
L 197.884161 298.818827 
L 199.391264 308.644096 
L 200.898366 317.193355 
L 202.405468 324.555566 
L 203.912571 330.845005 
L 205.419673 336.184396 
L 206.926776 340.694763 
L 208.433878 344.489714 
L 209.94098 347.672541 
L 211.448083 350.335115 
L 212.955185 352.557851 
L 214.462287 354.410304 
L 215.96939 355.952081 
L 217.476492 357.2339 
L 219.485962 358.611769 
L 221.495432 359.686362 
L 223.504902 360.523539 
L 226.016739 361.313857 
L 229.030944 361.98499 
L 232.547516 362.501718 
L 236.566455 362.859999 
L 242.092497 363.103475 
L 249.125642 363.172918 
L 258.168256 363.029669 
L 266.708503 362.682663 
L 273.23928 362.210016 
L 278.262954 361.639639 
L 282.281894 360.982989 
L 285.798466 360.204195 
L 289.315038 359.179336 
L 292.329243 358.067523 
L 295.343448 356.7192 
L 298.357653 355.134055 
L 301.874225 353.016701 
L 306.395532 349.982224 
L 314.935779 344.112622 
L 317.447616 342.683026 
L 319.457086 341.78651 
L 320.964188 341.307762 
L 322.47129 341.026305 
L 323.978393 340.962086 
L 325.485495 341.123856 
L 326.992598 341.507363 
L 328.4997 342.095709 
L 330.50917 343.150436 
L 333.021007 344.785335 
L 337.542314 348.111477 
L 341.561254 350.971483 
L 344.575458 352.868152 
L 347.589663 354.50058 
L 350.603868 355.86692 
L 353.618073 356.986765 
L 356.632277 357.889 
L 360.14885 358.707366 
L 364.167789 359.387825 
L 368.186729 359.847608 
L 372.708036 360.147971 
L 377.731711 360.247354 
L 382.755385 360.108466 
L 387.276692 359.760321 
L 391.295632 359.23929 
L 394.812204 358.583747 
L 398.328776 357.701475 
L 401.342981 356.731616 
L 404.357186 355.5364 
L 407.37139 354.096888 
L 410.385595 352.412212 
L 413.902167 350.182167 
L 421.437679 345.246687 
L 423.447149 344.196651 
L 425.456619 343.399451 
L 426.963721 343.006809 
L 428.470824 342.81194 
L 429.977926 342.824237 
L 431.485028 343.042284 
L 432.992131 343.454046 
L 435.001601 344.26674 
L 437.01107 345.318178 
L 440.025275 347.177603 
L 448.063154 352.303344 
L 451.077359 353.928641 
L 454.091564 355.319438 
L 457.105769 356.477928 
L 460.119973 357.421551 
L 463.636546 358.282512 
L 467.153118 358.92168 
L 471.172057 359.423745 
L 475.693364 359.743025 
L 480.214672 359.835508 
L 484.735979 359.714843 
L 489.257286 359.374196 
L 493.276225 358.865988 
L 497.295165 358.133947 
L 500.811737 357.281242 
L 504.328309 356.205358 
L 507.844882 354.890763 
L 511.361454 353.342392 
L 515.882761 351.081241 
L 522.413538 347.761525 
L 524.925375 346.700564 
L 527.437212 345.893727 
L 529.446682 345.484165 
L 531.456152 345.314759 
L 533.465622 345.396702 
L 535.475092 345.723 
L 537.484562 346.269537 
L 539.996399 347.204744 
L 543.010604 348.579083 
L 554.062688 353.884739 
L 557.57926 355.235822 
L 561.095832 356.355701 
L 564.612404 357.253255 
L 568.631344 358.032474 
L 572.650283 358.580864 
L 577.171591 358.958439 
L 581.692898 359.110991 
L 583.2 359.114814 
L 583.2 359.114814 
" style="fill:none;stroke:#ffa500;stroke-linecap:square;stroke-width:3;"/>
   </g>
   <g id="patch_9">
    <path d="M 81 378 
L 81 51.84 
" style="fill:none;stroke:#000000;stroke-linecap:square;stroke-linejoin:miter;stroke-width:0.8;"/>
   </g>
   <g id="patch_10">
    <path d="M 583.2 378 
L 583.2 51.84 
" style="fill:none;stroke:#000000;stroke-linecap:square;stroke-linejoin:miter;stroke-width:0.8;"/>
   </g>
   <g id="patch_11">
    <path d="M 81 378 
L 583.2 378 
" style="fill:none;stroke:#000000;stroke-linecap:square;stroke-linejoin:miter;stroke-width:0.8;"/>
   </g>
   <g id="patch_12">
    <path d="M 81 51.84 
L 583.2 51.84 
" style="fill:none;stroke:#000000;stroke-linecap:square;stroke-linejoin:miter;stroke-width:0.8;"/>
   </g>
   <g id="legend_1">
    <g id="patch_13">
     <path d="M 330.56 135.095 
L 572 135.095 
Q 575.2 135.095 575.2 131.895 
L 575.2 63.04 
Q 575.2 59.84 572 59.84 
L 330.56 59.84 
Q 327.36 59.84 327.36 63.04 
L 327.36 131.895 
Q 327.36 135.095 330.56 135.095 
z
" style="fill:#ffffff;opacity:0.8;stroke:#cccccc;stroke-linejoin:miter;"/>
    </g>
    <g id="line2d_15">
     <path d="M 333.76 72.7975 
L 365.76 72.7975 
" style="fill:none;stroke:#3459a4;stroke-linecap:square;stroke-width:3;"/>
    </g>
    <g id="line2d_16"/>
    <g id="text_12">
     <!-- WT -->
     <defs>
      <path d="M 3.328125 72.90625 
L 13.28125 72.90625 
L 28.609375 11.28125 
L 43.890625 72.90625 
L 54.984375 72.90625 
L 70.3125 11.28125 
L 85.59375 72.90625 
L 95.609375 72.90625 
L 77.296875 0 
L 64.890625 0 
L 49.515625 63.28125 
L 33.984375 0 
L 21.578125 0 
z
" id="DejaVuSans-57"/>
      <path d="M -0.296875 72.90625 
L 61.375 72.90625 
L 61.375 64.59375 
L 35.5 64.59375 
L 35.5 0 
L 25.59375 0 
L 25.59375 64.59375 
L -0.296875 64.59375 
z
" id="DejaVuSans-54"/>
     </defs>
     <g transform="translate(378.56 78.3975)scale(0.16 -0.16)">
      <use xlink:href="#DejaVuSans-57"/>
      <use x="98.876953" xlink:href="#DejaVuSans-54"/>
     </g>
    </g>
    <g id="line2d_17">
     <path d="M 333.76 96.2825 
L 365.76 96.2825 
" style="fill:none;stroke:#55328b;stroke-linecap:square;stroke-width:3;"/>
    </g>
    <g id="line2d_18"/>
    <g id="text_13">
     <!-- RVE8-OX inhibitory -->
     <defs>
      <path d="M 44.390625 34.1875 
Q 47.5625 33.109375 50.5625 29.59375 
Q 53.5625 26.078125 56.59375 19.921875 
L 66.609375 0 
L 56 0 
L 46.6875 18.703125 
Q 43.0625 26.03125 39.671875 28.421875 
Q 36.28125 30.8125 30.421875 30.8125 
L 19.671875 30.8125 
L 19.671875 0 
L 9.8125 0 
L 9.8125 72.90625 
L 32.078125 72.90625 
Q 44.578125 72.90625 50.734375 67.671875 
Q 56.890625 62.453125 56.890625 51.90625 
Q 56.890625 45.015625 53.6875 40.46875 
Q 50.484375 35.9375 44.390625 34.1875 
z
M 19.671875 64.796875 
L 19.671875 38.921875 
L 32.078125 38.921875 
Q 39.203125 38.921875 42.84375 42.21875 
Q 46.484375 45.515625 46.484375 51.90625 
Q 46.484375 58.296875 42.84375 61.546875 
Q 39.203125 64.796875 32.078125 64.796875 
z
" id="DejaVuSans-52"/>
      <path d="M 28.609375 0 
L 0.78125 72.90625 
L 11.078125 72.90625 
L 34.1875 11.53125 
L 57.328125 72.90625 
L 67.578125 72.90625 
L 39.796875 0 
z
" id="DejaVuSans-56"/>
      <path d="M 9.8125 72.90625 
L 55.90625 72.90625 
L 55.90625 64.59375 
L 19.671875 64.59375 
L 19.671875 43.015625 
L 54.390625 43.015625 
L 54.390625 34.71875 
L 19.671875 34.71875 
L 19.671875 8.296875 
L 56.78125 8.296875 
L 56.78125 0 
L 9.8125 0 
z
" id="DejaVuSans-45"/>
      <path d="M 4.890625 31.390625 
L 31.203125 31.390625 
L 31.203125 23.390625 
L 4.890625 23.390625 
z
" id="DejaVuSans-2d"/>
      <path d="M 39.40625 66.21875 
Q 28.65625 66.21875 22.328125 58.203125 
Q 16.015625 50.203125 16.015625 36.375 
Q 16.015625 22.609375 22.328125 14.59375 
Q 28.65625 6.59375 39.40625 6.59375 
Q 50.140625 6.59375 56.421875 14.59375 
Q 62.703125 22.609375 62.703125 36.375 
Q 62.703125 50.203125 56.421875 58.203125 
Q 50.140625 66.21875 39.40625 66.21875 
z
M 39.40625 74.21875 
Q 54.734375 74.21875 63.90625 63.9375 
Q 73.09375 53.65625 73.09375 36.375 
Q 73.09375 19.140625 63.90625 8.859375 
Q 54.734375 -1.421875 39.40625 -1.421875 
Q 24.03125 -1.421875 14.8125 8.828125 
Q 5.609375 19.09375 5.609375 36.375 
Q 5.609375 53.65625 14.8125 63.9375 
Q 24.03125 74.21875 39.40625 74.21875 
z
" id="DejaVuSans-4f"/>
      <path d="M 6.296875 72.90625 
L 16.890625 72.90625 
L 35.015625 45.796875 
L 53.21875 72.90625 
L 63.8125 72.90625 
L 40.375 37.890625 
L 65.375 0 
L 54.78125 0 
L 34.28125 31 
L 13.625 0 
L 2.984375 0 
L 29 38.921875 
z
" id="DejaVuSans-58"/>
      <path id="DejaVuSans-20"/>
      <path d="M 9.421875 54.6875 
L 18.40625 54.6875 
L 18.40625 0 
L 9.421875 0 
z
M 9.421875 75.984375 
L 18.40625 75.984375 
L 18.40625 64.59375 
L 9.421875 64.59375 
z
" id="DejaVuSans-69"/>
      <path d="M 54.890625 33.015625 
L 54.890625 0 
L 45.90625 0 
L 45.90625 32.71875 
Q 45.90625 40.484375 42.875 44.328125 
Q 39.84375 48.1875 33.796875 48.1875 
Q 26.515625 48.1875 22.3125 43.546875 
Q 18.109375 38.921875 18.109375 30.90625 
L 18.109375 0 
L 9.078125 0 
L 9.078125 54.6875 
L 18.109375 54.6875 
L 18.109375 46.1875 
Q 21.34375 51.125 25.703125 53.5625 
Q 30.078125 56 35.796875 56 
Q 45.21875 56 50.046875 50.171875 
Q 54.890625 44.34375 54.890625 33.015625 
z
" id="DejaVuSans-6e"/>
      <path d="M 54.890625 33.015625 
L 54.890625 0 
L 45.90625 0 
L 45.90625 32.71875 
Q 45.90625 40.484375 42.875 44.328125 
Q 39.84375 48.1875 33.796875 48.1875 
Q 26.515625 48.1875 22.3125 43.546875 
Q 18.109375 38.921875 18.109375 30.90625 
L 18.109375 0 
L 9.078125 0 
L 9.078125 75.984375 
L 18.109375 75.984375 
L 18.109375 46.1875 
Q 21.34375 51.125 25.703125 53.5625 
Q 30.078125 56 35.796875 56 
Q 45.21875 56 50.046875 50.171875 
Q 54.890625 44.34375 54.890625 33.015625 
z
" id="DejaVuSans-68"/>
      <path d="M 48.6875 27.296875 
Q 48.6875 37.203125 44.609375 42.84375 
Q 40.53125 48.484375 33.40625 48.484375 
Q 26.265625 48.484375 22.1875 42.84375 
Q 18.109375 37.203125 18.109375 27.296875 
Q 18.109375 17.390625 22.1875 11.75 
Q 26.265625 6.109375 33.40625 6.109375 
Q 40.53125 6.109375 44.609375 11.75 
Q 48.6875 17.390625 48.6875 27.296875 
z
M 18.109375 46.390625 
Q 20.953125 51.265625 25.265625 53.625 
Q 29.59375 56 35.59375 56 
Q 45.5625 56 51.78125 48.09375 
Q 58.015625 40.1875 58.015625 27.296875 
Q 58.015625 14.40625 51.78125 6.484375 
Q 45.5625 -1.421875 35.59375 -1.421875 
Q 29.59375 -1.421875 25.265625 0.953125 
Q 20.953125 3.328125 18.109375 8.203125 
L 18.109375 0 
L 9.078125 0 
L 9.078125 75.984375 
L 18.109375 75.984375 
z
" id="DejaVuSans-62"/>
      <path d="M 18.3125 70.21875 
L 18.3125 54.6875 
L 36.8125 54.6875 
L 36.8125 47.703125 
L 18.3125 47.703125 
L 18.3125 18.015625 
Q 18.3125 11.328125 20.140625 9.421875 
Q 21.96875 7.515625 27.59375 7.515625 
L 36.8125 7.515625 
L 36.8125 0 
L 27.59375 0 
Q 17.1875 0 13.234375 3.875 
Q 9.28125 7.765625 9.28125 18.015625 
L 9.28125 47.703125 
L 2.6875 47.703125 
L 2.6875 54.6875 
L 9.28125 54.6875 
L 9.28125 70.21875 
z
" id="DejaVuSans-74"/>
      <path d="M 30.609375 48.390625 
Q 23.390625 48.390625 19.1875 42.75 
Q 14.984375 37.109375 14.984375 27.296875 
Q 14.984375 17.484375 19.15625 11.84375 
Q 23.34375 6.203125 30.609375 6.203125 
Q 37.796875 6.203125 41.984375 11.859375 
Q 46.1875 17.53125 46.1875 27.296875 
Q 46.1875 37.015625 41.984375 42.703125 
Q 37.796875 48.390625 30.609375 48.390625 
z
M 30.609375 56 
Q 42.328125 56 49.015625 48.375 
Q 55.71875 40.765625 55.71875 27.296875 
Q 55.71875 13.875 49.015625 6.21875 
Q 42.328125 -1.421875 30.609375 -1.421875 
Q 18.84375 -1.421875 12.171875 6.21875 
Q 5.515625 13.875 5.515625 27.296875 
Q 5.515625 40.765625 12.171875 48.375 
Q 18.84375 56 30.609375 56 
z
" id="DejaVuSans-6f"/>
      <path d="M 41.109375 46.296875 
Q 39.59375 47.171875 37.8125 47.578125 
Q 36.03125 48 33.890625 48 
Q 26.265625 48 22.1875 43.046875 
Q 18.109375 38.09375 18.109375 28.8125 
L 18.109375 0 
L 9.078125 0 
L 9.078125 54.6875 
L 18.109375 54.6875 
L 18.109375 46.1875 
Q 20.953125 51.171875 25.484375 53.578125 
Q 30.03125 56 36.53125 56 
Q 37.453125 56 38.578125 55.875 
Q 39.703125 55.765625 41.0625 55.515625 
z
" id="DejaVuSans-72"/>
      <path d="M 32.171875 -5.078125 
Q 28.375 -14.84375 24.75 -17.8125 
Q 21.140625 -20.796875 15.09375 -20.796875 
L 7.90625 -20.796875 
L 7.90625 -13.28125 
L 13.1875 -13.28125 
Q 16.890625 -13.28125 18.9375 -11.515625 
Q 21 -9.765625 23.484375 -3.21875 
L 25.09375 0.875 
L 2.984375 54.6875 
L 12.5 54.6875 
L 29.59375 11.921875 
L 46.6875 54.6875 
L 56.203125 54.6875 
z
" id="DejaVuSans-79"/>
     </defs>
     <g transform="translate(378.56 101.8825)scale(0.16 -0.16)">
      <use xlink:href="#DejaVuSans-52"/>
      <use x="69.404297" xlink:href="#DejaVuSans-56"/>
      <use x="137.8125" xlink:href="#DejaVuSans-45"/>
      <use x="200.996094" xlink:href="#DejaVuSans-38"/>
      <use x="264.619141" xlink:href="#DejaVuSans-2d"/>
      <use x="300.734375" xlink:href="#DejaVuSans-4f"/>
      <use x="379.351562" xlink:href="#DejaVuSans-58"/>
      <use x="447.857422" xlink:href="#DejaVuSans-20"/>
      <use x="479.644531" xlink:href="#DejaVuSans-69"/>
      <use x="507.427734" xlink:href="#DejaVuSans-6e"/>
      <use x="570.806641" xlink:href="#DejaVuSans-68"/>
      <use x="634.185547" xlink:href="#DejaVuSans-69"/>
      <use x="661.96875" xlink:href="#DejaVuSans-62"/>
      <use x="725.445312" xlink:href="#DejaVuSans-69"/>
      <use x="753.228516" xlink:href="#DejaVuSans-74"/>
      <use x="792.4375" xlink:href="#DejaVuSans-6f"/>
      <use x="853.619141" xlink:href="#DejaVuSans-72"/>
      <use x="894.732422" xlink:href="#DejaVuSans-79"/>
     </g>
    </g>
    <g id="line2d_19">
     <path d="M 333.76 119.7675 
L 365.76 119.7675 
" style="fill:none;stroke:#ffa500;stroke-linecap:square;stroke-width:3;"/>
    </g>
    <g id="line2d_20"/>
    <g id="text_14">
     <!-- RVE8-OX non-inh. on $cL$ -->
     <defs>
      <path d="M 53.609375 52.59375 
L 51.8125 43.703125 
Q 48.578125 46.046875 44.9375 47.21875 
Q 41.3125 48.390625 37.40625 48.390625 
Q 33.109375 48.390625 29.21875 46.875 
Q 25.34375 45.359375 22.703125 42.578125 
Q 18.5 38.328125 16.203125 32.609375 
Q 13.921875 26.90625 13.921875 20.796875 
Q 13.921875 13.421875 17.609375 9.8125 
Q 21.296875 6.203125 28.8125 6.203125 
Q 32.515625 6.203125 36.6875 7.328125 
Q 40.875 8.453125 45.40625 10.6875 
L 43.703125 1.8125 
Q 39.796875 0.203125 35.671875 -0.609375 
Q 31.546875 -1.421875 27.203125 -1.421875 
Q 16.3125 -1.421875 10.453125 4.015625 
Q 4.59375 9.46875 4.59375 19.578125 
Q 4.59375 28.078125 7.640625 35.234375 
Q 10.6875 42.390625 16.703125 48.09375 
Q 20.796875 52 26.3125 54 
Q 31.84375 56 38.375 56 
Q 42.1875 56 45.9375 55.140625 
Q 49.703125 54.296875 53.609375 52.59375 
z
" id="DejaVuSans-Oblique-63"/>
      <path d="M 16.796875 72.90625 
L 26.703125 72.90625 
L 14.203125 8.203125 
L 49.703125 8.203125 
L 48.09375 0 
L 2.6875 0 
z
" id="DejaVuSans-Oblique-4c"/>
     </defs>
     <g transform="translate(378.56 125.3675)scale(0.16 -0.16)">
      <use transform="translate(0 0.015625)" xlink:href="#DejaVuSans-52"/>
      <use transform="translate(69.482422 0.015625)" xlink:href="#DejaVuSans-56"/>
      <use transform="translate(137.890625 0.015625)" xlink:href="#DejaVuSans-45"/>
      <use transform="translate(201.074219 0.015625)" xlink:href="#DejaVuSans-38"/>
      <use transform="translate(264.697266 0.015625)" xlink:href="#DejaVuSans-2d"/>
      <use transform="translate(300.78125 0.015625)" xlink:href="#DejaVuSans-4f"/>
      <use transform="translate(379.492188 0.015625)" xlink:href="#DejaVuSans-58"/>
      <use transform="translate(447.998047 0.015625)" xlink:href="#DejaVuSans-20"/>
      <use transform="translate(479.785156 0.015625)" xlink:href="#DejaVuSans-6e"/>
      <use transform="translate(543.164062 0.015625)" xlink:href="#DejaVuSans-6f"/>
      <use transform="translate(604.345703 0.015625)" xlink:href="#DejaVuSans-6e"/>
      <use transform="translate(667.724609 0.015625)" xlink:href="#DejaVuSans-2d"/>
      <use transform="translate(703.808594 0.015625)" xlink:href="#DejaVuSans-69"/>
      <use transform="translate(731.591797 0.015625)" xlink:href="#DejaVuSans-6e"/>
      <use transform="translate(794.970703 0.015625)" xlink:href="#DejaVuSans-68"/>
      <use transform="translate(858.349609 0.015625)" xlink:href="#DejaVuSans-2e"/>
      <use transform="translate(890.136719 0.015625)" xlink:href="#DejaVuSans-20"/>
      <use transform="translate(921.923828 0.015625)" xlink:href="#DejaVuSans-6f"/>
      <use transform="translate(983.105469 0.015625)" xlink:href="#DejaVuSans-6e"/>
      <use transform="translate(1046.484375 0.015625)" xlink:href="#DejaVuSans-20"/>
      <use transform="translate(1078.271484 0.015625)" xlink:href="#DejaVuSans-Oblique-63"/>
      <use transform="translate(1133.251953 0.015625)" xlink:href="#DejaVuSans-Oblique-4c"/>
     </g>
    </g>
   </g>
  </g>
 </g>
 <defs>
  <clipPath id="pbfb8832a1d">
   <rect height="326.16" width="502.2" x="81" y="51.84"/>
  </clipPath>
 </defs>
</svg>
