<?xml version="1.0" encoding="utf-8" standalone="no"?>
<!DOCTYPE svg PUBLIC "-//W3C//DTD SVG 1.1//EN"
  "http://www.w3.org/Graphics/SVG/1.1/DTD/svg11.dtd">
<!-- Created with matplotlib (http://matplotlib.org/) -->
<svg height="288pt" version="1.1" viewBox="0 0 432 288" width="432pt" xmlns="http://www.w3.org/2000/svg" xmlns:xlink="http://www.w3.org/1999/xlink">
 <defs>
  <style type="text/css">
*{stroke-linecap:butt;stroke-linejoin:round;}
  </style>
 </defs>
 <g id="figure_1">
  <g id="patch_1">
   <path d="M 0 288 
L 432 288 
L 432 0 
L 0 0 
z
" style="fill:none;"/>
  </g>
  <g id="axes_1">
   <g id="patch_2">
    <path d="M 52.78 248.84 
L 407.2125 248.84 
L 407.2125 19.2 
L 52.78 19.2 
z
" style="fill:none;"/>
   </g>
   <g id="patch_3">
    <path clip-path="url(#p5b8f295a19)" d="M 88.22325 248.84 
L 88.22325 19.2 
L 123.6665 19.2 
L 123.6665 248.84 
z
" style="fill:#808080;stroke:#808080;stroke-linejoin:miter;"/>
   </g>
   <g id="patch_4">
    <path clip-path="url(#p5b8f295a19)" d="M 159.10975 248.84 
L 159.10975 19.2 
L 194.553 19.2 
L 194.553 248.84 
z
" style="fill:#808080;opacity:0.6;stroke:#808080;stroke-linejoin:miter;"/>
   </g>
   <g id="patch_5">
    <path clip-path="url(#p5b8f295a19)" d="M 229.99625 248.84 
L 229.99625 19.2 
L 265.4395 19.2 
L 265.4395 248.84 
z
" style="fill:#808080;opacity:0.6;stroke:#808080;stroke-linejoin:miter;"/>
   </g>
   <g id="patch_6">
    <path clip-path="url(#p5b8f295a19)" d="M 300.88275 248.84 
L 300.88275 19.2 
L 336.326 19.2 
L 336.326 248.84 
z
" style="fill:#808080;opacity:0.6;stroke:#808080;stroke-linejoin:miter;"/>
   </g>
   <g id="patch_7">
    <path clip-path="url(#p5b8f295a19)" d="M 371.76925 248.84 
L 371.76925 19.2 
L 407.2125 19.2 
L 407.2125 248.84 
z
" style="fill:#808080;opacity:0.6;stroke:#808080;stroke-linejoin:miter;"/>
   </g>
   <g id="patch_8">
    <path clip-path="url(#p5b8f295a19)" d="M 442.65575 248.84 
L 442.65575 19.2 
L 478.099 19.2 
L 478.099 248.84 
z
" style="fill:#808080;opacity:0.6;stroke:#808080;stroke-linejoin:miter;"/>
   </g>
   <g id="patch_9">
    <path clip-path="url(#p5b8f295a19)" d="M 513.54225 248.84 
L 513.54225 19.2 
L 548.9855 19.2 
L 548.9855 248.84 
z
" style="fill:#808080;opacity:0.6;stroke:#808080;stroke-linejoin:miter;"/>
   </g>
   <g id="matplotlib.axis_1">
    <g id="xtick_1">
     <g id="line2d_1">
      <defs>
       <path d="M 0 0 
L 0 3.5 
" id="m69a1343fa8" style="stroke:#000000;stroke-width:0.8;"/>
      </defs>
      <g>
       <use style="stroke:#000000;stroke-width:0.8;" x="123.6665" xlink:href="#m69a1343fa8" y="248.84"/>
      </g>
     </g>
     <g id="text_1">
      <!-- 0 -->
      <defs>
       <path d="M 31.78125 66.40625 
Q 24.171875 66.40625 20.328125 58.90625 
Q 16.5 51.421875 16.5 36.375 
Q 16.5 21.390625 20.328125 13.890625 
Q 24.171875 6.390625 31.78125 6.390625 
Q 39.453125 6.390625 43.28125 13.890625 
Q 47.125 21.390625 47.125 36.375 
Q 47.125 51.421875 43.28125 58.90625 
Q 39.453125 66.40625 31.78125 66.40625 
z
M 31.78125 74.21875 
Q 44.046875 74.21875 50.515625 64.515625 
Q 56.984375 54.828125 56.984375 36.375 
Q 56.984375 17.96875 50.515625 8.265625 
Q 44.046875 -1.421875 31.78125 -1.421875 
Q 19.53125 -1.421875 13.0625 8.265625 
Q 6.59375 17.96875 6.59375 36.375 
Q 6.59375 54.828125 13.0625 64.515625 
Q 19.53125 74.21875 31.78125 74.21875 
z
" id="DejaVuSans-30"/>
      </defs>
      <g transform="translate(116.66775 272.556563)scale(0.22 -0.22)">
       <use xlink:href="#DejaVuSans-30"/>
      </g>
     </g>
    </g>
    <g id="xtick_2">
     <g id="line2d_2">
      <g>
       <use style="stroke:#000000;stroke-width:0.8;" x="194.553" xlink:href="#m69a1343fa8" y="248.84"/>
      </g>
     </g>
     <g id="text_2">
      <!-- 24 -->
      <defs>
       <path d="M 19.1875 8.296875 
L 53.609375 8.296875 
L 53.609375 0 
L 7.328125 0 
L 7.328125 8.296875 
Q 12.9375 14.109375 22.625 23.890625 
Q 32.328125 33.6875 34.8125 36.53125 
Q 39.546875 41.84375 41.421875 45.53125 
Q 43.3125 49.21875 43.3125 52.78125 
Q 43.3125 58.59375 39.234375 62.25 
Q 35.15625 65.921875 28.609375 65.921875 
Q 23.96875 65.921875 18.8125 64.3125 
Q 13.671875 62.703125 7.8125 59.421875 
L 7.8125 69.390625 
Q 13.765625 71.78125 18.9375 73 
Q 24.125 74.21875 28.421875 74.21875 
Q 39.75 74.21875 46.484375 68.546875 
Q 53.21875 62.890625 53.21875 53.421875 
Q 53.21875 48.921875 51.53125 44.890625 
Q 49.859375 40.875 45.40625 35.40625 
Q 44.1875 33.984375 37.640625 27.21875 
Q 31.109375 20.453125 19.1875 8.296875 
z
" id="DejaVuSans-32"/>
       <path d="M 37.796875 64.3125 
L 12.890625 25.390625 
L 37.796875 25.390625 
z
M 35.203125 72.90625 
L 47.609375 72.90625 
L 47.609375 25.390625 
L 58.015625 25.390625 
L 58.015625 17.1875 
L 47.609375 17.1875 
L 47.609375 0 
L 37.796875 0 
L 37.796875 17.1875 
L 4.890625 17.1875 
L 4.890625 26.703125 
z
" id="DejaVuSans-34"/>
      </defs>
      <g transform="translate(180.5555 272.556563)scale(0.22 -0.22)">
       <use xlink:href="#DejaVuSans-32"/>
       <use x="63.623047" xlink:href="#DejaVuSans-34"/>
      </g>
     </g>
    </g>
    <g id="xtick_3">
     <g id="line2d_3">
      <g>
       <use style="stroke:#000000;stroke-width:0.8;" x="265.4395" xlink:href="#m69a1343fa8" y="248.84"/>
      </g>
     </g>
     <g id="text_3">
      <!-- 48 -->
      <defs>
       <path d="M 31.78125 34.625 
Q 24.75 34.625 20.71875 30.859375 
Q 16.703125 27.09375 16.703125 20.515625 
Q 16.703125 13.921875 20.71875 10.15625 
Q 24.75 6.390625 31.78125 6.390625 
Q 38.8125 6.390625 42.859375 10.171875 
Q 46.921875 13.96875 46.921875 20.515625 
Q 46.921875 27.09375 42.890625 30.859375 
Q 38.875 34.625 31.78125 34.625 
z
M 21.921875 38.8125 
Q 15.578125 40.375 12.03125 44.71875 
Q 8.5 49.078125 8.5 55.328125 
Q 8.5 64.0625 14.71875 69.140625 
Q 20.953125 74.21875 31.78125 74.21875 
Q 42.671875 74.21875 48.875 69.140625 
Q 55.078125 64.0625 55.078125 55.328125 
Q 55.078125 49.078125 51.53125 44.71875 
Q 48 40.375 41.703125 38.8125 
Q 48.828125 37.15625 52.796875 32.3125 
Q 56.78125 27.484375 56.78125 20.515625 
Q 56.78125 9.90625 50.3125 4.234375 
Q 43.84375 -1.421875 31.78125 -1.421875 
Q 19.734375 -1.421875 13.25 4.234375 
Q 6.78125 9.90625 6.78125 20.515625 
Q 6.78125 27.484375 10.78125 32.3125 
Q 14.796875 37.15625 21.921875 38.8125 
z
M 18.3125 54.390625 
Q 18.3125 48.734375 21.84375 45.5625 
Q 25.390625 42.390625 31.78125 42.390625 
Q 38.140625 42.390625 41.71875 45.5625 
Q 45.3125 48.734375 45.3125 54.390625 
Q 45.3125 60.0625 41.71875 63.234375 
Q 38.140625 66.40625 31.78125 66.40625 
Q 25.390625 66.40625 21.84375 63.234375 
Q 18.3125 60.0625 18.3125 54.390625 
z
" id="DejaVuSans-38"/>
      </defs>
      <g transform="translate(251.442 272.556563)scale(0.22 -0.22)">
       <use xlink:href="#DejaVuSans-34"/>
       <use x="63.623047" xlink:href="#DejaVuSans-38"/>
      </g>
     </g>
    </g>
    <g id="xtick_4">
     <g id="line2d_4">
      <g>
       <use style="stroke:#000000;stroke-width:0.8;" x="336.326" xlink:href="#m69a1343fa8" y="248.84"/>
      </g>
     </g>
     <g id="text_4">
      <!-- 72 -->
      <defs>
       <path d="M 8.203125 72.90625 
L 55.078125 72.90625 
L 55.078125 68.703125 
L 28.609375 0 
L 18.3125 0 
L 43.21875 64.59375 
L 8.203125 64.59375 
z
" id="DejaVuSans-37"/>
      </defs>
      <g transform="translate(322.3285 272.556563)scale(0.22 -0.22)">
       <use xlink:href="#DejaVuSans-37"/>
       <use x="63.623047" xlink:href="#DejaVuSans-32"/>
      </g>
     </g>
    </g>
    <g id="xtick_5">
     <g id="line2d_5">
      <g>
       <use style="stroke:#000000;stroke-width:0.8;" x="407.2125" xlink:href="#m69a1343fa8" y="248.84"/>
      </g>
     </g>
     <g id="text_5">
      <!-- 96 -->
      <defs>
       <path d="M 10.984375 1.515625 
L 10.984375 10.5 
Q 14.703125 8.734375 18.5 7.8125 
Q 22.3125 6.890625 25.984375 6.890625 
Q 35.75 6.890625 40.890625 13.453125 
Q 46.046875 20.015625 46.78125 33.40625 
Q 43.953125 29.203125 39.59375 26.953125 
Q 35.25 24.703125 29.984375 24.703125 
Q 19.046875 24.703125 12.671875 31.3125 
Q 6.296875 37.9375 6.296875 49.421875 
Q 6.296875 60.640625 12.9375 67.421875 
Q 19.578125 74.21875 30.609375 74.21875 
Q 43.265625 74.21875 49.921875 64.515625 
Q 56.59375 54.828125 56.59375 36.375 
Q 56.59375 19.140625 48.40625 8.859375 
Q 40.234375 -1.421875 26.421875 -1.421875 
Q 22.703125 -1.421875 18.890625 -0.6875 
Q 15.09375 0.046875 10.984375 1.515625 
z
M 30.609375 32.421875 
Q 37.25 32.421875 41.125 36.953125 
Q 45.015625 41.5 45.015625 49.421875 
Q 45.015625 57.28125 41.125 61.84375 
Q 37.25 66.40625 30.609375 66.40625 
Q 23.96875 66.40625 20.09375 61.84375 
Q 16.21875 57.28125 16.21875 49.421875 
Q 16.21875 41.5 20.09375 36.953125 
Q 23.96875 32.421875 30.609375 32.421875 
z
" id="DejaVuSans-39"/>
       <path d="M 33.015625 40.375 
Q 26.375 40.375 22.484375 35.828125 
Q 18.609375 31.296875 18.609375 23.390625 
Q 18.609375 15.53125 22.484375 10.953125 
Q 26.375 6.390625 33.015625 6.390625 
Q 39.65625 6.390625 43.53125 10.953125 
Q 47.40625 15.53125 47.40625 23.390625 
Q 47.40625 31.296875 43.53125 35.828125 
Q 39.65625 40.375 33.015625 40.375 
z
M 52.59375 71.296875 
L 52.59375 62.3125 
Q 48.875 64.0625 45.09375 64.984375 
Q 41.3125 65.921875 37.59375 65.921875 
Q 27.828125 65.921875 22.671875 59.328125 
Q 17.53125 52.734375 16.796875 39.40625 
Q 19.671875 43.65625 24.015625 45.921875 
Q 28.375 48.1875 33.59375 48.1875 
Q 44.578125 48.1875 50.953125 41.515625 
Q 57.328125 34.859375 57.328125 23.390625 
Q 57.328125 12.15625 50.6875 5.359375 
Q 44.046875 -1.421875 33.015625 -1.421875 
Q 20.359375 -1.421875 13.671875 8.265625 
Q 6.984375 17.96875 6.984375 36.375 
Q 6.984375 53.65625 15.1875 63.9375 
Q 23.390625 74.21875 37.203125 74.21875 
Q 40.921875 74.21875 44.703125 73.484375 
Q 48.484375 72.75 52.59375 71.296875 
z
" id="DejaVuSans-36"/>
      </defs>
      <g transform="translate(393.215 272.556563)scale(0.22 -0.22)">
       <use xlink:href="#DejaVuSans-39"/>
       <use x="63.623047" xlink:href="#DejaVuSans-36"/>
      </g>
     </g>
    </g>
   </g>
   <g id="matplotlib.axis_2">
    <g id="ytick_1">
     <g id="line2d_6">
      <defs>
       <path d="M 0 0 
L -3.5 0 
" id="m85f0f5fd66" style="stroke:#000000;stroke-width:0.8;"/>
      </defs>
      <g>
       <use style="stroke:#000000;stroke-width:0.8;" x="52.78" xlink:href="#m85f0f5fd66" y="248.84"/>
      </g>
     </g>
     <g id="text_6">
      <!-- 0.0 -->
      <defs>
       <path d="M 10.6875 12.40625 
L 21 12.40625 
L 21 0 
L 10.6875 0 
z
" id="DejaVuSans-2e"/>
      </defs>
      <g transform="translate(10.793125 257.198281)scale(0.22 -0.22)">
       <use xlink:href="#DejaVuSans-30"/>
       <use x="63.623047" xlink:href="#DejaVuSans-2e"/>
       <use x="95.410156" xlink:href="#DejaVuSans-30"/>
      </g>
     </g>
    </g>
    <g id="ytick_2">
     <g id="line2d_7">
      <g>
       <use style="stroke:#000000;stroke-width:0.8;" x="52.78" xlink:href="#m85f0f5fd66" y="172.293333"/>
      </g>
     </g>
     <g id="text_7">
      <!-- 0.5 -->
      <defs>
       <path d="M 10.796875 72.90625 
L 49.515625 72.90625 
L 49.515625 64.59375 
L 19.828125 64.59375 
L 19.828125 46.734375 
Q 21.96875 47.46875 24.109375 47.828125 
Q 26.265625 48.1875 28.421875 48.1875 
Q 40.625 48.1875 47.75 41.5 
Q 54.890625 34.8125 54.890625 23.390625 
Q 54.890625 11.625 47.5625 5.09375 
Q 40.234375 -1.421875 26.90625 -1.421875 
Q 22.3125 -1.421875 17.546875 -0.640625 
Q 12.796875 0.140625 7.71875 1.703125 
L 7.71875 11.625 
Q 12.109375 9.234375 16.796875 8.0625 
Q 21.484375 6.890625 26.703125 6.890625 
Q 35.15625 6.890625 40.078125 11.328125 
Q 45.015625 15.765625 45.015625 23.390625 
Q 45.015625 31 40.078125 35.4375 
Q 35.15625 39.890625 26.703125 39.890625 
Q 22.75 39.890625 18.8125 39.015625 
Q 14.890625 38.140625 10.796875 36.28125 
z
" id="DejaVuSans-35"/>
      </defs>
      <g transform="translate(10.793125 180.651615)scale(0.22 -0.22)">
       <use xlink:href="#DejaVuSans-30"/>
       <use x="63.623047" xlink:href="#DejaVuSans-2e"/>
       <use x="95.410156" xlink:href="#DejaVuSans-35"/>
      </g>
     </g>
    </g>
    <g id="ytick_3">
     <g id="line2d_8">
      <g>
       <use style="stroke:#000000;stroke-width:0.8;" x="52.78" xlink:href="#m85f0f5fd66" y="95.746667"/>
      </g>
     </g>
     <g id="text_8">
      <!-- 1.0 -->
      <defs>
       <path d="M 12.40625 8.296875 
L 28.515625 8.296875 
L 28.515625 63.921875 
L 10.984375 60.40625 
L 10.984375 69.390625 
L 28.421875 72.90625 
L 38.28125 72.90625 
L 38.28125 8.296875 
L 54.390625 8.296875 
L 54.390625 0 
L 12.40625 0 
z
" id="DejaVuSans-31"/>
      </defs>
      <g transform="translate(10.793125 104.104948)scale(0.22 -0.22)">
       <use xlink:href="#DejaVuSans-31"/>
       <use x="63.623047" xlink:href="#DejaVuSans-2e"/>
       <use x="95.410156" xlink:href="#DejaVuSans-30"/>
      </g>
     </g>
    </g>
    <g id="ytick_4">
     <g id="line2d_9">
      <g>
       <use style="stroke:#000000;stroke-width:0.8;" x="52.78" xlink:href="#m85f0f5fd66" y="19.2"/>
      </g>
     </g>
     <g id="text_9">
      <!-- 1.5 -->
      <g transform="translate(10.793125 27.558281)scale(0.22 -0.22)">
       <use xlink:href="#DejaVuSans-31"/>
       <use x="63.623047" xlink:href="#DejaVuSans-2e"/>
       <use x="95.410156" xlink:href="#DejaVuSans-35"/>
      </g>
     </g>
    </g>
   </g>
   <g id="line2d_10">
    <path clip-path="url(#p5b8f295a19)" d="M -1 62.19974 
L -0.509051 61.738465 
L 0.910099 61.75462 
L 2.329248 62.990467 
L 3.748397 65.33251 
L 5.167546 68.681339 
L 6.586695 72.948 
L 8.005844 78.049646 
L 9.424993 83.905053 
L 10.844143 90.430638 
L 13.682441 105.129691 
L 16.520739 121.353598 
L 25.035634 171.889871 
L 27.873932 186.501226 
L 29.293082 193.01206 
L 30.712231 198.94088 
L 32.13138 204.266976 
L 33.550529 208.980333 
L 34.969678 213.076864 
L 36.388827 216.552472 
L 37.807976 219.3959 
L 39.227126 221.5802 
L 40.646275 223.052815 
L 42.065424 223.724997 
L 43.484573 223.463506 
L 44.903722 222.091018 
L 46.322871 219.405679 
L 47.742021 215.229207 
L 49.16117 209.479622 
L 50.580319 202.239682 
L 51.999468 193.777738 
L 53.418617 184.261475 
L 54.837766 171.895386 
L 56.256915 156.065033 
L 59.095214 122.225138 
L 60.514363 107.469156 
L 61.933512 94.89329 
L 63.352661 84.548268 
L 64.77181 76.341915 
L 66.190959 70.12373 
L 67.610109 65.72408 
L 69.029258 62.973107 
L 70.448407 61.710483 
L 71.867556 61.790524 
L 73.286705 63.08423 
L 74.705854 65.478874 
L 76.125004 68.875657 
L 77.544153 73.186034 
L 78.963302 78.327338 
L 80.382451 84.218312 
L 81.8016 90.77516 
L 84.639898 105.522488 
L 87.478197 121.773512 
L 95.993092 172.280098 
L 98.83139 186.841647 
L 100.250539 193.32395 
L 101.669688 199.222887 
L 103.088837 204.518382 
L 104.507986 209.200838 
L 105.927136 213.266321 
L 107.346285 216.710551 
L 108.765434 219.521703 
L 110.184583 221.671789 
L 111.603732 223.106684 
L 113.022881 223.735564 
L 114.442031 223.422852 
L 115.86118 221.989318 
L 117.280329 219.232883 
L 118.699478 214.978234 
L 120.118627 209.150254 
L 121.537776 201.841078 
L 122.956925 193.327665 
L 124.376075 183.723844 
L 125.795224 171.176669 
L 127.214373 155.211233 
L 130.052671 121.437821 
L 131.47182 106.78586 
L 132.890969 94.322171 
L 134.310119 84.087109 
L 135.729268 75.984105 
L 137.148417 69.86101 
L 138.567566 65.547836 
L 139.986715 62.875024 
L 141.405864 61.682887 
L 142.825014 61.82655 
L 144.244163 63.177859 
L 145.663312 65.624852 
L 147.082461 69.069343 
L 148.50161 73.423188 
L 149.920759 78.603897 
L 151.339908 84.530175 
L 152.759058 91.118014 
L 155.597356 105.913055 
L 158.435654 122.190668 
L 165.5314 163.725281 
L 168.369698 178.723922 
L 171.207996 192.076077 
L 174.046295 203.590649 
L 175.465444 208.645397 
L 176.884593 213.240537 
L 178.303742 217.390024 
L 179.722891 221.112167 
L 181.142041 224.428386 
L 182.56119 227.36199 
L 183.980339 229.936983 
L 185.399488 232.176846 
L 186.818637 234.103259 
L 188.237786 235.734629 
L 189.656935 237.084297 
L 191.076085 238.158214 
L 192.495234 238.951811 
L 193.914383 239.445786 
L 195.333532 239.600703 
L 196.752681 239.350789 
L 198.17183 238.598578 
L 199.590979 237.214072 
L 201.010129 235.044563 
L 202.429278 231.941698 
L 203.848427 227.806737 
L 205.267576 222.641764 
L 206.686725 216.581467 
L 209.525024 202.881331 
L 212.363322 189.298304 
L 213.782471 183.261338 
L 215.20162 177.974856 
L 216.620769 173.542656 
L 218.039918 170.01632 
L 219.459068 167.407095 
L 220.878217 165.695833 
L 222.297366 164.840457 
L 223.716515 164.781247 
L 225.135664 165.444691 
L 226.554813 166.747186 
L 227.973962 168.599993 
L 229.393112 170.915209 
L 230.812261 173.610571 
L 233.650559 179.851367 
L 236.488857 186.811616 
L 243.584603 204.770797 
L 246.422901 211.400117 
L 249.2612 217.413125 
L 252.099498 222.693276 
L 254.937796 227.168175 
L 256.356945 229.089863 
L 257.776095 230.795883 
L 259.195244 232.282184 
L 260.614393 233.543042 
L 262.033542 234.569331 
L 263.452691 235.346314 
L 264.87184 235.850862 
L 266.290989 236.048189 
L 267.710139 235.888418 
L 269.129288 235.303884 
L 270.548437 234.20893 
L 271.967586 232.504952 
L 273.386735 230.09364 
L 274.805884 226.899911 
L 276.225034 222.900841 
L 277.644183 218.150825 
L 280.482481 207.031625 
L 283.320779 195.327955 
L 284.739928 189.862564 
L 286.159078 184.911406 
L 287.578227 180.60618 
L 288.997376 177.031976 
L 290.416525 174.233657 
L 291.835674 172.223291 
L 293.254823 170.986896 
L 294.673972 170.490001 
L 296.093122 170.681925 
L 297.512271 171.499119 
L 298.93142 172.868245 
L 300.350569 174.710132 
L 301.769718 176.944982 
L 303.188867 179.4974 
L 306.027166 185.290928 
L 310.284613 194.906932 
L 315.96121 207.78898 
L 318.799508 213.736704 
L 321.637806 219.143428 
L 324.476105 223.901808 
L 327.314403 227.935176 
L 328.733552 229.661983 
L 330.152701 231.186981 
L 331.57185 232.502852 
L 332.990999 233.599966 
L 334.410149 234.464581 
L 335.829298 235.076544 
L 337.248447 235.406518 
L 338.667596 235.412916 
L 340.086745 235.03911 
L 341.505894 234.212131 
L 342.925044 232.844871 
L 344.344193 230.84439 
L 345.763342 228.128549 
L 347.182491 224.650047 
L 348.60164 220.42203 
L 350.020789 215.534935 
L 352.859088 204.502373 
L 355.697386 193.337831 
L 357.116535 188.255797 
L 358.535684 183.727591 
L 359.954833 179.861464 
L 361.373982 176.7237 
L 362.793132 174.344946 
L 364.212281 172.726864 
L 365.63143 171.848016 
L 367.050579 171.668652 
L 368.469728 172.134439 
L 369.888877 173.17955 
L 371.308027 174.729969 
L 372.727176 176.707943 
L 374.146325 179.037229 
L 376.984623 184.475312 
L 379.822921 190.571005 
L 388.337816 209.491389 
L 391.176115 215.226851 
L 394.014413 220.410819 
L 396.852711 224.942304 
L 399.69101 228.747718 
L 401.110159 230.359974 
L 402.529308 231.769127 
L 403.948457 232.966416 
L 405.367606 233.939957 
L 406.786755 234.672723 
L 408.205904 235.140036 
L 409.625054 235.306681 
L 411.044203 235.123956 
L 412.463352 234.527548 
L 413.882501 233.4378 
L 415.30165 231.764716 
L 416.720799 229.420177 
L 418.139948 226.338316 
L 419.559098 222.500855 
L 420.978247 217.958717 
L 423.816545 207.340232 
L 426.654843 196.128721 
L 428.073992 190.869229 
L 429.493142 186.087343 
L 430.912291 181.913051 
L 432.33144 178.432572 
L 433 177.14223 
L 433 177.14223 
" style="fill:none;stroke:#004d99;stroke-dasharray:9.25,4;stroke-dashoffset:0;stroke-width:2.5;"/>
   </g>
   <g id="line2d_11">
    <path clip-path="url(#p5b8f295a19)" d="M -1 63.462039 
L -0.509051 62.635851 
L 0.910099 63.269598 
L 2.329248 66.344418 
L 3.748397 71.262221 
L 5.167546 77.484681 
L 8.005844 92.13401 
L 12.263292 115.245511 
L 15.10159 129.236178 
L 16.520739 135.453368 
L 19.359038 146.650325 
L 26.454783 173.539484 
L 29.293082 184.316128 
L 32.13138 193.916588 
L 33.550529 198.09097 
L 34.969678 201.807686 
L 36.388827 205.062136 
L 37.807976 207.861994 
L 39.227126 210.221867 
L 40.646275 212.159494 
L 42.065424 213.693154 
L 43.484573 214.839793 
L 44.903722 215.61341 
L 46.322871 216.023363 
L 47.742021 216.072462 
L 49.16117 215.755137 
L 50.580319 215.056387 
L 51.999468 213.952167 
L 53.418617 212.265688 
L 54.837766 208.059659 
L 56.256915 199.505242 
L 57.676065 185.805673 
L 59.095214 167.874556 
L 63.352661 108.862658 
L 64.77181 92.737872 
L 66.190959 79.83284 
L 67.610109 70.503649 
L 69.029258 64.830646 
L 70.448407 62.605683 
L 71.867556 63.375759 
L 73.286705 66.556521 
L 74.705854 71.551491 
L 76.125004 77.826423 
L 78.963302 92.52454 
L 83.220749 115.619542 
L 86.059048 129.563708 
L 87.478197 135.751381 
L 90.316495 146.921978 
L 95.993092 168.277235 
L 100.250539 184.575093 
L 103.088837 194.137054 
L 104.507986 198.288815 
L 105.927136 201.982291 
L 107.346285 205.213649 
L 108.765434 207.991025 
L 110.184583 210.329261 
L 111.603732 212.246176 
L 113.022881 213.760023 
L 114.442031 214.887637 
L 115.86118 215.642826 
L 117.280329 216.034667 
L 118.699478 216.065587 
L 120.118627 215.729561 
L 121.537776 215.011107 
L 122.956925 213.885768 
L 124.376075 212.134448 
L 125.795224 207.747356 
L 127.214373 198.941639 
L 128.633522 184.994589 
L 130.052671 166.900962 
L 132.890969 126.572001 
L 134.310119 107.986741 
L 135.729268 92.010018 
L 137.148417 79.277452 
L 138.567566 70.131493 
L 139.986715 64.638192 
L 141.405864 62.575391 
L 142.825014 63.480455 
L 144.244163 66.765842 
L 145.663312 71.83687 
L 147.082461 78.163433 
L 149.920759 92.909387 
L 154.178207 115.987653 
L 157.016505 129.88559 
L 158.435654 136.043985 
L 159.854803 141.5914 
L 161.273952 146.510791 
L 162.693102 150.829748 
L 164.112251 154.623992 
L 166.950549 161.155039 
L 169.788847 167.33385 
L 172.627146 174.150101 
L 175.465444 181.82949 
L 182.56119 202.222864 
L 183.980339 205.876337 
L 185.399488 209.207773 
L 186.818637 212.178097 
L 188.237786 214.768987 
L 189.656935 216.977217 
L 191.076085 218.809478 
L 192.495234 220.278494 
L 193.914383 221.40038 
L 195.333532 222.192905 
L 196.752681 222.674272 
L 198.17183 222.862022 
L 199.590979 222.771601 
L 201.010129 222.41427 
L 202.429278 221.794337 
L 203.848427 220.90644 
L 205.267576 219.73411 
L 206.686725 218.250662 
L 208.105874 216.422197 
L 209.525024 214.211185 
L 210.944173 211.579002 
L 212.363322 208.486401 
L 213.782471 204.891741 
L 215.20162 200.747242 
L 216.620769 195.99375 
L 218.039918 190.555351 
L 219.459068 184.33837 
L 220.878217 177.24945 
L 223.716515 160.680234 
L 225.135664 152.376794 
L 226.554813 145.923791 
L 227.973962 142.639608 
L 229.393112 142.662319 
L 230.812261 145.205082 
L 232.23141 149.289219 
L 237.908007 168.46498 
L 239.327156 172.479154 
L 240.746305 176.014404 
L 242.165454 179.116727 
L 245.003752 184.387317 
L 252.099498 196.468859 
L 256.356945 204.587886 
L 259.195244 209.972707 
L 262.033542 214.718933 
L 263.452691 216.727693 
L 264.87184 218.458242 
L 266.290989 219.899405 
L 267.710139 221.047917 
L 269.129288 221.905215 
L 270.548437 222.474828 
L 271.967586 222.760146 
L 273.386735 222.76242 
L 274.805884 222.479045 
L 276.225034 221.902306 
L 277.644183 221.018843 
L 279.063332 219.809936 
L 280.482481 218.252369 
L 281.90163 216.319356 
L 283.320779 213.980995 
L 284.739928 211.203855 
L 286.159078 207.949442 
L 287.578227 204.171461 
L 288.997376 199.811908 
L 290.416525 194.796697 
L 291.835674 189.033799 
L 293.254823 182.424083 
L 294.673972 174.913565 
L 297.512271 158.292848 
L 298.93142 151.222438 
L 300.350569 146.951957 
L 301.769718 146.01897 
L 303.188867 147.842899 
L 304.608017 151.445664 
L 307.446315 160.794989 
L 310.284613 169.950893 
L 311.703762 173.937418 
L 313.122911 177.467957 
L 314.542061 180.579532 
L 317.380359 185.876878 
L 325.895254 200.335931 
L 331.57185 210.75103 
L 332.990999 213.106154 
L 334.410149 215.245384 
L 335.829298 217.133468 
L 337.248447 218.749075 
L 338.667596 220.081439 
L 340.086745 221.126921 
L 341.505894 221.885986 
L 342.925044 222.36067 
L 344.344193 222.5524 
L 345.763342 222.460124 
L 347.182491 222.078804 
L 348.60164 221.398468 
L 350.020789 220.403984 
L 351.439938 219.075485 
L 352.859088 217.389129 
L 354.278237 215.317711 
L 355.697386 212.830686 
L 357.116535 209.893304 
L 358.535684 206.464675 
L 359.954833 202.494709 
L 361.373982 197.920191 
L 362.793132 192.661418 
L 364.212281 186.624634 
L 365.63143 179.726239 
L 369.888877 155.87644 
L 371.308027 149.992254 
L 372.727176 147.21962 
L 374.146325 147.560527 
L 375.565474 150.200968 
L 376.984623 154.203608 
L 381.242071 168.114496 
L 382.66122 172.289115 
L 384.080369 176.023378 
L 385.499518 179.321062 
L 386.918667 182.23759 
L 389.756965 187.286476 
L 396.852711 199.114139 
L 403.948457 211.890613 
L 405.367606 214.131235 
L 406.786755 216.140341 
L 408.205904 217.889196 
L 409.625054 219.361455 
L 411.044203 220.549693 
L 412.463352 221.452141 
L 413.882501 222.069931 
L 415.30165 222.404711 
L 416.720799 222.456641 
L 418.139948 222.222682 
L 419.559098 221.695348 
L 420.978247 220.862109 
L 422.397396 219.705494 
L 423.816545 218.203703 
L 425.235694 216.331321 
L 426.654843 214.059659 
L 428.073992 211.356352 
L 429.493142 208.183989 
L 430.912291 204.497645 
L 433 197.934418 
L 433 197.934418 
" style="fill:none;stroke:#dd262c;stroke-linecap:square;stroke-width:2.5;"/>
   </g>
   <g id="patch_10">
    <path d="M 52.78 248.84 
L 52.78 19.2 
" style="fill:none;stroke:#000000;stroke-linecap:square;stroke-linejoin:miter;stroke-width:0.8;"/>
   </g>
   <g id="patch_11">
    <path d="M 407.2125 248.84 
L 407.2125 19.2 
" style="fill:none;stroke:#000000;stroke-linecap:square;stroke-linejoin:miter;stroke-width:0.8;"/>
   </g>
   <g id="patch_12">
    <path d="M 52.78 248.84 
L 407.2125 248.84 
" style="fill:none;stroke:#000000;stroke-linecap:square;stroke-linejoin:miter;stroke-width:0.8;"/>
   </g>
   <g id="patch_13">
    <path d="M 52.78 19.2 
L 407.2125 19.2 
" style="fill:none;stroke:#000000;stroke-linecap:square;stroke-linejoin:miter;stroke-width:0.8;"/>
   </g>
  </g>
 </g>
 <defs>
  <clipPath id="p5b8f295a19">
   <rect height="229.64" width="354.4325" x="52.78" y="19.2"/>
  </clipPath>
 </defs>
</svg>
