<?xml version="1.0" encoding="utf-8" standalone="no"?>
<!DOCTYPE svg PUBLIC "-//W3C//DTD SVG 1.1//EN"
  "http://www.w3.org/Graphics/SVG/1.1/DTD/svg11.dtd">
<!-- Created with matplotlib (http://matplotlib.org/) -->
<svg height="288pt" version="1.1" viewBox="0 0 432 288" width="432pt" xmlns="http://www.w3.org/2000/svg" xmlns:xlink="http://www.w3.org/1999/xlink">
 <defs>
  <style type="text/css">
*{stroke-linecap:butt;stroke-linejoin:round;}
  </style>
 </defs>
 <g id="figure_1">
  <g id="patch_1">
   <path d="M 0 288 
L 432 288 
L 432 0 
L 0 0 
z
" style="fill:none;"/>
  </g>
  <g id="axes_1">
   <g id="patch_2">
    <path d="M 52.78 248.84 
L 407.2125 248.84 
L 407.2125 19.2 
L 52.78 19.2 
z
" style="fill:none;"/>
   </g>
   <g id="patch_3">
    <path clip-path="url(#p8eba76e973)" d="M 88.22325 248.84 
L 88.22325 19.2 
L 123.6665 19.2 
L 123.6665 248.84 
z
" style="fill:#808080;stroke:#808080;stroke-linejoin:miter;"/>
   </g>
   <g id="patch_4">
    <path clip-path="url(#p8eba76e973)" d="M 159.10975 248.84 
L 159.10975 19.2 
L 194.553 19.2 
L 194.553 248.84 
z
" style="fill:#808080;opacity:0.6;stroke:#808080;stroke-linejoin:miter;"/>
   </g>
   <g id="patch_5">
    <path clip-path="url(#p8eba76e973)" d="M 229.99625 248.84 
L 229.99625 19.2 
L 265.4395 19.2 
L 265.4395 248.84 
z
" style="fill:#808080;opacity:0.6;stroke:#808080;stroke-linejoin:miter;"/>
   </g>
   <g id="patch_6">
    <path clip-path="url(#p8eba76e973)" d="M 300.88275 248.84 
L 300.88275 19.2 
L 336.326 19.2 
L 336.326 248.84 
z
" style="fill:#808080;opacity:0.6;stroke:#808080;stroke-linejoin:miter;"/>
   </g>
   <g id="patch_7">
    <path clip-path="url(#p8eba76e973)" d="M 371.76925 248.84 
L 371.76925 19.2 
L 407.2125 19.2 
L 407.2125 248.84 
z
" style="fill:#808080;opacity:0.6;stroke:#808080;stroke-linejoin:miter;"/>
   </g>
   <g id="patch_8">
    <path clip-path="url(#p8eba76e973)" d="M 442.65575 248.84 
L 442.65575 19.2 
L 478.099 19.2 
L 478.099 248.84 
z
" style="fill:#808080;opacity:0.6;stroke:#808080;stroke-linejoin:miter;"/>
   </g>
   <g id="patch_9">
    <path clip-path="url(#p8eba76e973)" d="M 513.54225 248.84 
L 513.54225 19.2 
L 548.9855 19.2 
L 548.9855 248.84 
z
" style="fill:#808080;opacity:0.6;stroke:#808080;stroke-linejoin:miter;"/>
   </g>
   <g id="matplotlib.axis_1">
    <g id="xtick_1">
     <g id="line2d_1">
      <defs>
       <path d="M 0 0 
L 0 3.5 
" id="ma75ecc0236" style="stroke:#000000;stroke-width:0.8;"/>
      </defs>
      <g>
       <use style="stroke:#000000;stroke-width:0.8;" x="123.6665" xlink:href="#ma75ecc0236" y="248.84"/>
      </g>
     </g>
     <g id="text_1">
      <!-- 0 -->
      <defs>
       <path d="M 31.78125 66.40625 
Q 24.171875 66.40625 20.328125 58.90625 
Q 16.5 51.421875 16.5 36.375 
Q 16.5 21.390625 20.328125 13.890625 
Q 24.171875 6.390625 31.78125 6.390625 
Q 39.453125 6.390625 43.28125 13.890625 
Q 47.125 21.390625 47.125 36.375 
Q 47.125 51.421875 43.28125 58.90625 
Q 39.453125 66.40625 31.78125 66.40625 
z
M 31.78125 74.21875 
Q 44.046875 74.21875 50.515625 64.515625 
Q 56.984375 54.828125 56.984375 36.375 
Q 56.984375 17.96875 50.515625 8.265625 
Q 44.046875 -1.421875 31.78125 -1.421875 
Q 19.53125 -1.421875 13.0625 8.265625 
Q 6.59375 17.96875 6.59375 36.375 
Q 6.59375 54.828125 13.0625 64.515625 
Q 19.53125 74.21875 31.78125 74.21875 
z
" id="DejaVuSans-30"/>
      </defs>
      <g transform="translate(116.66775 272.556563)scale(0.22 -0.22)">
       <use xlink:href="#DejaVuSans-30"/>
      </g>
     </g>
    </g>
    <g id="xtick_2">
     <g id="line2d_2">
      <g>
       <use style="stroke:#000000;stroke-width:0.8;" x="194.553" xlink:href="#ma75ecc0236" y="248.84"/>
      </g>
     </g>
     <g id="text_2">
      <!-- 24 -->
      <defs>
       <path d="M 19.1875 8.296875 
L 53.609375 8.296875 
L 53.609375 0 
L 7.328125 0 
L 7.328125 8.296875 
Q 12.9375 14.109375 22.625 23.890625 
Q 32.328125 33.6875 34.8125 36.53125 
Q 39.546875 41.84375 41.421875 45.53125 
Q 43.3125 49.21875 43.3125 52.78125 
Q 43.3125 58.59375 39.234375 62.25 
Q 35.15625 65.921875 28.609375 65.921875 
Q 23.96875 65.921875 18.8125 64.3125 
Q 13.671875 62.703125 7.8125 59.421875 
L 7.8125 69.390625 
Q 13.765625 71.78125 18.9375 73 
Q 24.125 74.21875 28.421875 74.21875 
Q 39.75 74.21875 46.484375 68.546875 
Q 53.21875 62.890625 53.21875 53.421875 
Q 53.21875 48.921875 51.53125 44.890625 
Q 49.859375 40.875 45.40625 35.40625 
Q 44.1875 33.984375 37.640625 27.21875 
Q 31.109375 20.453125 19.1875 8.296875 
z
" id="DejaVuSans-32"/>
       <path d="M 37.796875 64.3125 
L 12.890625 25.390625 
L 37.796875 25.390625 
z
M 35.203125 72.90625 
L 47.609375 72.90625 
L 47.609375 25.390625 
L 58.015625 25.390625 
L 58.015625 17.1875 
L 47.609375 17.1875 
L 47.609375 0 
L 37.796875 0 
L 37.796875 17.1875 
L 4.890625 17.1875 
L 4.890625 26.703125 
z
" id="DejaVuSans-34"/>
      </defs>
      <g transform="translate(180.5555 272.556563)scale(0.22 -0.22)">
       <use xlink:href="#DejaVuSans-32"/>
       <use x="63.623047" xlink:href="#DejaVuSans-34"/>
      </g>
     </g>
    </g>
    <g id="xtick_3">
     <g id="line2d_3">
      <g>
       <use style="stroke:#000000;stroke-width:0.8;" x="265.4395" xlink:href="#ma75ecc0236" y="248.84"/>
      </g>
     </g>
     <g id="text_3">
      <!-- 48 -->
      <defs>
       <path d="M 31.78125 34.625 
Q 24.75 34.625 20.71875 30.859375 
Q 16.703125 27.09375 16.703125 20.515625 
Q 16.703125 13.921875 20.71875 10.15625 
Q 24.75 6.390625 31.78125 6.390625 
Q 38.8125 6.390625 42.859375 10.171875 
Q 46.921875 13.96875 46.921875 20.515625 
Q 46.921875 27.09375 42.890625 30.859375 
Q 38.875 34.625 31.78125 34.625 
z
M 21.921875 38.8125 
Q 15.578125 40.375 12.03125 44.71875 
Q 8.5 49.078125 8.5 55.328125 
Q 8.5 64.0625 14.71875 69.140625 
Q 20.953125 74.21875 31.78125 74.21875 
Q 42.671875 74.21875 48.875 69.140625 
Q 55.078125 64.0625 55.078125 55.328125 
Q 55.078125 49.078125 51.53125 44.71875 
Q 48 40.375 41.703125 38.8125 
Q 48.828125 37.15625 52.796875 32.3125 
Q 56.78125 27.484375 56.78125 20.515625 
Q 56.78125 9.90625 50.3125 4.234375 
Q 43.84375 -1.421875 31.78125 -1.421875 
Q 19.734375 -1.421875 13.25 4.234375 
Q 6.78125 9.90625 6.78125 20.515625 
Q 6.78125 27.484375 10.78125 32.3125 
Q 14.796875 37.15625 21.921875 38.8125 
z
M 18.3125 54.390625 
Q 18.3125 48.734375 21.84375 45.5625 
Q 25.390625 42.390625 31.78125 42.390625 
Q 38.140625 42.390625 41.71875 45.5625 
Q 45.3125 48.734375 45.3125 54.390625 
Q 45.3125 60.0625 41.71875 63.234375 
Q 38.140625 66.40625 31.78125 66.40625 
Q 25.390625 66.40625 21.84375 63.234375 
Q 18.3125 60.0625 18.3125 54.390625 
z
" id="DejaVuSans-38"/>
      </defs>
      <g transform="translate(251.442 272.556563)scale(0.22 -0.22)">
       <use xlink:href="#DejaVuSans-34"/>
       <use x="63.623047" xlink:href="#DejaVuSans-38"/>
      </g>
     </g>
    </g>
    <g id="xtick_4">
     <g id="line2d_4">
      <g>
       <use style="stroke:#000000;stroke-width:0.8;" x="336.326" xlink:href="#ma75ecc0236" y="248.84"/>
      </g>
     </g>
     <g id="text_4">
      <!-- 72 -->
      <defs>
       <path d="M 8.203125 72.90625 
L 55.078125 72.90625 
L 55.078125 68.703125 
L 28.609375 0 
L 18.3125 0 
L 43.21875 64.59375 
L 8.203125 64.59375 
z
" id="DejaVuSans-37"/>
      </defs>
      <g transform="translate(322.3285 272.556563)scale(0.22 -0.22)">
       <use xlink:href="#DejaVuSans-37"/>
       <use x="63.623047" xlink:href="#DejaVuSans-32"/>
      </g>
     </g>
    </g>
    <g id="xtick_5">
     <g id="line2d_5">
      <g>
       <use style="stroke:#000000;stroke-width:0.8;" x="407.2125" xlink:href="#ma75ecc0236" y="248.84"/>
      </g>
     </g>
     <g id="text_5">
      <!-- 96 -->
      <defs>
       <path d="M 10.984375 1.515625 
L 10.984375 10.5 
Q 14.703125 8.734375 18.5 7.8125 
Q 22.3125 6.890625 25.984375 6.890625 
Q 35.75 6.890625 40.890625 13.453125 
Q 46.046875 20.015625 46.78125 33.40625 
Q 43.953125 29.203125 39.59375 26.953125 
Q 35.25 24.703125 29.984375 24.703125 
Q 19.046875 24.703125 12.671875 31.3125 
Q 6.296875 37.9375 6.296875 49.421875 
Q 6.296875 60.640625 12.9375 67.421875 
Q 19.578125 74.21875 30.609375 74.21875 
Q 43.265625 74.21875 49.921875 64.515625 
Q 56.59375 54.828125 56.59375 36.375 
Q 56.59375 19.140625 48.40625 8.859375 
Q 40.234375 -1.421875 26.421875 -1.421875 
Q 22.703125 -1.421875 18.890625 -0.6875 
Q 15.09375 0.046875 10.984375 1.515625 
z
M 30.609375 32.421875 
Q 37.25 32.421875 41.125 36.953125 
Q 45.015625 41.5 45.015625 49.421875 
Q 45.015625 57.28125 41.125 61.84375 
Q 37.25 66.40625 30.609375 66.40625 
Q 23.96875 66.40625 20.09375 61.84375 
Q 16.21875 57.28125 16.21875 49.421875 
Q 16.21875 41.5 20.09375 36.953125 
Q 23.96875 32.421875 30.609375 32.421875 
z
" id="DejaVuSans-39"/>
       <path d="M 33.015625 40.375 
Q 26.375 40.375 22.484375 35.828125 
Q 18.609375 31.296875 18.609375 23.390625 
Q 18.609375 15.53125 22.484375 10.953125 
Q 26.375 6.390625 33.015625 6.390625 
Q 39.65625 6.390625 43.53125 10.953125 
Q 47.40625 15.53125 47.40625 23.390625 
Q 47.40625 31.296875 43.53125 35.828125 
Q 39.65625 40.375 33.015625 40.375 
z
M 52.59375 71.296875 
L 52.59375 62.3125 
Q 48.875 64.0625 45.09375 64.984375 
Q 41.3125 65.921875 37.59375 65.921875 
Q 27.828125 65.921875 22.671875 59.328125 
Q 17.53125 52.734375 16.796875 39.40625 
Q 19.671875 43.65625 24.015625 45.921875 
Q 28.375 48.1875 33.59375 48.1875 
Q 44.578125 48.1875 50.953125 41.515625 
Q 57.328125 34.859375 57.328125 23.390625 
Q 57.328125 12.15625 50.6875 5.359375 
Q 44.046875 -1.421875 33.015625 -1.421875 
Q 20.359375 -1.421875 13.671875 8.265625 
Q 6.984375 17.96875 6.984375 36.375 
Q 6.984375 53.65625 15.1875 63.9375 
Q 23.390625 74.21875 37.203125 74.21875 
Q 40.921875 74.21875 44.703125 73.484375 
Q 48.484375 72.75 52.59375 71.296875 
z
" id="DejaVuSans-36"/>
      </defs>
      <g transform="translate(393.215 272.556563)scale(0.22 -0.22)">
       <use xlink:href="#DejaVuSans-39"/>
       <use x="63.623047" xlink:href="#DejaVuSans-36"/>
      </g>
     </g>
    </g>
   </g>
   <g id="matplotlib.axis_2">
    <g id="ytick_1">
     <g id="line2d_6">
      <defs>
       <path d="M 0 0 
L -3.5 0 
" id="m1d0fb44f22" style="stroke:#000000;stroke-width:0.8;"/>
      </defs>
      <g>
       <use style="stroke:#000000;stroke-width:0.8;" x="52.78" xlink:href="#m1d0fb44f22" y="248.84"/>
      </g>
     </g>
     <g id="text_6">
      <!-- 0.0 -->
      <defs>
       <path d="M 10.6875 12.40625 
L 21 12.40625 
L 21 0 
L 10.6875 0 
z
" id="DejaVuSans-2e"/>
      </defs>
      <g transform="translate(10.793125 257.198281)scale(0.22 -0.22)">
       <use xlink:href="#DejaVuSans-30"/>
       <use x="63.623047" xlink:href="#DejaVuSans-2e"/>
       <use x="95.410156" xlink:href="#DejaVuSans-30"/>
      </g>
     </g>
    </g>
    <g id="ytick_2">
     <g id="line2d_7">
      <g>
       <use style="stroke:#000000;stroke-width:0.8;" x="52.78" xlink:href="#m1d0fb44f22" y="172.293333"/>
      </g>
     </g>
     <g id="text_7">
      <!-- 0.5 -->
      <defs>
       <path d="M 10.796875 72.90625 
L 49.515625 72.90625 
L 49.515625 64.59375 
L 19.828125 64.59375 
L 19.828125 46.734375 
Q 21.96875 47.46875 24.109375 47.828125 
Q 26.265625 48.1875 28.421875 48.1875 
Q 40.625 48.1875 47.75 41.5 
Q 54.890625 34.8125 54.890625 23.390625 
Q 54.890625 11.625 47.5625 5.09375 
Q 40.234375 -1.421875 26.90625 -1.421875 
Q 22.3125 -1.421875 17.546875 -0.640625 
Q 12.796875 0.140625 7.71875 1.703125 
L 7.71875 11.625 
Q 12.109375 9.234375 16.796875 8.0625 
Q 21.484375 6.890625 26.703125 6.890625 
Q 35.15625 6.890625 40.078125 11.328125 
Q 45.015625 15.765625 45.015625 23.390625 
Q 45.015625 31 40.078125 35.4375 
Q 35.15625 39.890625 26.703125 39.890625 
Q 22.75 39.890625 18.8125 39.015625 
Q 14.890625 38.140625 10.796875 36.28125 
z
" id="DejaVuSans-35"/>
      </defs>
      <g transform="translate(10.793125 180.651615)scale(0.22 -0.22)">
       <use xlink:href="#DejaVuSans-30"/>
       <use x="63.623047" xlink:href="#DejaVuSans-2e"/>
       <use x="95.410156" xlink:href="#DejaVuSans-35"/>
      </g>
     </g>
    </g>
    <g id="ytick_3">
     <g id="line2d_8">
      <g>
       <use style="stroke:#000000;stroke-width:0.8;" x="52.78" xlink:href="#m1d0fb44f22" y="95.746667"/>
      </g>
     </g>
     <g id="text_8">
      <!-- 1.0 -->
      <defs>
       <path d="M 12.40625 8.296875 
L 28.515625 8.296875 
L 28.515625 63.921875 
L 10.984375 60.40625 
L 10.984375 69.390625 
L 28.421875 72.90625 
L 38.28125 72.90625 
L 38.28125 8.296875 
L 54.390625 8.296875 
L 54.390625 0 
L 12.40625 0 
z
" id="DejaVuSans-31"/>
      </defs>
      <g transform="translate(10.793125 104.104948)scale(0.22 -0.22)">
       <use xlink:href="#DejaVuSans-31"/>
       <use x="63.623047" xlink:href="#DejaVuSans-2e"/>
       <use x="95.410156" xlink:href="#DejaVuSans-30"/>
      </g>
     </g>
    </g>
    <g id="ytick_4">
     <g id="line2d_9">
      <g>
       <use style="stroke:#000000;stroke-width:0.8;" x="52.78" xlink:href="#m1d0fb44f22" y="19.2"/>
      </g>
     </g>
     <g id="text_9">
      <!-- 1.5 -->
      <g transform="translate(10.793125 27.558281)scale(0.22 -0.22)">
       <use xlink:href="#DejaVuSans-31"/>
       <use x="63.623047" xlink:href="#DejaVuSans-2e"/>
       <use x="95.410156" xlink:href="#DejaVuSans-35"/>
      </g>
     </g>
    </g>
   </g>
   <g id="line2d_10">
    <path clip-path="url(#p8eba76e973)" d="M -1 62.19974 
L -0.509051 61.738465 
L 0.910099 61.75462 
L 2.329248 62.990467 
L 3.748397 65.33251 
L 5.167546 68.681339 
L 6.586695 72.948 
L 8.005844 78.049646 
L 9.424993 83.905053 
L 10.844143 90.430638 
L 13.682441 105.129691 
L 16.520739 121.353598 
L 25.035634 171.889871 
L 27.873932 186.501226 
L 29.293082 193.01206 
L 30.712231 198.94088 
L 32.13138 204.266976 
L 33.550529 208.980333 
L 34.969678 213.076864 
L 36.388827 216.552472 
L 37.807976 219.3959 
L 39.227126 221.5802 
L 40.646275 223.052815 
L 42.065424 223.724997 
L 43.484573 223.463506 
L 44.903722 222.091018 
L 46.322871 219.405679 
L 47.742021 215.229207 
L 49.16117 209.479622 
L 50.580319 202.239682 
L 51.999468 193.777738 
L 53.418617 184.261475 
L 54.837766 171.895386 
L 56.256915 156.065033 
L 59.095214 122.225138 
L 60.514363 107.469156 
L 61.933512 94.89329 
L 63.352661 84.548268 
L 64.77181 76.341915 
L 66.190959 70.12373 
L 67.610109 65.72408 
L 69.029258 62.973107 
L 70.448407 61.710483 
L 71.867556 61.790524 
L 73.286705 63.08423 
L 74.705854 65.478874 
L 76.125004 68.875657 
L 77.544153 73.186034 
L 78.963302 78.327338 
L 80.382451 84.218312 
L 81.8016 90.77516 
L 84.639898 105.522488 
L 87.478197 121.773512 
L 95.993092 172.280098 
L 98.83139 186.841647 
L 100.250539 193.32395 
L 101.669688 199.222887 
L 103.088837 204.518382 
L 104.507986 209.200838 
L 105.927136 213.266321 
L 107.346285 216.710551 
L 108.765434 219.521703 
L 110.184583 221.671789 
L 111.603732 223.106684 
L 113.022881 223.735564 
L 114.442031 223.422852 
L 115.86118 221.989318 
L 117.280329 219.232883 
L 118.699478 214.978234 
L 120.118627 209.150254 
L 121.537776 201.841078 
L 122.956925 193.327665 
L 124.376075 183.723844 
L 125.795224 171.176669 
L 127.214373 155.211233 
L 130.052671 121.437821 
L 131.47182 106.78586 
L 132.890969 94.322171 
L 134.310119 84.087109 
L 135.729268 75.984105 
L 137.148417 69.86101 
L 138.567566 65.547836 
L 139.986715 62.875024 
L 141.405864 61.682887 
L 142.825014 61.82655 
L 144.244163 63.177859 
L 145.663312 65.624852 
L 147.082461 69.069343 
L 148.50161 73.423188 
L 149.920759 78.603897 
L 151.339908 84.530175 
L 152.759058 91.118014 
L 155.597356 105.913055 
L 158.435654 122.190668 
L 165.5314 163.725281 
L 168.369698 178.723922 
L 171.207996 192.076077 
L 174.046295 203.590649 
L 175.465444 208.645397 
L 176.884593 213.240537 
L 178.303742 217.390024 
L 179.722891 221.112167 
L 181.142041 224.428386 
L 182.56119 227.36199 
L 183.980339 229.936983 
L 185.399488 232.176846 
L 186.818637 234.103259 
L 188.237786 235.734629 
L 189.656935 237.084297 
L 191.076085 238.158214 
L 192.495234 238.951811 
L 193.914383 239.445786 
L 195.333532 239.600703 
L 196.752681 239.350789 
L 198.17183 238.598578 
L 199.590979 237.214072 
L 201.010129 235.044563 
L 202.429278 231.941698 
L 203.848427 227.806737 
L 205.267576 222.641764 
L 206.686725 216.581467 
L 209.525024 202.881331 
L 212.363322 189.298304 
L 213.782471 183.261338 
L 215.20162 177.974856 
L 216.620769 173.542656 
L 218.039918 170.01632 
L 219.459068 167.407095 
L 220.878217 165.695833 
L 222.297366 164.840457 
L 223.716515 164.781247 
L 225.135664 165.444691 
L 226.554813 166.747186 
L 227.973962 168.599993 
L 229.393112 170.915209 
L 230.812261 173.610571 
L 233.650559 179.851367 
L 236.488857 186.811616 
L 243.584603 204.770797 
L 246.422901 211.400117 
L 249.2612 217.413125 
L 252.099498 222.693276 
L 254.937796 227.168175 
L 256.356945 229.089863 
L 257.776095 230.795883 
L 259.195244 232.282184 
L 260.614393 233.543042 
L 262.033542 234.569331 
L 263.452691 235.346314 
L 264.87184 235.850862 
L 266.290989 236.048189 
L 267.710139 235.888418 
L 269.129288 235.303884 
L 270.548437 234.20893 
L 271.967586 232.504952 
L 273.386735 230.09364 
L 274.805884 226.899911 
L 276.225034 222.900841 
L 277.644183 218.150825 
L 280.482481 207.031625 
L 283.320779 195.327955 
L 284.739928 189.862564 
L 286.159078 184.911406 
L 287.578227 180.60618 
L 288.997376 177.031976 
L 290.416525 174.233657 
L 291.835674 172.223291 
L 293.254823 170.986896 
L 294.673972 170.490001 
L 296.093122 170.681925 
L 297.512271 171.499119 
L 298.93142 172.868245 
L 300.350569 174.710132 
L 301.769718 176.944982 
L 303.188867 179.4974 
L 306.027166 185.290928 
L 310.284613 194.906932 
L 315.96121 207.78898 
L 318.799508 213.736704 
L 321.637806 219.143428 
L 324.476105 223.901808 
L 327.314403 227.935176 
L 328.733552 229.661983 
L 330.152701 231.186981 
L 331.57185 232.502852 
L 332.990999 233.599966 
L 334.410149 234.464581 
L 335.829298 235.076544 
L 337.248447 235.406518 
L 338.667596 235.412916 
L 340.086745 235.03911 
L 341.505894 234.212131 
L 342.925044 232.844871 
L 344.344193 230.84439 
L 345.763342 228.128549 
L 347.182491 224.650047 
L 348.60164 220.42203 
L 350.020789 215.534935 
L 352.859088 204.502373 
L 355.697386 193.337831 
L 357.116535 188.255797 
L 358.535684 183.727591 
L 359.954833 179.861464 
L 361.373982 176.7237 
L 362.793132 174.344946 
L 364.212281 172.726864 
L 365.63143 171.848016 
L 367.050579 171.668652 
L 368.469728 172.134439 
L 369.888877 173.17955 
L 371.308027 174.729969 
L 372.727176 176.707943 
L 374.146325 179.037229 
L 376.984623 184.475312 
L 379.822921 190.571005 
L 388.337816 209.491389 
L 391.176115 215.226851 
L 394.014413 220.410819 
L 396.852711 224.942304 
L 399.69101 228.747718 
L 401.110159 230.359974 
L 402.529308 231.769127 
L 403.948457 232.966416 
L 405.367606 233.939957 
L 406.786755 234.672723 
L 408.205904 235.140036 
L 409.625054 235.306681 
L 411.044203 235.123956 
L 412.463352 234.527548 
L 413.882501 233.4378 
L 415.30165 231.764716 
L 416.720799 229.420177 
L 418.139948 226.338316 
L 419.559098 222.500855 
L 420.978247 217.958717 
L 423.816545 207.340232 
L 426.654843 196.128721 
L 428.073992 190.869229 
L 429.493142 186.087343 
L 430.912291 181.913051 
L 432.33144 178.432572 
L 433 177.14223 
L 433 177.14223 
" style="fill:none;stroke:#004d99;stroke-dasharray:7.4,3.2;stroke-dashoffset:0;stroke-width:2;"/>
   </g>
   <g id="line2d_11">
    <path clip-path="url(#p8eba76e973)" d="M -1 37.108731 
L -0.509051 37.681846 
L 0.910099 42.453032 
L 2.329248 49.411012 
L 3.748397 57.732605 
L 9.424993 93.764293 
L 12.263292 109.666329 
L 15.10159 123.623335 
L 19.359038 143.113926 
L 22.197336 157.815589 
L 25.035634 172.819887 
L 27.873932 186.519182 
L 29.293082 192.577007 
L 30.712231 198.046352 
L 32.13138 202.922071 
L 33.550529 207.215737 
L 34.969678 210.94638 
L 36.388827 214.13425 
L 37.807976 216.79686 
L 39.227126 218.946603 
L 40.646275 220.589459 
L 42.065424 221.724489 
L 43.484573 222.343964 
L 44.903722 222.434101 
L 46.322871 221.976472 
L 47.742021 220.950259 
L 49.16117 219.335439 
L 50.580319 217.116793 
L 51.999468 214.288122 
L 53.418617 210.694353 
L 54.837766 203.673603 
L 56.256915 190.049815 
L 57.676065 169.421636 
L 61.933512 94.053879 
L 63.352661 73.156809 
L 64.77181 56.627424 
L 66.190959 44.925459 
L 67.610109 38.152371 
L 69.029258 36.019555 
L 70.448407 37.854228 
L 71.867556 42.756331 
L 73.286705 49.800827 
L 74.705854 58.1718 
L 80.382451 94.187358 
L 83.220749 110.037268 
L 86.059048 123.952384 
L 90.316495 143.464769 
L 93.154793 158.194467 
L 95.993092 173.18375 
L 98.83139 186.835697 
L 100.250539 192.864611 
L 101.669688 198.304209 
L 103.088837 203.150456 
L 104.507986 207.415488 
L 105.927136 211.118521 
L 107.346285 214.279745 
L 108.765434 216.916463 
L 110.184583 219.040775 
L 111.603732 220.658318 
L 113.022881 221.767806 
L 114.442031 222.361186 
L 115.86118 222.4244 
L 117.280329 221.938842 
L 118.699478 220.883651 
L 120.118627 219.238954 
L 121.537776 216.989884 
L 122.956925 214.130765 
L 124.376075 210.456975 
L 125.795224 203.167715 
L 127.214373 189.172159 
L 128.633522 168.246004 
L 132.890969 92.917417 
L 134.310119 72.22135 
L 135.729268 55.925602 
L 137.148417 44.470669 
L 138.567566 37.939934 
L 139.986715 36.024204 
L 141.405864 38.034582 
L 142.825014 43.065238 
L 144.244163 50.194171 
L 147.082461 67.675273 
L 149.920759 85.94813 
L 152.759058 102.771327 
L 155.597356 117.5505 
L 158.435654 130.6959 
L 162.693102 148.9751 
L 168.369698 172.505633 
L 171.207996 183.575347 
L 174.046295 193.734332 
L 176.884593 202.776412 
L 179.722891 210.630524 
L 181.142041 214.086766 
L 182.56119 217.210785 
L 183.980339 219.993154 
L 185.399488 222.429568 
L 186.818637 224.518598 
L 188.237786 226.258534 
L 189.656935 227.644707 
L 191.076085 228.667665 
L 192.495234 229.312224 
L 193.914383 229.55723 
L 195.333532 229.376033 
L 196.752681 228.737733 
L 198.17183 227.609434 
L 199.590979 225.959654 
L 201.010129 223.763116 
L 202.429278 221.006776 
L 203.848427 217.696644 
L 205.267576 213.864376 
L 206.686725 209.57209 
L 209.525024 200.011297 
L 213.782471 185.260596 
L 216.620769 176.591809 
L 219.459068 169.142367 
L 222.297366 161.837315 
L 225.135664 153.680689 
L 226.554813 150.209452 
L 227.973962 147.834552 
L 229.393112 146.619373 
L 230.812261 146.43001 
L 232.23141 147.11262 
L 233.650559 148.543102 
L 235.069708 150.626629 
L 236.488857 153.286211 
L 237.908007 156.451012 
L 239.327156 160.048058 
L 242.165454 168.217847 
L 250.680349 194.637794 
L 253.518647 202.487533 
L 256.356945 209.432112 
L 257.776095 212.487432 
L 259.195244 215.22388 
L 260.614393 217.617135 
L 262.033542 219.647382 
L 263.452691 221.296507 
L 264.87184 222.545439 
L 266.290989 223.372144 
L 267.710139 223.750874 
L 269.129288 223.652495 
L 270.548437 223.046026 
L 271.967586 221.901435 
L 273.386735 220.193821 
L 274.805884 217.908901 
L 276.225034 215.04942 
L 277.644183 211.641406 
L 279.063332 207.739513 
L 281.90163 198.823087 
L 286.159078 184.607422 
L 288.997376 176.043767 
L 291.835674 168.684523 
L 294.673972 161.774018 
L 298.93142 150.62977 
L 300.350569 148.019242 
L 301.769718 146.521815 
L 303.188867 146.061665 
L 304.608017 146.49619 
L 306.027166 147.702174 
L 307.446315 149.584552 
L 308.865464 152.066211 
L 310.284613 155.076703 
L 311.703762 158.543883 
L 314.542061 166.529814 
L 318.799508 179.843429 
L 323.056955 192.919766 
L 325.895254 200.868029 
L 328.733552 207.926109 
L 330.152701 211.035057 
L 331.57185 213.818553 
L 332.990999 216.249259 
L 334.410149 218.304645 
L 335.829298 219.964209 
L 337.248447 221.206731 
L 338.667596 222.008425 
L 340.086745 222.342375 
L 341.505894 222.179027 
L 342.925044 221.488108 
L 344.344193 220.241785 
L 345.763342 218.419209 
L 347.182491 216.012233 
L 348.60164 213.031784 
L 350.020789 209.513846 
L 351.439938 205.523616 
L 354.278237 196.533109 
L 358.535684 182.518829 
L 361.373982 174.234131 
L 364.212281 167.138281 
L 367.050579 160.363094 
L 369.888877 152.959019 
L 371.308027 149.731821 
L 372.727176 147.479908 
L 374.146325 146.317121 
L 375.565474 146.139281 
L 376.984623 146.807316 
L 378.403772 148.207794 
L 379.822921 150.253508 
L 381.242071 152.871978 
L 382.66122 155.994686 
L 384.080369 159.54975 
L 386.918667 167.637302 
L 396.852711 197.858813 
L 399.69101 205.245778 
L 401.110159 208.555703 
L 402.529308 211.559886 
L 403.948457 214.225719 
L 405.367606 216.526507 
L 406.786755 218.439571 
L 408.205904 219.943323 
L 409.625054 221.014804 
L 411.044203 221.628342 
L 412.463352 221.755455 
L 413.882501 221.366032 
L 415.30165 220.430802 
L 416.720799 218.925182 
L 418.139948 216.834419 
L 419.559098 214.15969 
L 420.978247 210.92438 
L 422.397396 207.17929 
L 425.235694 198.511512 
L 430.912291 180.046517 
L 433 174.12941 
L 433 174.12941 
" style="fill:none;stroke:#004d99;stroke-linecap:square;stroke-width:2.5;"/>
   </g>
   <g id="line2d_12">
    <path clip-path="url(#p8eba76e973)" d="M -1 55.771972 
L -0.509051 55.393856 
L 0.910099 55.547571 
L 2.329248 56.830934 
L 3.748397 59.143708 
L 5.167546 62.400526 
L 6.586695 66.527471 
L 8.005844 71.45774 
L 9.424993 77.126945 
L 10.844143 83.468615 
L 13.682441 97.871822 
L 16.520739 113.984526 
L 20.778187 139.982844 
L 25.035634 165.64754 
L 27.873932 180.96058 
L 29.293082 187.832835 
L 30.712231 194.112506 
L 32.13138 199.76494 
L 33.550529 204.765345 
L 34.969678 209.093219 
L 36.388827 212.724784 
L 37.807976 215.623185 
L 39.227126 217.726312 
L 40.646275 218.932939 
L 42.065424 219.090338 
L 43.484573 217.992088 
L 44.903722 215.401076 
L 46.322871 211.112715 
L 47.742021 205.052341 
L 49.16117 197.360269 
L 50.580319 188.400887 
L 53.418617 168.518517 
L 54.837766 156.428235 
L 57.676065 125.510862 
L 59.095214 110.239536 
L 60.514363 96.69145 
L 61.933512 85.189903 
L 63.352661 75.765947 
L 64.77181 68.325133 
L 66.190959 62.723179 
L 67.610109 58.800648 
L 69.029258 56.399553 
L 70.448407 55.37199 
L 71.867556 55.584854 
L 73.286705 56.92195 
L 74.705854 59.283848 
L 76.125004 62.585847 
L 77.544153 66.754496 
L 78.963302 71.723226 
L 80.382451 77.427652 
L 81.8016 83.801092 
L 84.639898 98.255932 
L 87.478197 114.401411 
L 91.735644 140.42294 
L 95.993092 166.051738 
L 98.83139 181.316853 
L 100.250539 188.160561 
L 101.669688 194.409655 
L 103.088837 200.030078 
L 104.507986 204.9974 
L 105.927136 209.291152 
L 107.346285 212.887156 
L 108.765434 215.747607 
L 110.184583 217.808773 
L 111.603732 218.96712 
L 113.022881 219.06715 
L 114.442031 217.900081 
L 115.86118 215.228563 
L 117.280329 210.852024 
L 118.699478 204.704913 
L 120.118627 196.93934 
L 121.537776 187.929317 
L 124.376075 167.975054 
L 125.795224 155.747601 
L 128.633522 124.718157 
L 130.052671 109.517367 
L 131.47182 96.067301 
L 132.890969 84.670338 
L 134.310119 75.348352 
L 135.729268 68.003086 
L 137.148417 62.48889 
L 138.567566 58.646098 
L 139.986715 56.317062 
L 141.405864 55.354531 
L 142.825014 55.626214 
L 144.244163 57.016772 
L 145.663312 59.427576 
L 147.082461 62.774577 
L 148.50161 66.984777 
L 149.920759 71.991828 
L 151.339908 77.731329 
L 152.759058 84.136381 
L 155.597356 98.642461 
L 158.435654 114.820206 
L 166.950549 165.156349 
L 169.788847 180.055494 
L 172.627146 193.21718 
L 174.046295 199.087426 
L 175.465444 204.473918 
L 176.884593 209.379518 
L 178.303742 213.813411 
L 179.722891 217.78956 
L 181.142041 221.32514 
L 182.56119 224.438882 
L 183.980339 227.149243 
L 185.399488 229.472275 
L 186.818637 231.418996 
L 188.237786 232.991906 
L 189.656935 234.180222 
L 191.076085 234.953315 
L 192.495234 235.2521 
L 193.914383 234.979078 
L 195.333532 233.99037 
L 196.752681 232.09792 
L 198.17183 229.095309 
L 199.590979 224.81812 
L 201.010129 219.228751 
L 202.429278 212.480945 
L 205.267576 196.970584 
L 208.105874 181.671442 
L 209.525024 174.964736 
L 210.944173 169.156037 
L 212.363322 164.344118 
L 213.782471 160.568686 
L 215.20162 157.827501 
L 216.620769 156.089111 
L 218.039918 155.301571 
L 219.459068 155.398014 
L 220.878217 156.299997 
L 222.297366 157.919391 
L 223.716515 160.15973 
L 225.135664 162.918522 
L 226.554813 166.092158 
L 229.393112 173.30156 
L 235.069708 189.09217 
L 239.327156 200.499506 
L 242.165454 207.3774 
L 245.003752 213.469691 
L 246.422901 216.182227 
L 247.842051 218.654542 
L 249.2612 220.873324 
L 250.680349 222.823907 
L 252.099498 224.488856 
L 253.518647 225.846168 
L 254.937796 226.867037 
L 256.356945 227.513262 
L 257.776095 227.734742 
L 259.195244 227.46796 
L 260.614393 226.637019 
L 262.033542 225.159638 
L 263.452691 222.960492 
L 264.87184 219.992089 
L 266.290989 216.25916 
L 267.710139 211.8375 
L 270.548437 201.586039 
L 273.386735 190.952122 
L 274.805884 186.045259 
L 276.225034 181.641873 
L 277.644183 177.859093 
L 279.063332 174.771965 
L 280.482481 172.419285 
L 281.90163 170.810176 
L 283.320779 169.930199 
L 284.739928 169.746336 
L 286.159078 170.211119 
L 287.578227 171.26586 
L 288.997376 172.84322 
L 290.416525 174.869322 
L 291.835674 177.265703 
L 294.673972 182.848565 
L 304.608017 204.085271 
L 307.446315 209.390483 
L 310.284613 214.069131 
L 313.122911 218.018043 
L 314.542061 219.683588 
L 315.96121 221.12007 
L 317.380359 222.305842 
L 318.799508 223.214666 
L 320.218657 223.814764 
L 321.637806 224.068097 
L 323.056955 223.930343 
L 324.476105 223.352303 
L 325.895254 222.283658 
L 327.314403 220.679893 
L 328.733552 218.51244 
L 330.152701 215.780672 
L 331.57185 212.522411 
L 332.990999 208.819277 
L 335.829298 200.596027 
L 338.667596 192.336627 
L 340.086745 188.575436 
L 341.505894 185.222858 
L 342.925044 182.365625 
L 344.344193 180.061815 
L 345.763342 178.343372 
L 347.182491 177.219565 
L 348.60164 176.680636 
L 350.020789 176.701275 
L 351.439938 177.243659 
L 352.859088 178.260121 
L 354.278237 179.695439 
L 355.697386 181.488808 
L 357.116535 183.575729 
L 359.954833 188.367977 
L 369.888877 206.259995 
L 372.727176 210.673276 
L 375.565474 214.530175 
L 376.984623 216.217721 
L 378.403772 217.725339 
L 379.822921 219.035906 
L 381.242071 220.129419 
L 382.66122 220.982438 
L 384.080369 221.567665 
L 385.499518 221.853759 
L 386.918667 221.805667 
L 388.337816 221.385877 
L 389.756965 220.557104 
L 391.176115 219.28682 
L 392.595264 217.553698 
L 394.014413 215.355237 
L 395.433562 212.714996 
L 396.852711 209.687185 
L 399.69101 202.833243 
L 402.529308 195.713967 
L 403.948457 192.369633 
L 405.367606 189.316631 
L 406.786755 186.641505 
L 408.205904 184.408452 
L 409.625054 182.659606 
L 411.044203 181.416626 
L 412.463352 180.683137 
L 413.882501 180.447331 
L 415.30165 180.684579 
L 416.720799 181.359841 
L 418.139948 182.429837 
L 419.559098 183.844978 
L 420.978247 185.551136 
L 423.816545 189.609185 
L 428.073992 196.510743 
L 433 204.45003 
L 433 204.45003 
" style="fill:none;stroke:#f3902a;stroke-dasharray:7.4,3.2;stroke-dashoffset:0;stroke-width:2;"/>
   </g>
   <g id="line2d_13">
    <path clip-path="url(#p8eba76e973)" d="M -1 31.845765 
L -0.509051 33.927618 
L 0.910099 42.56988 
L 2.329248 52.986692 
L 6.586695 88.172489 
L 9.424993 110.831016 
L 12.263292 131.130334 
L 15.10159 148.744582 
L 17.939888 163.879628 
L 20.778187 178.056965 
L 23.616485 190.847899 
L 25.035634 196.567733 
L 26.454783 201.797613 
L 27.873932 206.526374 
L 29.293082 210.755013 
L 30.712231 214.492613 
L 32.13138 217.751712 
L 33.550529 220.543834 
L 34.969678 222.875565 
L 36.388827 224.745326 
L 37.807976 226.14089 
L 39.227126 227.037803 
L 40.646275 227.399003 
L 42.065424 227.176113 
L 43.484573 226.312916 
L 44.903722 224.751227 
L 46.322871 222.439301 
L 47.742021 219.342066 
L 49.16117 215.45135 
L 50.580319 210.792943 
L 51.999468 205.426234 
L 53.418617 199.089681 
L 54.837766 187.273593 
L 56.256915 166.43081 
L 60.514363 82.078919 
L 61.933512 60.001738 
L 63.352661 43.490863 
L 64.77181 32.475624 
L 66.190959 26.553773 
L 67.610109 25.242595 
L 69.029258 28.011644 
L 70.448407 34.187462 
L 71.867556 42.945904 
L 73.286705 53.438865 
L 81.8016 121.76322 
L 84.639898 140.66694 
L 87.478197 156.919561 
L 91.735644 178.371876 
L 94.573942 191.125463 
L 95.993092 196.823423 
L 97.412241 202.03035 
L 98.83139 206.735776 
L 100.250539 210.941227 
L 101.669688 214.656087 
L 103.088837 217.892966 
L 104.507986 220.663244 
L 105.927136 222.973195 
L 107.346285 224.820784 
L 108.765434 226.193235 
L 110.184583 227.065489 
L 111.603732 227.399907 
L 113.022881 227.147656 
L 114.442031 226.252264 
L 115.86118 224.655685 
L 117.280329 222.306745 
L 118.699478 219.17147 
L 120.118627 215.243229 
L 121.537776 210.549504 
L 122.956925 205.151095 
L 124.376075 198.68844 
L 125.795224 186.469722 
L 127.214373 165.184507 
L 131.47182 80.894141 
L 132.890969 59.093789 
L 134.310119 42.868415 
L 135.729268 32.121468 
L 137.148417 26.442574 
L 138.567566 25.347919 
L 139.986715 28.302698 
L 141.405864 34.625056 
L 142.825014 43.486357 
L 144.244163 54.041442 
L 152.759058 122.293957 
L 155.597356 141.124879 
L 158.435654 157.309722 
L 161.273952 171.116166 
L 164.112251 182.902482 
L 166.950549 193.003805 
L 169.788847 201.677186 
L 172.627146 209.091295 
L 175.465444 215.356522 
L 176.884593 218.09144 
L 178.303742 220.580505 
L 179.722891 222.833328 
L 181.142041 224.849389 
L 182.56119 226.616942 
L 183.980339 228.115661 
L 185.399488 229.318392 
L 186.818637 230.190189 
L 188.237786 230.685128 
L 189.656935 230.742561 
L 191.076085 230.284279 
L 192.495234 229.214261 
L 193.914383 227.422356 
L 195.333532 224.793371 
L 196.752681 221.222551 
L 198.17183 216.637022 
L 199.590979 211.021132 
L 201.010129 204.439193 
L 203.848427 189.097689 
L 206.686725 172.816294 
L 208.105874 165.178767 
L 209.525024 158.28335 
L 210.944173 152.342934 
L 212.363322 147.474057 
L 213.782471 143.693656 
L 215.20162 140.925263 
L 216.620769 139.008377 
L 218.039918 137.705464 
L 220.878217 135.677945 
L 223.716515 133.270921 
L 225.135664 132.98952 
L 226.554813 134.082415 
L 227.973962 136.516695 
L 229.393112 140.030192 
L 230.812261 144.340128 
L 233.650559 154.39433 
L 240.746305 180.870834 
L 243.584603 190.272684 
L 246.422901 198.534631 
L 249.2612 205.591545 
L 250.680349 208.667255 
L 252.099498 211.424171 
L 253.518647 213.830682 
L 254.937796 215.842622 
L 256.356945 217.405948 
L 257.776095 218.456028 
L 259.195244 218.914606 
L 260.614393 218.687098 
L 262.033542 217.663115 
L 263.452691 215.722578 
L 264.87184 212.749177 
L 266.290989 208.65144 
L 267.710139 203.389442 
L 269.129288 197.001478 
L 270.548437 189.624236 
L 273.386735 172.941434 
L 276.225034 156.054784 
L 277.644183 148.440377 
L 279.063332 141.751452 
L 280.482481 136.148735 
L 281.90163 131.687547 
L 283.320779 128.323688 
L 284.739928 125.925108 
L 286.159078 124.28395 
L 287.578227 123.128796 
L 291.835674 120.258681 
L 293.254823 120.091693 
L 294.673972 121.234575 
L 296.093122 123.77797 
L 297.512271 127.494084 
L 298.93142 132.10002 
L 301.769718 143.007071 
L 308.865464 172.411349 
L 311.703762 182.922767 
L 314.542061 192.141223 
L 315.96121 196.236272 
L 317.380359 199.980171 
L 318.799508 203.353099 
L 320.218657 206.318621 
L 321.637806 208.826325 
L 323.056955 210.81529 
L 324.476105 212.214161 
L 325.895254 212.938478 
L 327.314403 212.888314 
L 328.733552 211.949424 
L 330.152701 210.000373 
L 331.57185 206.927209 
L 332.990999 202.645549 
L 334.410149 197.127682 
L 335.829298 190.428788 
L 337.248447 182.705282 
L 340.086745 165.305164 
L 342.925044 147.776998 
L 344.344193 139.892968 
L 345.763342 132.970083 
L 347.182491 127.16527 
L 348.60164 122.527891 
L 350.020789 119.007238 
L 351.439938 116.465814 
L 352.859088 114.694106 
L 354.278237 113.429886 
L 357.116535 111.492133 
L 358.535684 110.921546 
L 359.954833 111.290057 
L 361.373982 113.050112 
L 362.793132 116.199119 
L 364.212281 120.481088 
L 365.63143 125.610703 
L 368.469728 137.455368 
L 375.565474 168.620516 
L 378.403772 179.574067 
L 381.242071 189.10965 
L 382.66122 193.311563 
L 384.080369 197.107084 
L 385.499518 200.454265 
L 386.918667 203.296593 
L 388.337816 205.566789 
L 389.756965 207.187322 
L 391.176115 208.06824 
L 392.595264 208.105446 
L 394.014413 207.182678 
L 395.433562 205.179696 
L 396.852711 201.987851 
L 398.27186 197.532561 
L 399.69101 191.799793 
L 401.110159 184.860933 
L 402.529308 176.888447 
L 405.367606 159.013916 
L 408.205904 141.083334 
L 409.625054 133.024829 
L 411.044203 125.940061 
L 412.463352 119.981288 
L 413.882501 115.193992 
L 415.30165 111.525015 
L 416.720799 108.836958 
L 418.139948 106.925816 
L 419.559098 105.54798 
L 420.978247 104.48315 
L 422.397396 103.680768 
L 423.816545 103.439313 
L 425.235694 104.302339 
L 426.654843 106.60225 
L 428.073992 110.267345 
L 429.493142 115.025623 
L 430.912291 120.59107 
L 433 129.766772 
L 433 129.766772 
" style="fill:none;stroke:#f3902a;stroke-linecap:square;stroke-width:2.5;"/>
   </g>
   <g id="patch_10">
    <path d="M 52.78 248.84 
L 52.78 19.2 
" style="fill:none;stroke:#000000;stroke-linecap:square;stroke-linejoin:miter;stroke-width:0.8;"/>
   </g>
   <g id="patch_11">
    <path d="M 407.2125 248.84 
L 407.2125 19.2 
" style="fill:none;stroke:#000000;stroke-linecap:square;stroke-linejoin:miter;stroke-width:0.8;"/>
   </g>
   <g id="patch_12">
    <path d="M 52.78 248.84 
L 407.2125 248.84 
" style="fill:none;stroke:#000000;stroke-linecap:square;stroke-linejoin:miter;stroke-width:0.8;"/>
   </g>
   <g id="patch_13">
    <path d="M 52.78 19.2 
L 407.2125 19.2 
" style="fill:none;stroke:#000000;stroke-linecap:square;stroke-linejoin:miter;stroke-width:0.8;"/>
   </g>
  </g>
 </g>
 <defs>
  <clipPath id="p8eba76e973">
   <rect height="229.64" width="354.4325" x="52.78" y="19.2"/>
  </clipPath>
 </defs>
</svg>
